<svg width="529" height="188" viewBox="0 0 529 188" fill="none" xmlns="http://www.w3.org/2000/svg">
    <path d="M52 150C42.4 150 33.8667 148.8 26.4 146.4C18.9333 144 11.9333 139.933 5.4 134.2C1.8 131 5.66244e-07 127.467 5.66244e-07 123.6C5.66244e-07 120.533 1.13333 117.867 3.4 115.6C5.66667 113.2 8.4 112 11.6 112C14.1333 112 16.4 112.8 18.4 114.4C23.7333 118.8 28.9333 122 34 124C39.0667 126 45.0667 127 52 127C59.4667 127 65.8667 125.333 71.2 122C76.6667 118.667 79.4 114.533 79.4 109.6C79.4 103.6 76.7333 98.9333 71.4 95.6C66.0667 92.1333 57.6 89.5333 46 87.8C16.8 83.5333 2.2 69.9333 2.2 47C2.2 38.6 4.4 31.3333 8.8 25.2C13.2 18.9333 19.2 14.2 26.8 11C34.4 7.66666 42.8667 5.99999 52.2 5.99999C60.6 5.99999 68.4667 7.26666 75.8 9.79999C83.2667 12.3333 89.4667 15.6667 94.4 19.8C98.2667 22.8667 100.2 26.4 100.2 30.4C100.2 33.4667 99.0667 36.2 96.8 38.6C94.5333 40.8667 91.8667 42 88.8 42C86.8 42 85 41.4 83.4 40.2C79.9333 37.4 75.0667 34.8667 68.8 32.6C62.6667 30.2 57.1333 29 52.2 29C43.8 29 37.2667 30.6 32.6 33.8C28.0667 36.8667 25.8 40.9333 25.8 46C25.8 51.7333 28.1333 56.0667 32.8 59C37.6 61.9333 45.0667 64.3333 55.2 66.2C66.6667 68.2 75.8 70.8 82.6 74C89.5333 77.0667 94.7333 81.3333 98.2 86.8C101.667 92.1333 103.4 99.2667 103.4 108.2C103.4 116.6 101 124 96.2 130.4C91.5333 136.667 85.2667 141.533 77.4 145C69.5333 148.333 61.0667 150 52 150ZM179.736 39C188.936 39 197.269 41.4 204.736 46.2C212.203 50.8667 218.069 57.4 222.336 65.8C226.736 74.2 228.936 83.7333 228.936 94.4C228.936 105.067 226.803 114.667 222.536 123.2C218.269 131.6 212.403 138.2 204.936 143C197.603 147.667 189.469 150 180.536 150C174.136 150 168.069 148.733 162.336 146.2C156.736 143.533 152.069 140.333 148.336 136.6V175.8C148.336 179.267 147.203 182.133 144.936 184.4C142.669 186.8 139.803 188 136.336 188C132.869 188 130.003 186.867 127.736 184.6C125.469 182.333 124.336 179.4 124.336 175.8V53.2C124.336 49.7333 125.469 46.8667 127.736 44.6C130.003 42.2 132.869 41 136.336 41C139.803 41 142.669 42.2 144.936 44.6C147.203 46.8667 148.336 49.7333 148.336 53.2V54C151.536 50 156.003 46.5333 161.736 43.6C167.469 40.5333 173.469 39 179.736 39ZM176.736 128C185.269 128 192.269 124.8 197.736 118.4C203.203 112 205.936 104 205.936 94.4C205.936 84.8 203.203 76.8667 197.736 70.6C192.403 64.2 185.403 61 176.736 61C168.069 61 161.003 64.2 155.536 70.6C150.069 76.8667 147.336 84.8 147.336 94.4C147.336 104 150.069 112 155.536 118.4C161.003 124.8 168.069 128 176.736 128ZM271.545 135.8C271.545 139.267 270.412 142.2 268.145 144.6C265.879 146.867 263.012 148 259.545 148C256.079 148 253.212 146.867 250.945 144.6C248.679 142.2 247.545 139.267 247.545 135.8V53.2C247.545 49.7333 248.679 46.8667 250.945 44.6C253.212 42.2 256.079 41 259.545 41C263.012 41 265.879 42.2 268.145 44.6C270.412 46.8667 271.545 49.7333 271.545 53.2V135.8ZM259.345 28C254.812 28 251.612 27.2667 249.745 25.8C247.879 24.3333 246.945 21.7333 246.945 18V14.2C246.945 10.4667 247.945 7.86666 249.945 6.4C251.945 4.93333 255.145 4.19999 259.545 4.19999C264.212 4.19999 267.479 4.93333 269.345 6.4C271.212 7.86666 272.145 10.4667 272.145 14.2V18C272.145 21.8667 271.145 24.5333 269.145 26C267.279 27.3333 264.012 28 259.345 28ZM347.811 125.4C349.678 125.4 351.344 126.333 352.811 128.2C354.411 129.933 355.211 132.267 355.211 135.2C355.211 138.8 353.211 141.867 349.211 144.4C345.344 146.8 340.944 148 336.011 148C327.744 148 320.744 146.267 315.011 142.8C309.411 139.2 306.611 131.667 306.611 120.2V65H297.411C294.211 65 291.544 63.9333 289.411 61.8C287.278 59.6667 286.211 57 286.211 53.8C286.211 50.7333 287.278 48.2 289.411 46.2C291.544 44.0667 294.211 43 297.411 43H306.611V30.2C306.611 26.7333 307.744 23.8667 310.011 21.6C312.411 19.2 315.344 18 318.811 18C322.144 18 324.944 19.2 327.211 21.6C329.478 23.8667 330.611 26.7333 330.611 30.2V43H344.811C348.011 43 350.678 44.0667 352.811 46.2C354.944 48.3333 356.011 51 356.011 54.2C356.011 57.2667 354.944 59.8667 352.811 62C350.678 64 348.011 65 344.811 65H330.611V119.2C330.611 122 331.344 124.067 332.811 125.4C334.278 126.6 336.278 127.2 338.811 127.2C339.878 127.2 341.344 126.933 343.211 126.4C344.811 125.733 346.344 125.4 347.811 125.4ZM464.647 39C468.114 39 470.98 40.1333 473.247 42.4C475.514 44.6667 476.647 47.6 476.647 51.2V135.8C476.647 139.267 475.514 142.2 473.247 144.6C470.98 146.867 468.114 148 464.647 148C461.18 148 458.314 146.867 456.047 144.6C453.914 142.333 452.78 139.467 452.647 136C449.314 139.867 444.78 143.2 439.047 146C433.447 148.667 427.514 150 421.247 150C412.047 150 403.714 147.667 396.247 143C388.78 138.2 382.847 131.6 378.447 123.2C374.18 114.8 372.047 105.267 372.047 94.6C372.047 83.9333 374.18 74.4 378.447 66C382.714 57.4667 388.514 50.8667 395.847 46.2C403.314 41.4 411.514 39 420.447 39C426.847 39 432.847 40.2 438.447 42.6C444.047 44.8667 448.78 47.8 452.647 51.4V51.2C452.647 47.7333 453.78 44.8667 456.047 42.6C458.314 40.2 461.18 39 464.647 39ZM424.247 128C432.914 128 439.98 124.867 445.447 118.6C450.914 112.2 453.647 104.2 453.647 94.6C453.647 85 450.914 77 445.447 70.6C439.98 64.2 432.914 61 424.247 61C415.714 61 408.714 64.2 403.247 70.6C397.78 77 395.047 85 395.047 94.6C395.047 104.2 397.714 112.2 403.047 118.6C408.514 124.867 415.58 128 424.247 128ZM528.656 135.8C528.656 139.267 527.456 142.2 525.056 144.6C522.79 146.867 519.923 148 516.456 148C513.123 148 510.323 146.867 508.056 144.6C505.79 142.2 504.656 139.267 504.656 135.8V12.2C504.656 8.73333 505.79 5.86666 508.056 3.59999C510.456 1.19999 513.39 -1.90735e-06 516.856 -1.90735e-06C520.19 -1.90735e-06 522.99 1.19999 525.256 3.59999C527.523 5.86666 528.656 8.73333 528.656 12.2V135.8Z" fill="white" />
</svg>
