<svg width="162" height="134" viewBox="0 0 162 134" fill="none" xmlns="http://www.w3.org/2000/svg">
<g clip-path="url(#clip0)">
<path d="M147.054 22.2959L133.477 22.4525C132.839 18.734 130.695 8.97713 132.626 6.31586C132.714 5.31422 133.125 4.39136 133.774 3.73938C134.422 3.0874 135.258 2.75654 136.107 2.81568C138.212 -1.08313 141.717 -0.497749 144.086 1.93723C146.47 2.91094 147.369 4.6408 147.054 6.9883C148.82 8.81762 149.146 11.0432 148.353 13.5767L147.054 22.2959Z" fill="#2F2E41"/>
<path d="M145.747 32.1953L135.952 30.59L133.993 27.201C136.692 25.0823 137.647 22.1229 136.404 18.1043L143.186 17.9259C142.868 21.5046 143.868 24.2754 146.652 25.9525L145.747 32.1953Z" fill="#FFB9B9"/>
<path d="M145.597 137.611L142.047 137.189L138.514 92.4836L137.179 137.045L133.691 136.897L127.814 75.1818H150.268L145.597 137.611Z" fill="#6C63FF"/>
<path d="M140.172 20.9582C143.917 20.9582 146.953 17.3646 146.953 12.9316C146.953 8.4987 143.917 4.9051 140.172 4.9051C136.426 4.9051 133.39 8.4987 133.39 12.9316C133.39 17.3646 136.426 20.9582 140.172 20.9582Z" fill="#FFB9B9"/>
<path d="M153.584 76.6088L126.157 76.9656C130.227 58.6253 132.662 41.5887 128.417 29.8766L135.199 25.9525C138.468 29.9892 142.11 29.5731 146.049 25.5957L152.529 27.5578C151.419 42.9165 151.916 59.3658 153.584 76.6088Z" fill="#6C63FF"/>
<path d="M118.622 57.7019L135.651 65.7284L139.458 67.0538C139.628 67.1131 139.807 67.131 139.983 67.1065C140.159 67.082 140.33 67.0155 140.484 66.9112C140.638 66.8068 140.772 66.6666 140.88 66.4991C140.987 66.3316 141.064 66.1402 141.107 65.9364C141.183 65.579 141.149 65.2015 141.012 64.8708C140.874 64.5402 140.643 64.2778 140.357 64.1301L136.404 62.6962L124.499 54.4913L126.985 46.7323L121.786 43.4325L118.622 57.7019Z" fill="#FFB9B9"/>
<path d="M118.772 43.0757C122.012 44.5718 124.589 47.125 126.609 50.5672L132.938 39.6868L128.417 29.8766L118.772 43.0757Z" fill="#6C63FF"/>
<path d="M147.815 11.6308C145.062 10.7914 142.356 10.6762 139.726 11.7408C138.05 12.7014 136.038 12.6129 133.8 11.8215V3.81338L145.882 4.19471L147.815 11.6308Z" fill="#2F2E41"/>
<path d="M135.594 48.3499C135.062 48.3506 134.551 48.6013 134.175 49.047C133.798 49.4926 133.586 50.0969 133.586 50.7272L134.378 70.3698C134.379 71 134.591 71.6043 134.967 72.05C135.344 72.4956 135.854 72.7463 136.387 72.747H145.451C145.983 72.7463 146.494 72.4956 146.871 72.05C147.247 71.6043 147.459 71 147.459 70.3698L148.252 50.7272C148.252 50.0969 148.04 49.4926 147.663 49.047C147.287 48.6013 146.776 48.3506 146.244 48.3499H135.594Z" fill="#3F3D56"/>
<path d="M161.312 56.218L146.468 63.2134L145.349 63.7412C145.313 63.7576 145.277 63.7717 145.24 63.7858L141.488 65.0924C141.008 65.259 140.344 64.4942 139.956 63.9664C139.763 63.712 139.654 63.3845 139.649 63.0432C139.643 62.7019 139.74 62.3695 139.924 62.1061C139.976 62.0354 140.033 61.9702 140.094 61.9114C140.239 61.7782 140.409 61.6896 140.59 61.6534L144.338 60.7807C144.472 60.7495 144.601 60.6924 144.72 60.6118L146.468 59.406L155.544 53.1519C155.796 52.9783 155.988 52.7042 156.086 52.3786C156.184 52.053 156.181 51.6969 156.077 51.3737L154.345 45.9665C154.239 45.6357 154.238 45.2704 154.342 44.9388C154.447 44.6073 154.65 44.3322 154.914 44.1649L157.784 42.3445C157.948 42.2403 158.129 42.1815 158.315 42.1725C158.501 42.1636 158.687 42.2047 158.857 42.2928C159.028 42.3809 159.179 42.5136 159.3 42.681C159.421 42.8485 159.508 43.0462 159.556 43.2594L162.047 54.4914C162.123 54.8358 162.091 55.2015 161.956 55.5196C161.82 55.8376 161.591 56.086 161.312 56.218Z" fill="#FFB9B9"/>
<path d="M162.174 41.1137C158.934 42.6098 156.357 45.163 154.337 48.6051L148.008 37.7247L152.529 27.5578L162.174 41.1137Z" fill="#6C63FF"/>
<path d="M144.685 20.0757C141.718 21.5362 138.607 21.4769 135.369 20.0757C136.312 18.1722 134.903 16.6815 134.18 14.76L146.27 14.3347C145.346 16.004 143.981 17.9761 144.685 20.0757Z" fill="white"/>
<path d="M146.142 14.6523L146.002 14.4865L146.2 14.2519L147.384 12.6163L147.535 12.7688L146.346 14.4109L146.142 14.6523Z" fill="white"/>
<path d="M133.352 13.6581L133.225 13.8384L134.414 15.0114L134.541 14.8311L133.352 13.6581Z" fill="white"/>
<path d="M146.484 16.0315L144.402 19.9018L144.569 20.0278L146.651 16.1575L146.484 16.0315Z" fill="white"/>
<path d="M133.57 16.0312L133.403 16.1572L135.484 20.0279L135.651 19.9019L133.57 16.0312Z" fill="white"/>
<path d="M146.865 59.0742V63.3241L145.615 63.9133C145.575 63.9316 145.535 63.9473 145.493 63.9631L141.305 65.4216C140.77 65.6075 140.029 64.7538 139.595 64.1647C139.38 63.8807 139.259 63.5151 139.252 63.1342C139.246 62.7532 139.355 62.3821 139.56 62.0882C139.618 62.0092 139.681 61.9364 139.75 61.8708C139.911 61.7221 140.101 61.6232 140.303 61.5828L144.487 60.6087C144.637 60.5738 144.781 60.5101 144.914 60.4201L146.865 59.0742Z" fill="white"/>
<path d="M148.676 43.9153H147.96C147.96 31.9253 145.874 23.5698 143.842 23.5698L143.663 22.722C145.486 22.722 146.648 26.1995 147.302 29.1169C148.188 33.0719 148.676 38.3274 148.676 43.9153Z" fill="#3F3D56"/>
<path d="M132.203 40.9482H131.487C131.487 29.9674 133.587 23.1459 136.68 23.1459L136.5 23.9936C134.361 23.9936 132.203 29.2361 132.203 40.9482Z" fill="#3F3D56"/>
<path d="M148.318 46.2465C149.307 46.2465 150.109 45.2976 150.109 44.1272C150.109 42.9567 149.307 42.0078 148.318 42.0078C147.329 42.0078 146.528 42.9567 146.528 44.1272C146.528 45.2976 147.329 46.2465 148.318 46.2465Z" fill="#3F3D56"/>
<path d="M129.338 46.0346H128.622C128.622 42.9962 130.068 40.5243 131.845 40.5243V41.3721C130.463 41.3721 129.338 43.4636 129.338 46.0346Z" fill="#3F3D56"/>
<path d="M135.068 46.0346H134.352C134.352 43.4636 133.227 41.3721 131.845 41.3721V40.5243C133.622 40.5243 135.068 42.9962 135.068 46.0346Z" fill="#3F3D56"/>
<path d="M134.71 47.0942C135.105 47.0942 135.426 46.7147 135.426 46.2465C135.426 45.7783 135.105 45.3988 134.71 45.3988C134.314 45.3988 133.994 45.7783 133.994 46.2465C133.994 46.7147 134.314 47.0942 134.71 47.0942Z" fill="#3F3D56"/>
<path d="M128.98 47.0942C129.376 47.0942 129.696 46.7147 129.696 46.2465C129.696 45.7783 129.376 45.3988 128.98 45.3988C128.584 45.3988 128.264 45.7783 128.264 46.2465C128.264 46.7147 128.584 47.0942 128.98 47.0942Z" fill="#3F3D56"/>
<path d="M42.6662 17.7577L30.0874 20.2789C29.7766 20.3417 29.4573 20.2658 29.1911 20.0659C28.9249 19.866 28.7309 19.5563 28.6465 19.1969C27.7377 15.3146 25.8376 10.25 27.6824 7.70755C27.7763 6.63797 28.2152 5.6525 28.9077 4.95629C29.6001 4.26008 30.4927 3.90677 31.3997 3.96991C33.6468 -0.193393 37.3897 0.431701 39.9194 3.03187C42.4653 4.07164 43.4252 5.91886 43.0895 8.42562C44.1894 9.56511 44.766 10.8486 44.8876 12.2573C44.9452 13.0413 44.861 13.8308 44.6404 14.5731C44.4198 15.3154 44.068 15.9936 43.6085 16.5622L42.6662 17.7577Z" fill="#2F2E41"/>
<path d="M40.7106 29.4789L30.9591 28.7999C31.9148 26.2038 32.2965 23.7038 31.9151 21.3317H39.1809C39.1645 23.153 39.9302 26.3035 40.7106 29.4789Z" fill="#9F616A"/>
<path d="M41.7445 137.027L37.9546 136.577L34.1813 88.8386L32.7552 136.423L29.0317 136.265L22.7557 70.3631H46.7332L41.7445 137.027Z" fill="#6C63FF"/>
<path d="M35.7397 24.079C39.7391 24.079 42.9812 20.2416 42.9812 15.5079C42.9812 10.7742 39.7391 6.93684 35.7397 6.93684C31.7403 6.93684 28.4982 10.7742 28.4982 15.5079C28.4982 20.2416 31.7403 24.079 35.7397 24.079Z" fill="#9F616A"/>
<path d="M43.9013 11.4134C40.9622 10.8076 38.0725 10.7244 35.2635 11.4928C33.4741 12.1861 31.3252 12.1223 28.9355 11.551V5.77104L41.837 6.04628L43.9013 11.4134Z" fill="#2F2E41"/>
<path d="M40.559 22.3851C37.391 23.9448 34.0693 23.8814 30.6117 22.3851C31.6178 20.3525 30.1139 18.7606 29.3419 16.7088L42.2522 16.2547C41.2649 18.0372 39.8081 20.1431 40.559 22.3851Z" fill="white"/>
<path d="M28.4529 15.5383L28.326 15.7186L29.5958 16.971L29.7228 16.7907L28.4529 15.5383Z" fill="white"/>
<path d="M42.4861 18.0706L40.2633 22.2035L40.4305 22.3295L42.6533 18.1966L42.4861 18.0706Z" fill="white"/>
<path d="M28.6844 18.0704L28.5172 18.1964L30.7395 22.3297L30.9067 22.2038L28.6844 18.0704Z" fill="white"/>
<path d="M21.9725 54.5993L16.4276 50.5257L21.1564 34.133C21.6838 32.4415 22.6941 31.0212 24.0124 30.1178L25.6054 29.0262L25.7439 45.5634L21.9725 54.5993Z" fill="#6C63FF"/>
<path d="M45.9402 62.5608L45.1198 54.2441C45.076 49.8543 45.707 45.6102 47.2115 41.6996L47.9763 29.4789L39.5633 25.4053C39.5375 25.6082 39.5156 25.811 39.491 26.0139L35.548 28.3473L31.7026 27.3129L31.7239 25.8579L24.0758 29.9315C26.605 43.8491 25.2255 58.3019 20.8761 75.3732L30.9519 78.6341L31.0356 72.9077L40.0153 72.1486C40.1078 74.0064 40.1822 75.8313 40.2253 77.6157C45.2923 79.8237 45.4663 79.7871 50.083 76.6257C48.2445 72.0506 46.7887 67.2897 45.9402 62.5608Z" fill="#6C63FF"/>
<path d="M58.875 52.5624L53.7125 50.5257L45.4548 39.1475L47.9763 29.479L59.4486 48.489L58.875 52.5624Z" fill="#6C63FF"/>
<path d="M42.6957 61.3712C42.7802 61.81 43.0082 62.1912 43.3298 62.4312C43.6513 62.6713 44.0402 62.7506 44.4111 62.6519L48.7934 61.4772L48.1601 58.1664L43.7777 59.3409C43.4067 59.4403 43.0844 59.7101 42.8815 60.0909C42.6786 60.4716 42.6118 60.9322 42.6957 61.3712V61.3712Z" fill="#E6E6E6"/>
<path d="M46.6379 57.5413L49.1236 62.9728C53.3044 61.5926 56.9278 57.2416 60.4046 52.1099L59.4486 48.4889L53.5213 50.2994L46.6379 57.5413Z" fill="#6C63FF"/>
<path d="M14.2286 40.5041L19.0005 41.5126L29.9075 59.8684L24.1132 58.2547L14.2286 40.5041Z" fill="#E6E6E6"/>
<path d="M13.3823 40.2794C13.3096 40.2807 13.2385 40.3051 13.1765 40.3501C13.1145 40.395 13.0638 40.4589 13.0297 40.5349C12.9957 40.611 12.9796 40.6965 12.983 40.7825C12.9864 40.8684 13.0093 40.9517 13.0493 41.0237L23.2445 59.3323C23.3013 59.4347 23.3892 59.5073 23.49 59.5353L28.2335 60.8563C28.3135 60.8786 28.3973 60.8716 28.4738 60.8362C28.5504 60.8008 28.616 60.7387 28.662 60.6581C28.708 60.5775 28.7323 60.4823 28.7315 60.3851C28.7307 60.2878 28.705 60.1931 28.6577 60.1136L17.4641 41.2754C17.4337 41.2241 17.3951 41.1803 17.3505 41.1467C17.3058 41.113 17.256 41.0901 17.2039 41.0792L13.4588 40.2876C13.4335 40.2822 13.4079 40.2795 13.3823 40.2794Z" fill="#3F3D56"/>
<path d="M19.7421 53.3699L20.0254 56.748L24.4967 56.2227C24.8752 56.1782 25.2232 55.9576 25.4643 55.6094C25.7054 55.2612 25.8197 54.814 25.7821 54.366C25.7446 53.9181 25.5582 53.5061 25.264 53.2208C24.9698 52.9355 24.5919 52.8002 24.2135 52.8446L19.7421 53.3699Z" fill="#E6E6E6"/>
<path d="M15.854 52.9786C15.8605 54.1305 16.2514 55.2326 16.9415 56.0449C17.6315 56.8571 18.5648 57.3137 19.538 57.315H20.2732L20.8085 52.0355L16.3767 50.1471L15.854 52.9786Z" fill="#6C63FF"/>
<path d="M41.8989 16.8387L41.7588 16.6728L41.9704 16.4223L43.2352 14.6753L43.3856 14.8278L42.1157 16.5814L41.8989 16.8387Z" fill="white"/>
<path d="M67.1892 144.296H108.811V84.5429C108.811 81.3789 106.178 78.8048 102.941 78.8048H73.0587C69.8222 78.8048 67.1892 81.3789 67.1892 84.5429V144.296Z" fill="#E6E6E6"/>
<path d="M70.3604 141.825H105.64V91.1773C105.64 88.4954 103.408 86.3136 100.665 86.3136H75.3355C72.5921 86.3136 70.3604 88.4954 70.3604 91.1773V141.825Z" fill="white"/>
<path d="M66.8748 74.1546C65.846 74.1546 65.009 74.9729 65.009 75.9786V81.2436C65.009 82.2493 65.846 83.0676 66.8748 83.0676H109.125C110.154 83.0676 110.991 82.2493 110.991 81.2436V75.9786C110.991 74.9729 110.154 74.1546 109.125 74.1546H66.8748Z" fill="#3F3D56"/>
<path d="M90.9455 102.834C90.6132 102.42 90.1556 102.177 89.6729 102.16C89.1901 102.144 88.7213 102.353 88.3689 102.744C88.0184 103.138 87.8136 103.679 87.7994 104.251C87.7851 104.822 87.9625 105.377 88.2928 105.794L90.6331 108.733L93.2858 105.773L90.9455 102.834Z" fill="#3F3D56"/>
<path d="M95.4337 108.47L93.1576 105.612L90.5048 108.572L92.781 111.43C93.1133 111.844 93.5709 112.087 94.0536 112.104C94.5364 112.12 95.0052 111.911 95.3577 111.52C95.7082 111.126 95.9129 110.585 95.9272 110.013C95.9414 109.442 95.764 108.887 95.4337 108.47Z" fill="#6C63FF"/>
<path opacity="0.2" d="M95.9248 109.857C95.8821 110.372 95.6834 110.851 95.3655 111.207C95.013 111.598 94.5442 111.808 94.0615 111.791C93.5787 111.774 93.1211 111.532 92.7888 111.117L90.6409 108.42L90.5048 108.572L92.781 111.43C93.1133 111.844 93.5709 112.087 94.0536 112.104C94.5364 112.12 95.0052 111.911 95.3576 111.52C95.5476 111.307 95.6966 111.048 95.7945 110.761C95.8923 110.474 95.9368 110.166 95.9248 109.857Z" fill="black"/>
<path d="M81.2338 109.637C80.9015 109.223 80.4439 108.98 79.9612 108.963C79.4784 108.947 79.0096 109.157 78.6571 109.547C78.3066 109.941 78.1019 110.482 78.0877 111.054C78.0734 111.625 78.2508 112.18 78.5811 112.597L80.9214 115.536L83.5741 112.576L81.2338 109.637Z" fill="#3F3D56"/>
<path d="M85.722 115.273L83.4458 112.415L80.7931 115.375L83.0693 118.233C83.4016 118.647 83.8591 118.89 84.3419 118.907C84.8247 118.924 85.2935 118.714 85.6459 118.323C85.9964 117.929 86.2012 117.388 86.2154 116.816C86.2297 116.245 86.0523 115.69 85.722 115.273Z" fill="#6C63FF"/>
<path opacity="0.2" d="M86.2131 116.66C86.1704 117.175 85.9717 117.654 85.6538 118.01C85.3013 118.401 84.8325 118.611 84.3497 118.594C83.867 118.577 83.4094 118.335 83.0771 117.92L80.9292 115.223L80.7931 115.375L83.0693 118.233C83.4016 118.647 83.8591 118.89 84.3419 118.907C84.8247 118.924 85.2935 118.714 85.6459 118.323C85.8359 118.11 85.9849 117.851 86.0828 117.564C86.1806 117.277 86.2251 116.969 86.2131 116.66Z" fill="black"/>
<path d="M90.9455 115.971C90.6132 115.556 90.1556 115.314 89.6729 115.297C89.1901 115.28 88.7213 115.49 88.3689 115.881C88.0184 116.275 87.8136 116.816 87.7994 117.388C87.7851 117.959 87.9625 118.514 88.2928 118.931L90.6331 121.87L93.2858 118.91L90.9455 115.971Z" fill="#3F3D56"/>
<path d="M95.4337 121.607L93.1576 118.749L90.5048 121.709L92.781 124.567C93.1133 124.981 93.5709 125.224 94.0536 125.241C94.5364 125.257 95.0052 125.047 95.3577 124.657C95.7082 124.263 95.9129 123.722 95.9272 123.15C95.9414 122.579 95.764 122.024 95.4337 121.607Z" fill="#6C63FF"/>
<path opacity="0.2" d="M95.9248 122.994C95.8821 123.509 95.6834 123.988 95.3655 124.344C95.013 124.735 94.5442 124.945 94.0615 124.928C93.5787 124.911 93.1211 124.669 92.7888 124.254L90.6409 121.557L90.5048 121.708L92.781 124.566C93.1133 124.981 93.5709 125.224 94.0536 125.241C94.5364 125.257 95.0052 125.047 95.3576 124.657C95.5476 124.444 95.6966 124.185 95.7945 123.898C95.8923 123.611 95.9368 123.303 95.9248 122.994Z" fill="black"/>
<path d="M96.8702 129.452C97.2166 129.054 97.4158 128.51 97.4241 127.938C97.4325 127.366 97.2495 126.814 96.9149 126.402C96.5784 125.992 96.1184 125.756 95.6355 125.746C95.1525 125.736 94.6859 125.953 94.3375 126.349L91.8835 129.154L94.4161 132.258L96.8702 129.452Z" fill="#3F3D56"/>
<path d="M92.1637 134.833L94.5506 132.104L92.0179 129.001L89.6311 131.729C89.2847 132.128 89.0855 132.672 89.0771 133.244C89.0687 133.815 89.2518 134.367 89.5864 134.78C89.9229 135.19 90.3829 135.425 90.8658 135.435C91.3487 135.445 91.8154 135.229 92.1637 134.833Z" fill="#6C63FF"/>
<path opacity="0.2" d="M90.9981 135.431C90.5623 135.386 90.1548 135.157 89.8507 134.785C89.5162 134.373 89.3331 133.821 89.3415 133.249C89.3499 132.677 89.549 132.133 89.8955 131.735L92.1478 129.16L92.0179 129.001L89.6311 131.729C89.2847 132.128 89.0855 132.672 89.0771 133.244C89.0687 133.815 89.2518 134.367 89.5864 134.78C89.7683 135.002 89.9886 135.175 90.2322 135.288C90.4759 135.4 90.7371 135.449 90.9981 135.431Z" fill="black"/>
<path d="M83.7891 122.649C84.1355 122.251 84.3346 121.707 84.343 121.135C84.3514 120.563 84.1683 120.011 83.8338 119.599C83.4973 119.189 83.0373 118.953 82.5544 118.943C82.0714 118.933 81.6048 119.15 81.2564 119.546L78.8024 122.351L81.335 125.455L83.7891 122.649Z" fill="#3F3D56"/>
<path d="M79.0827 128.03L81.4695 125.301L78.9369 122.198L76.55 124.926C76.2036 125.324 76.0045 125.869 75.9961 126.44C75.9877 127.012 76.1708 127.564 76.5053 127.977C76.8418 128.387 77.3018 128.622 77.7847 128.632C78.2677 128.642 78.7343 128.426 79.0827 128.03Z" fill="#6C63FF"/>
<path opacity="0.2" d="M77.917 128.628C77.4813 128.583 77.0738 128.354 76.7696 127.982C76.4351 127.57 76.252 127.018 76.2604 126.446C76.2688 125.874 76.468 125.33 76.8144 124.932L79.0667 122.357L78.9368 122.198L76.55 124.926C76.2036 125.324 76.0045 125.869 75.9961 126.44C75.9877 127.012 76.1708 127.564 76.5053 127.977C76.6872 128.199 76.9075 128.372 77.1512 128.484C77.3948 128.597 77.656 128.646 77.917 128.628Z" fill="black"/>
<path d="M102.42 114.439C102.766 114.04 102.965 113.496 102.974 112.924C102.982 112.353 102.799 111.801 102.464 111.388C102.128 110.978 101.668 110.742 101.185 110.732C100.702 110.723 100.235 110.939 99.8871 111.335L97.433 114.141L99.9657 117.244L102.42 114.439Z" fill="#3F3D56"/>
<path d="M97.7133 119.819L100.1 117.091L97.5675 113.987L95.1807 116.716C94.8342 117.114 94.6351 117.658 94.6267 118.23C94.6183 118.802 94.8014 119.354 95.1359 119.766C95.4725 120.176 95.9325 120.412 96.4154 120.422C96.8983 120.432 97.3649 120.215 97.7133 119.819Z" fill="#6C63FF"/>
<path opacity="0.2" d="M96.5476 120.417C96.1119 120.373 95.7044 120.144 95.4003 119.772C95.0657 119.359 94.8827 118.807 94.891 118.235C94.8994 117.664 95.0986 117.119 95.445 116.721L97.6973 114.146L97.5675 113.987L95.1807 116.716C94.8342 117.114 94.6351 117.658 94.6267 118.23C94.6183 118.801 94.8014 119.354 95.1359 119.766C95.3179 119.988 95.5382 120.162 95.7818 120.274C96.0254 120.386 96.2866 120.435 96.5476 120.417Z" fill="black"/>
<path d="M98.2788 131.454C97.9465 131.039 97.489 130.797 97.0062 130.78C96.5234 130.763 96.0546 130.973 95.7022 131.364C95.3517 131.757 95.1469 132.299 95.1327 132.87C95.1184 133.442 95.2958 133.997 95.6261 134.414L97.9664 137.352L100.619 134.393L98.2788 131.454Z" fill="#3F3D56"/>
<path d="M85.396 131.219C85.0636 130.805 84.6061 130.562 84.1233 130.545C83.6405 130.529 83.1717 130.739 82.8193 131.129C82.4688 131.523 82.2641 132.064 82.2498 132.636C82.2356 133.207 82.413 133.762 82.7432 134.179L85.0835 137.118L87.7363 134.158L85.396 131.219Z" fill="#3F3D56"/>
<path d="M89.8842 136.855L87.608 133.997L84.9553 136.957L87.2314 139.815C87.5638 140.23 88.0213 140.472 88.5041 140.489C88.9869 140.506 89.4557 140.296 89.8081 139.905C90.1586 139.511 90.3633 138.97 90.3776 138.398C90.3918 137.827 90.2145 137.272 89.8842 136.855Z" fill="#6C63FF"/>
<path d="M89.0223 123.48C89.0224 124.197 88.8132 124.892 88.4299 125.448C88.0467 126.004 87.5131 126.385 86.9193 126.529C86.5723 126.612 86.2148 126.612 85.8678 126.529C85.2741 126.385 84.7405 126.003 84.3573 125.448C83.9741 124.892 83.7648 124.197 83.7648 123.48C83.7648 122.762 83.9741 122.067 84.3573 121.512C84.7405 120.956 85.2741 120.574 85.8678 120.431C86.2148 120.348 86.5723 120.348 86.9193 120.431C87.5131 120.574 88.0467 120.956 88.4299 121.511C88.8132 122.067 89.0224 122.762 89.0223 123.48Z" fill="#6C63FF"/>
<path opacity="0.2" d="M86.9193 120.431V126.529C86.5723 126.612 86.2148 126.612 85.8678 126.529V120.431C86.2148 120.348 86.5723 120.348 86.9193 120.431Z" fill="black"/>
<path d="M90.2115 111.047C90.2116 111.764 90.0023 112.459 89.6191 113.015C89.2359 113.57 88.7022 113.952 88.1085 114.096C87.7615 114.179 87.404 114.179 87.057 114.096C86.4633 113.952 85.9297 113.57 85.5465 113.015C85.1633 112.459 84.954 111.764 84.954 111.047C84.954 110.329 85.1633 109.634 85.5465 109.078C85.9297 108.523 86.4633 108.141 87.057 107.997C87.404 107.914 87.7615 107.914 88.1085 107.997C88.7022 108.141 89.2359 108.523 89.6191 109.078C90.0023 109.634 90.2116 110.329 90.2115 111.047Z" fill="#6C63FF"/>
<path opacity="0.2" d="M88.1085 107.997V114.096C87.7615 114.179 87.404 114.179 87.057 114.096V107.997C87.404 107.914 87.7615 107.914 88.1085 107.997Z" fill="black"/>
<path d="M90.2115 128.875C90.2116 129.592 90.0023 130.288 89.6191 130.843C89.2359 131.399 88.7022 131.781 88.1085 131.924C87.7615 132.007 87.404 132.007 87.057 131.924C86.4633 131.781 85.9297 131.399 85.5465 130.843C85.1633 130.288 84.954 129.592 84.954 128.875C84.954 128.158 85.1633 127.463 85.5465 126.907C85.9297 126.352 86.4633 125.97 87.057 125.826C87.404 125.743 87.7615 125.743 88.1085 125.826C88.7022 125.969 89.2359 126.351 89.6191 126.907C90.0023 127.463 90.2116 128.158 90.2115 128.875Z" fill="#6C63FF"/>
<path opacity="0.2" d="M88.1085 125.826V131.924C87.7615 132.007 87.404 132.007 87.057 131.924V125.826C87.404 125.743 87.7615 125.743 88.1085 125.826Z" fill="black"/>
<path d="M102.53 121.585C102.966 122.083 103.244 122.744 103.316 123.456C103.388 124.168 103.25 124.888 102.925 125.493C102.735 125.847 102.487 126.151 102.196 126.389C101.696 126.796 101.094 126.985 100.49 126.926C99.8857 126.867 99.3176 126.563 98.8813 126.066C98.445 125.568 98.1673 124.907 98.0953 124.195C98.0232 123.483 98.1612 122.763 98.4859 122.157C98.6762 121.804 98.9243 121.499 99.2156 121.261C99.7149 120.855 100.318 120.665 100.921 120.724C101.525 120.783 102.094 121.087 102.53 121.585Z" fill="#6C63FF"/>
<path opacity="0.2" d="M99.2156 121.261L102.925 125.493C102.735 125.847 102.487 126.151 102.196 126.389L98.4858 122.157C98.6762 121.804 98.9243 121.499 99.2156 121.261Z" fill="black"/>
<path d="M103.323 128.388C103.759 128.886 104.037 129.547 104.109 130.259C104.181 130.971 104.043 131.691 103.718 132.296C103.528 132.65 103.28 132.954 102.988 133.193C102.489 133.599 101.886 133.789 101.282 133.729C100.679 133.67 100.11 133.366 99.6741 132.869C99.2378 132.371 98.9601 131.71 98.8881 130.998C98.816 130.286 98.954 129.566 99.2787 128.96C99.469 128.607 99.7171 128.302 100.008 128.064C100.508 127.658 101.11 127.468 101.714 127.527C102.318 127.586 102.886 127.89 103.323 128.388Z" fill="#6C63FF"/>
<path opacity="0.2" d="M100.008 128.064L103.718 132.296C103.528 132.65 103.28 132.954 102.988 133.193L99.2786 128.96C99.469 128.607 99.7171 128.302 100.008 128.064Z" fill="black"/>
<path d="M79.737 130.03C80.1734 130.528 80.4512 131.189 80.5232 131.901C80.5953 132.613 80.4572 133.333 80.1324 133.939C79.9421 134.292 79.694 134.596 79.4027 134.835C78.9034 135.241 78.3008 135.431 77.6968 135.372C77.0929 135.313 76.5248 135.008 76.0885 134.511C75.6522 134.013 75.3745 133.352 75.3025 132.64C75.2304 131.928 75.3684 131.208 75.6931 130.603C75.8834 130.249 76.1315 129.945 76.4228 129.706C76.9221 129.3 77.5247 129.11 78.1287 129.169C78.7326 129.228 79.3008 129.532 79.737 130.03Z" fill="#6C63FF"/>
<path opacity="0.2" d="M76.4228 129.706L80.1324 133.939C79.9421 134.292 79.694 134.596 79.4027 134.835L75.6931 130.603C75.8834 130.249 76.1315 129.945 76.4228 129.706Z" fill="black"/>
<path opacity="0.2" d="M71.2523 74.1546H70.2613V82.8343H71.2523V74.1546Z" fill="black"/>
<path opacity="0.2" d="M77 74.1546H76.009V82.8343H77V74.1546Z" fill="black"/>
<path opacity="0.2" d="M82.7477 74.1546H81.7568V82.8343H82.7477V74.1546Z" fill="black"/>
<path opacity="0.2" d="M88.4955 74.1546H87.5045V82.8343H88.4955V74.1546Z" fill="black"/>
<path opacity="0.2" d="M94.2432 74.1546H93.2523V82.8343H94.2432V74.1546Z" fill="black"/>
<path opacity="0.2" d="M99.991 74.1546H99V82.8343H99.991V74.1546Z" fill="black"/>
<path opacity="0.2" d="M105.739 74.1546H104.748V82.8343H105.739V74.1546Z" fill="black"/>
</g>
<defs>
<clipPath id="clip0">
<rect width="162" height="134" fill="white"/>
</clipPath>
</defs>
</svg>

