<svg width="339" height="235" viewBox="0 0 339 235" fill="none" xmlns="http://www.w3.org/2000/svg">
<defs>
<linearGradient id="paint0_linear" x1="109.314" y1="232.637" x2="109.314" y2="47.8953" gradientUnits="userSpaceOnUse">
<stop stop-color="#808080" stop-opacity="0.25"/>
<stop offset="0.54" stop-color="#808080" stop-opacity="0.12"/>
<stop offset="1" stop-color="#808080" stop-opacity="0.1"/>
</linearGradient>
<linearGradient id="paint1_linear" x1="68477.2" y1="139390" x2="68477.2" y2="44560.6" gradientUnits="userSpaceOnUse">
<stop stop-color="#808080" stop-opacity="0.25"/>
<stop offset="0.54" stop-color="#808080" stop-opacity="0.12"/>
<stop offset="1" stop-color="#808080" stop-opacity="0.1"/>
</linearGradient>
<clipPath id="clip0">
<rect width="339" height="235" fill="white"/>
</clipPath>
</defs>
<g clip-path="url(#clip0)">
<path opacity="0.1" d="M112.703 234.868C129.212 234.868 142.596 232.764 142.596 230.169C142.596 227.574 129.212 225.471 112.703 225.471C96.1944 225.471 82.8112 227.574 82.8112 230.169C82.8112 232.764 96.1944 234.868 112.703 234.868Z" fill="#07B3D6"/>
<path opacity="0.1" d="M275.194 235C295.794 235 312.495 232.896 312.495 230.301C312.495 227.707 295.794 225.603 275.194 225.603C254.593 225.603 237.893 227.707 237.893 230.301C237.893 232.896 254.593 235 275.194 235Z" fill="#07B3D6"/>
<path opacity="0.1" d="M4.24578 101.537H35.3805V143.067H6.52512C6.44843 143.494 6.3748 143.923 6.29504 144.352H35.3805V177.846C35.3283 177.831 35.2823 177.813 35.2332 177.795C34.4111 177.476 33.5951 177.14 32.779 176.78L32.2575 176.549C31.4394 176.17 30.6214 175.77 29.8033 175.348C29.518 175.201 29.2327 175.048 28.9505 174.891C24.4089 172.402 20.2831 169.247 16.7162 165.536C16.6119 165.437 16.5138 165.332 16.4095 165.236C15.9125 164.708 15.4247 164.173 14.9523 163.627L14.4307 163.026C13.8724 162.357 13.3325 161.669 12.8079 160.973C12.7312 160.871 12.6576 160.769 12.5778 160.673C10.4443 157.778 8.67287 154.643 7.30127 151.336C7.25832 151.237 7.22151 151.128 7.18163 151.035C6.76032 149.975 6.38707 148.904 6.06189 147.823C5.92077 147.37 5.78579 146.922 5.66922 146.451C5.62627 146.313 5.58946 146.178 5.55571 146.043C3.81322 139.387 3.60768 132.472 3.60768 125.606C3.60768 124.804 3.60768 124 3.60768 123.204C3.60768 120.427 3.64143 117.632 3.69051 114.84C3.69051 114.116 3.72119 113.396 3.73653 112.669C3.77948 110.826 3.84083 108.983 3.92059 107.139C3.939 106.626 3.96354 106.115 3.99115 105.605C3.99115 105.311 4.00649 105.017 4.03717 104.722C4.11079 103.653 4.17215 102.594 4.24578 101.537Z" fill="#07B3D6"/>
<path opacity="0.1" d="M35.3805 55.2959H18.3023C21.0784 51.0434 24.1117 46.957 27.3859 43.0586C29.923 40.0083 32.6011 37.036 35.3805 34.1719V55.2959Z" fill="#07B3D6"/>
<path opacity="0.1" d="M35.3805 56.5809V100.252H4.34396C4.34396 100.126 4.36544 99.9968 4.37464 99.8707C4.40225 99.5254 4.42986 99.1801 4.46054 98.8379C4.49428 98.4356 4.5311 98.0303 4.57098 97.637C4.61086 97.2437 4.65381 96.7633 4.69982 96.328C4.74584 95.8927 4.78879 95.4513 4.84094 95.016C4.89309 94.5807 4.93911 94.1453 4.99433 93.713C5.04955 93.2807 5.09863 92.8423 5.15692 92.41C5.20294 92.0497 5.25202 91.6925 5.3011 91.3322C5.37166 90.8248 5.44529 90.3144 5.52505 89.81C5.52505 89.735 5.54653 89.6569 5.5588 89.5849C6.11872 85.8926 6.88165 82.2325 7.84428 78.6206C8.85191 74.8317 10.1386 71.1191 11.6943 67.5122C13.3477 63.7388 15.2836 60.0901 17.4863 56.5959L35.3805 56.5809Z" fill="#07B3D6"/>
<path opacity="0.1" d="M42.8137 101.534V143.067H109.314V101.534H42.8137ZM42.8137 144.349V180.016C43.1941 180.094 43.5714 180.169 43.9457 180.233C44.4549 180.329 44.9611 180.416 45.4796 180.491C45.5777 180.506 45.679 180.521 45.7864 180.53C45.9888 180.563 46.1974 180.59 46.3999 180.617C46.9122 180.686 47.4215 180.743 47.9338 180.788C48.1761 180.812 48.4216 180.833 48.667 180.851L49.2591 180.896C49.5812 180.92 49.9002 180.938 50.2162 180.947C50.4125 180.947 50.6089 180.965 50.8113 180.971C50.9647 180.971 51.1181 180.971 51.2776 180.971C51.4372 180.971 51.6642 180.971 51.8575 180.971C52.1213 180.971 52.3851 180.971 52.6459 180.971H52.9987C53.2625 180.971 53.5263 180.971 53.7871 180.947H53.8055C53.9865 180.947 54.1705 180.947 54.3546 180.923C54.4057 180.926 54.4569 180.926 54.508 180.923C54.6614 180.923 54.8148 180.923 54.962 180.902H55.0694L56.0971 180.824C56.4346 180.794 56.7751 180.755 57.1187 180.719L57.8181 180.638C60.6637 180.248 63.4777 179.662 66.2391 178.885C72.4421 177.191 78.5102 174.822 84.7101 173.087C92.7262 170.85 101.583 169.752 109.329 172.487V144.349H42.8137ZM109.314 55.2959V0.00301778C102.033 -0.0741778 94.7721 0.759195 87.7073 2.4829C70.8684 6.62303 55.7596 15.6028 42.8137 27.0715V55.2929H46.1514V56.5749H42.8137V100.252H109.314V56.5779H59.8551V55.2959H109.314ZM194.729 36.6188C190.563 36.4747 186.422 35.1837 182.676 33.1902C175.513 29.3773 169.791 23.4898 163.398 18.521C150.115 8.17221 133.641 1.92748 116.741 0.378302V55.2959H211.673L211.909 55.0527L194.729 36.6188ZM203.377 35.1176L212.547 44.9651V32.5357C209.476 32.9079 206.786 33.7936 203.39 35.1056L203.377 35.1176ZM212.547 188.873V144.349H193.008C192.956 144.16 192.904 143.968 192.843 143.776C192.901 143.968 192.95 144.16 193.005 144.349H116.753V176.549C117.477 177.074 118.192 177.627 118.9 178.188C119.664 178.788 120.419 179.422 121.177 180.043L121.94 180.662C122.306 180.962 122.674 181.262 123.045 181.545C123.781 182.129 124.525 182.705 125.275 183.274C125.646 183.574 126.027 183.844 126.404 184.126C132.395 188.609 138.714 192.654 145.311 196.229C146.789 197.029 148.281 197.811 149.787 198.573C150.79 199.075 151.799 199.573 152.811 200.057C154.333 200.783 155.867 201.484 157.413 202.158C171.668 208.42 186.741 212.718 202.202 214.927C205.636 215.423 209.083 215.813 212.544 216.098V188.87H212.851L212.547 188.873ZM116.753 56.5779V100.252H212.559V56.5779H116.753ZM116.753 101.534V143.067H212.559V101.534H116.753ZM219.995 32.4816V46.3461L231.699 33.7786C227.821 33.1661 223.92 32.7288 219.995 32.4666V32.4816ZM219.995 101.549V143.067H313.179V101.534L219.995 101.549ZM312.838 192.17L313.166 144.349H219.995V216.575C225.997 216.822 232.009 216.752 238.003 216.365H238.107C240.971 216.189 243.821 215.933 246.657 215.596H246.722C261.855 213.873 276.653 210.008 290.652 204.125L312.838 192.17ZM331.147 108.373C330.797 107.565 330.432 106.764 330.061 105.971C329.367 104.47 328.634 103.011 327.879 101.552H320.609V143.067H338.991C338.982 131.31 335.941 119.301 331.156 108.358L331.147 108.373ZM320.609 144.364V185.496C325.787 180.638 330.162 175.081 333.312 168.728C337.101 161.078 338.834 152.795 338.975 144.358L320.609 144.364ZM320.609 89.4468V100.255H327.198C325.205 96.5343 323.008 92.9214 320.618 89.4318L320.609 89.4468ZM257.413 40.6298C256.928 40.4497 256.443 40.2665 255.956 40.0894C250.811 38.2302 245.554 36.684 240.215 35.4599L222.305 54.6954L221.962 55.0527L222.192 55.2989H285.934C277.056 49.3185 267.486 44.3894 257.422 40.6148L257.413 40.6298ZM287.802 56.5929H221.302L219.995 57.7638V100.252H231.45H231.469H313.191V79.6714C305.798 70.9215 297.266 63.1575 287.811 56.5779L287.802 56.5929Z" fill="#07B3D6"/>
<path opacity="0.1" d="M35.3805 78.6086V100.252H4.34396C4.34396 100.126 4.36544 99.9968 4.37464 99.8707C4.40225 99.5254 4.42986 99.1802 4.46054 98.8379C4.49428 98.4356 4.5311 98.0303 4.57098 97.637C4.61086 97.2437 4.65381 96.7633 4.69982 96.328C4.74584 95.8927 4.78879 95.4513 4.84094 95.016C4.89309 94.5807 4.93911 94.1454 4.99433 93.713C5.04955 93.2807 5.09863 92.8424 5.15692 92.41C5.20294 92.0498 5.25202 91.6925 5.3011 91.3322C5.37166 90.8248 5.44529 90.3144 5.52505 89.8101C5.52505 89.735 5.54653 89.6569 5.5588 89.5849C6.11872 85.8926 6.88165 82.2325 7.84428 78.6206L35.3805 78.6086Z" fill="#07B3D6"/>
<path opacity="0.1" d="M4.24578 101.537H35.3805V143.067H6.52512C6.44843 143.494 6.3748 143.923 6.29504 144.352H35.3805V177.846C35.3283 177.831 35.2823 177.813 35.2332 177.795C34.4111 177.476 33.5951 177.14 32.779 176.78L32.2575 176.549C31.4394 176.17 30.6214 175.77 29.8033 175.348C29.518 175.201 29.2327 175.048 28.9505 174.891C24.4089 172.402 20.2831 169.247 16.7162 165.536C16.6119 165.437 16.5138 165.332 16.4095 165.236C15.9125 164.708 15.4247 164.173 14.9523 163.627L14.4307 163.026C13.8724 162.357 13.3325 161.669 12.8079 160.973C12.7312 160.871 12.6576 160.769 12.5778 160.673C10.4443 157.778 8.67287 154.643 7.30127 151.336C7.25832 151.237 7.22151 151.128 7.18163 151.035C6.76032 149.975 6.38707 148.904 6.06189 147.823C5.92077 147.37 5.78579 146.922 5.66922 146.451C5.62627 146.313 5.58946 146.178 5.55571 146.043C3.81322 139.387 3.60768 132.472 3.60768 125.606C3.60768 124.804 3.60768 124 3.60768 123.204C3.60768 120.427 3.64143 117.632 3.69051 114.84C3.69051 114.116 3.72119 113.396 3.73653 112.669C3.77948 110.826 3.84083 108.983 3.92059 107.139C3.939 106.626 3.96354 106.115 3.99115 105.605C3.99115 105.311 4.00649 105.017 4.03717 104.722C4.11079 103.653 4.17215 102.594 4.24578 101.537Z" fill="#07B3D6"/>
<path opacity="0.1" d="M66.2238 62.8316V100.252H42.8137V62.8316H46.1514V50.162H59.852V62.8316H66.2238Z" fill="#07B3D6"/>
<path opacity="0.1" d="M66.2238 101.534H42.8168V143.064H66.2238V101.534Z" fill="#07B3D6"/>
<path opacity="0.1" d="M42.8137 144.352H66.2238V178.878C63.4623 179.655 60.6483 180.24 57.8028 180.629L57.1033 180.713C56.7597 180.752 56.4192 180.785 56.0818 180.818C55.7443 180.851 55.3946 180.875 55.0541 180.896H54.9467C54.7994 180.896 54.6399 180.914 54.4957 180.917H54.3393C54.1552 180.917 53.9711 180.935 53.7871 180.941C53.5263 180.956 53.2656 180.959 52.9987 180.962C52.8852 180.962 52.7778 180.962 52.6643 180.962C52.4004 180.962 52.1397 180.962 51.8759 180.962H51.296C51.1396 180.962 50.9893 180.962 50.8267 180.962L50.2346 180.941C49.9278 180.941 49.5965 180.908 49.2775 180.887L48.6885 180.845L47.9553 180.779C47.4399 180.734 46.9276 180.677 46.4214 180.608L45.8078 180.524L45.501 180.482C44.9887 180.404 44.4826 180.32 43.9672 180.223C43.5898 180.16 43.2156 180.082 42.8352 180.007L42.8137 144.352Z" fill="#07B3D6"/>
<path opacity="0.1" d="M212.559 58.4122H193.257V100.249H212.559V58.4122Z" fill="#07B3D6"/>
<path opacity="0.1" d="M212.562 101.534V143.067H116.753V125.153H167.785V135.721H193.257V101.534H212.562Z" fill="#07B3D6"/>
<path opacity="0.1" d="M212.866 188.882H212.559V216.128C209.103 215.842 205.657 215.452 202.221 214.96C186.752 212.743 171.672 208.437 157.413 202.164C153.296 200.351 149.263 198.371 145.314 196.226C138.717 192.649 132.397 188.604 126.404 184.123C124.899 182.995 123.413 181.84 121.947 180.659C120.931 179.839 119.922 178.999 118.9 178.182C118.192 177.621 117.477 177.068 116.753 176.54V144.352H193.002C192.95 144.16 192.898 143.968 192.843 143.779C192.901 143.968 192.956 144.16 193.008 144.352H212.559V188.864C212.663 188.867 212.765 188.876 212.866 188.882Z" fill="#07B3D6"/>
<path opacity="0.1" d="M262.901 55.2959H250.323V51.471H255.962V40.0773C256.451 40.2515 256.937 40.4306 257.422 40.6147V51.471H262.901V55.2959Z" fill="#07B3D6"/>
<path opacity="0.1" d="M293.204 100.252H231.457C231.457 100.252 231.457 100.252 231.478 100.267L231.45 100.252H219.995V58.4153H223.241V89.3387H238.074V71.0248H250.326V56.5809H262.904V71.0368H275.157V89.3507H293.204V100.252Z" fill="#07B3D6"/>
<path opacity="0.1" d="M219.995 101.534V143.067H293.204V101.534H219.995ZM313.077 191.956L313.179 159.082H293.204V144.37H219.995V216.575C225.997 216.822 232.009 216.752 238.003 216.365H238.107C240.971 216.189 243.821 215.933 246.657 215.596H246.722C261.855 213.873 276.653 210.009 290.652 204.125" fill="#07B3D6"/>
<path opacity="0.1" d="M321.91 144.352H338.988C338.837 152.786 337.107 161.069 333.322 168.719C330.171 175.075 325.793 180.632 320.621 185.486V159.066H321.91V144.352Z" fill="#07B3D6"/>
<path opacity="0.1" d="M338.997 143.067H321.909V108.358H331.156C335.941 119.301 338.982 131.31 338.997 143.067Z" fill="#07B3D6"/>
<path opacity="0.1" d="M212.562 70.043H202.221V83.16H212.562V70.043Z" fill="#07B3D6"/>
<path opacity="0.1" d="M212.562 97.2317H202.221V100.252H212.562V97.2317Z" fill="#07B3D6"/>
<path opacity="0.1" d="M212.562 101.534H202.221V110.346H212.562V101.534Z" fill="#07B3D6"/>
<path opacity="0.1" d="M212.562 124.42H202.221V137.537H212.562V124.42Z" fill="#07B3D6"/>
<path opacity="0.1" d="M212.562 151.609H202.221V164.726H212.562V151.609Z" fill="#07B3D6"/>
<path opacity="0.1" d="M212.559 188.864C212.663 188.864 212.765 188.864 212.866 188.882H212.559V191.929H202.221V178.797H212.559V188.864Z" fill="#07B3D6"/>
<path opacity="0.1" d="M212.559 205.98V216.113C209.103 215.826 205.657 215.437 202.221 214.945V205.98H212.559Z" fill="#07B3D6"/>
<path opacity="0.1" d="M161.073 142.104H116.753V143.067H161.073V142.104Z" fill="#07B3D6"/>
<path opacity="0.1" d="M161.073 144.349H116.753V148.042H161.073V144.349Z" fill="#07B3D6"/>
<path opacity="0.1" d="M161.073 160.147H116.753V166.086H161.073V160.147Z" fill="#07B3D6"/>
<path opacity="0.1" d="M161.07 178.191V184.129H126.404C124.899 183.005 123.412 181.85 121.944 180.665C120.928 179.845 119.922 179.005 118.897 178.191H161.07Z" fill="#07B3D6"/>
<path opacity="0.1" d="M161.07 196.232V202.164H157.41C153.297 200.349 149.265 198.368 145.314 196.223L161.07 196.232Z" fill="#07B3D6"/>
<path opacity="0.1" d="M246.731 105.56H238.006V114.098H246.731V105.56Z" fill="#07B3D6"/>
<path opacity="0.1" d="M57.8243 65.7769H49.0995V74.3153H57.8243V65.7769Z" fill="#07B3D6"/>
<path opacity="0.1" d="M57.8243 85.6098H49.0995V94.1483H57.8243V85.6098Z" fill="#07B3D6"/>
<path opacity="0.1" d="M57.8243 105.443H49.0995V113.981H57.8243V105.443Z" fill="#07B3D6"/>
<path opacity="0.1" d="M57.8243 125.273H49.0995V133.811H57.8243V125.273Z" fill="#07B3D6"/>
<path opacity="0.1" d="M57.8243 145.106H49.0995V153.644H57.8243V145.106Z" fill="#07B3D6"/>
<path opacity="0.1" d="M57.8243 164.939H49.0995V173.477H57.8243V164.939Z" fill="#07B3D6"/>
<path opacity="0.1" d="M280.038 105.56H271.313V114.098H280.038V105.56Z" fill="#07B3D6"/>
<path opacity="0.1" d="M246.731 126.621H238.006V135.159H246.731V126.621Z" fill="#07B3D6"/>
<path opacity="0.1" d="M280.038 126.621H271.313V135.159H280.038V126.621Z" fill="#07B3D6"/>
<path opacity="0.1" d="M246.731 147.679H238.006V156.217H246.731V147.679Z" fill="#07B3D6"/>
<path opacity="0.1" d="M280.038 147.679H271.313V156.217H280.038V147.679Z" fill="#07B3D6"/>
<path opacity="0.1" d="M246.731 168.74H238.006V177.278H246.731V168.74Z" fill="#07B3D6"/>
<path opacity="0.1" d="M280.038 168.74H271.313V177.278H280.038V168.74Z" fill="#07B3D6"/>
<path opacity="0.1" d="M246.731 189.801H238.006V198.339H246.731V189.801Z" fill="#07B3D6"/>
<path opacity="0.1" d="M280.038 189.801H271.313V198.339H280.038V189.801Z" fill="#07B3D6"/>
<path opacity="0.1" d="M238.006 216.365V210.859H246.728V215.581L238.006 216.365Z" fill="#07B3D6"/>
<path opacity="0.1" d="M5.52197 89.5789V94.4636H35.3805V89.5789H5.52197ZM8.4977 94.1573H6.0619V89.8791H8.51611L8.4977 94.1573ZM11.4704 94.1573H9.01615V89.8791H11.4704V94.1573ZM14.4369 94.1573H11.9827V89.8791H14.4369V94.1573ZM17.4096 94.1573H14.9584V89.8791H17.4126L17.4096 94.1573ZM20.3791 94.1573H17.9249V89.8791H20.3791V94.1573ZM23.3518 94.1573H20.8976V89.8791H23.3518V94.1573ZM26.3245 94.1573H23.8703V89.8791H26.3245V94.1573ZM29.2941 94.1573H26.8399V89.8791H29.2941V94.1573ZM32.2637 94.1573H29.8094V89.8791H32.2637V94.1573ZM35.2332 94.1573H32.779V89.8791H35.2332V94.1573Z" fill="#07B3D6"/>
<path opacity="0.1" d="M5.52197 103.792V108.676H35.3805V103.792H5.52197ZM8.4977 108.367H6.0619V104.101H8.51611L8.4977 108.367ZM11.4704 108.367H9.01615V104.101H11.4704V108.367ZM14.4369 108.367H11.9827V104.101H14.4369V108.367ZM17.4096 108.367H14.9584V104.101H17.4126L17.4096 108.367ZM20.3791 108.367H17.9249V104.101H20.3791V108.367ZM23.3518 108.367H20.8976V104.101H23.3518V108.367ZM26.3245 108.367H23.8703V104.101H26.3245V108.367ZM29.2941 108.367H26.8399V104.101H29.2941V108.367ZM32.2637 108.367H29.8094V104.101H32.2637V108.367ZM35.2332 108.367H32.779V104.101H35.2332V108.367Z" fill="#07B3D6"/>
<path opacity="0.1" d="M5.52197 118.01V122.904H35.3805V118.01H5.52197ZM8.4977 122.586H6.0619V118.317H8.51611L8.4977 122.586ZM11.4704 122.586H9.01615V118.317H11.4704V122.586ZM14.4369 122.586H11.9827V118.317H14.4369V122.586ZM17.4096 122.586H14.9584V118.317H17.4126L17.4096 122.586ZM20.3791 122.586H17.9249V118.317H20.3791V122.586ZM23.3518 122.586H20.8976V118.317H23.3518V122.586ZM26.3245 122.586H23.8703V118.317H26.3245V122.586ZM29.2941 122.586H26.8399V118.317H29.2941V122.586ZM32.2637 122.586H29.8094V118.317H32.2637V122.586ZM35.2332 122.586H32.779V118.317H35.2332V122.586Z" fill="#07B3D6"/>
<path opacity="0.1" d="M5.52197 132.229V137.108H35.3805V132.229H5.52197ZM8.4977 136.805H6.0619V132.532H8.51611L8.4977 136.805ZM11.4704 136.805H9.01615V132.532H11.4704V136.805ZM14.4369 136.805H11.9827V132.532H14.4369V136.805ZM17.4096 136.805H14.9584V132.532H17.4126L17.4096 136.805ZM20.3791 136.805H17.9249V132.532H20.3791V136.805ZM23.3518 136.805H20.8976V132.532H23.3518V136.805ZM26.3245 136.805H23.8703V132.532H26.3245V136.805ZM29.2941 136.805H26.8399V132.532H29.2941V136.805ZM32.2637 136.805H29.8094V132.532H32.2637V136.805ZM35.2332 136.805H32.779V132.532H35.2332V136.805Z" fill="#07B3D6"/>
<path opacity="0.1" d="M5.65083 146.445C5.77048 146.904 5.90546 147.364 6.04657 147.817V146.751H8.50078V151.02H7.18778C7.22766 151.119 7.26754 151.227 7.30742 151.321H35.3805V146.445H5.65083ZM11.4796 151.02H9.02537V146.751H11.4796V151.02ZM14.4461 151.02H11.9919V146.751H14.4461V151.02ZM17.4188 151.02H14.9584V146.751H17.4126L17.4188 151.02ZM20.3884 151.02H17.9341V146.751H20.3884V151.02ZM23.361 151.02H20.9068V146.751H23.361V151.02ZM26.3337 151.02H23.8795V146.751H26.3337V151.02ZM29.3033 151.02H26.8491V146.751H29.3033V151.02ZM32.2729 151.02H29.8187V146.751H32.2729V151.02ZM35.2425 151.02H32.7883V146.751H35.2425V151.02Z" fill="#07B3D6"/>
<path opacity="0.1" d="M12.584 160.664C12.6606 160.76 12.7343 160.868 12.814 160.964H14.4369V163.014C14.6117 163.219 14.7835 163.423 14.9615 163.615V160.952H17.4157V165.236H16.4217C16.5199 165.335 16.615 165.44 16.7285 165.536H35.3897V160.664H12.584ZM20.3791 165.236H17.9249V160.97H20.3791V165.236ZM23.3518 165.236H20.8976V160.97H23.3518V165.236ZM26.3245 165.236H23.8703V160.97H26.3245V165.236ZM29.2941 165.236H26.8398V160.97H29.2941V165.236ZM32.2637 165.236H29.8094V160.97H32.2637V165.236ZM35.2332 165.236H32.779V160.97H35.2332V165.236Z" fill="#07B3D6"/>
<path opacity="0.1" d="M28.9627 174.879C29.2419 175.036 29.5272 175.18 29.8156 175.336V175.186H32.2698V176.537L32.7913 176.774V175.186H35.2455V177.783C35.2926 177.806 35.3419 177.824 35.3928 177.837V174.879H28.9627Z" fill="#07B3D6"/>
<path opacity="0.1" d="M231.457 100.252H231.475H231.457ZM212.559 188.861H212.866H212.559ZM192.843 143.776C192.901 143.968 192.95 144.16 193.005 144.349C192.956 144.16 192.904 143.968 192.843 143.776ZM231.457 100.243H231.475H231.457ZM46.1637 55.2869V56.5688H59.8674V55.2869H46.1637ZM212.559 188.861H212.866H212.559ZM192.843 143.776C192.901 143.968 192.95 144.16 193.005 144.349C192.956 144.16 192.904 143.968 192.843 143.776ZM231.457 100.243H231.475H231.457ZM212.559 188.852H212.866H212.559ZM192.843 143.776C192.901 143.968 192.95 144.16 193.005 144.349C192.956 144.16 192.904 143.968 192.843 143.776Z" fill="#07B3D6"/>
<path d="M141.608 113.987C141.608 113.987 140.399 113.822 140.399 112.099C140.399 110.376 139.534 107.157 139.534 107.157C139.534 107.142 138.786 101.552 137.752 100.663C136.718 99.7746 135.39 94.5566 135.39 94.5566C135.39 94.5566 135.163 91.7255 134.699 91.116C134.236 90.5066 133.61 89.0144 132.687 86.8858C131.763 84.7572 127.913 83.2831 127.913 83.2831C127.913 83.2831 120.953 79.3321 118.98 78.0441C118.801 77.9383 118.633 77.8145 118.48 77.6748C118.136 77.2335 116.639 77.2245 116.639 77.2245C116.483 76.2578 116.333 75.1469 116.284 74.1412C116.284 74.0331 116.284 73.925 116.268 73.8169C118.468 72.5445 120.124 70.5383 120.934 68.1666C120.971 68.0526 121.002 67.9325 121.035 67.8184C121.167 67.7759 121.289 67.707 121.392 67.616C121.495 67.525 121.577 67.4139 121.634 67.29C121.812 66.9027 121.815 66.4493 122.036 66.0891C122.293 65.6628 122.784 65.4346 123.171 65.1133C124.146 64.3027 124.398 62.9367 124.352 61.6937C124.321 60.688 124.155 59.6732 124.22 58.6735L124.238 58.4213C124.257 58.2711 124.278 58.121 124.306 57.9769C124.456 57.2324 124.784 56.5298 124.968 55.7913C125.152 55.0527 125.171 54.2211 124.741 53.5846C124.112 52.6509 122.803 52.4648 121.652 52.3687C120.348 52.2606 119.183 52.4017 118.348 51.3419C117.958 50.788 117.518 50.2686 117.035 49.7897C116.863 49.6336 115.194 48.6369 115.194 48.5708C113.566 47.8325 111.719 47.6939 109.995 48.1805C109.129 48.4267 108.313 48.829 107.436 49.0302C105.543 49.4685 103.365 48.9941 101.758 50.0539C100.862 50.6544 100.325 51.6091 99.8219 52.5398C99.4129 53.3064 98.9977 54.072 98.5764 54.8365C97.8984 56.0945 97.2082 57.3735 96.9229 58.7665C96.8629 59.0697 96.826 59.3767 96.8124 59.6852V59.7002C96.8124 59.8113 96.8124 59.9224 96.8124 60.0335V60.1746C96.8124 60.2797 96.8124 60.3817 96.8308 60.4748C96.8492 60.5679 96.8462 60.5979 96.8554 60.661C96.8646 60.724 96.8799 60.8651 96.8983 60.9612C96.9167 61.0573 96.9535 61.2254 96.9904 61.3575C97.0057 61.4145 97.0272 61.4686 97.0456 61.5226C97.0763 61.6247 97.1131 61.7238 97.1529 61.8228C97.1744 61.8739 97.1959 61.9279 97.2204 61.979C97.2665 62.084 97.3217 62.1861 97.3769 62.2792C97.4014 62.3212 97.4198 62.3602 97.4444 62.3993C97.53 62.5389 97.6242 62.6732 97.7266 62.8016C98.3831 63.6032 99.3495 64.1136 100.064 64.8641C100.064 64.8942 100.064 64.9242 100.064 64.9512C100.064 65.0353 100.064 65.1163 100.064 65.2004C100.102 66.8743 100.557 68.5138 101.39 69.9763C102.223 71.4388 103.409 72.6799 104.844 73.5918C104.844 73.7058 104.859 73.8229 104.865 73.937C104.925 74.8282 104.914 75.7226 104.832 76.612C104.707 76.468 104.55 76.3534 104.374 76.2765C104.198 76.1995 104.006 76.1624 103.813 76.1677C103.681 76.1614 103.549 76.1725 103.42 76.2007L103.393 76.1797V76.2067C102.718 76.3689 101.887 77.0564 101.092 79.0109C101.092 79.0109 98.6746 81.6769 96.8339 81.5658C94.9932 81.4547 90.3333 84.3399 90.3333 84.3399C90.3333 84.3399 85.7869 87.2281 84.8113 90.1703C84.2661 91.8387 83.6123 93.4713 82.8541 95.058L77.234 106.392L76.1971 115.383C76.1971 115.383 76.7707 119.382 76.6572 119.992C76.5437 120.601 79.0163 126.099 79.0163 126.099C79.0163 126.099 87.1858 140.146 90.5235 140.867L90.7628 140.702C90.9056 140.775 91.0571 140.83 91.2138 140.867L91.9009 140.392C91.9422 140.921 91.9247 141.453 91.8488 141.978C91.3886 143.365 92.0206 152.416 92.8243 154.191C93.6281 155.965 93.3428 179.23 93.3428 179.23L93.2293 181.283C93.2293 181.283 93.2293 181.349 93.2569 181.463L93.2293 181.95L93.3121 181.992C93.3981 182.643 93.3701 183.304 93.2293 183.946C92.9409 184.847 92.8243 187.393 92.8243 187.393C92.8243 187.393 90.5266 201.768 91.6156 204.656C92.7047 207.544 93.6312 210.709 93.6312 210.709C93.6312 210.709 94.7816 214.311 93.6864 214.927C92.5912 215.542 89.4774 216.575 90.1186 218.076C90.7014 219.463 92.9133 223.18 93.2416 223.723L93.2139 224.009L92.763 228.791C92.836 229.423 93.011 230.039 93.2814 230.617C93.7753 231.658 94.7356 232.739 96.5609 232.622C96.8676 232.601 97.2235 232.565 97.5671 232.52C100.908 232.082 105.022 230.623 105.022 230.623C104.808 230.49 104.612 230.332 104.439 230.151C104.275 229.996 104.145 229.809 104.056 229.602C103.968 229.396 103.924 229.174 103.927 228.95C103.976 228.08 102.31 223.931 101.896 222.91C101.831 222.763 101.798 222.679 101.798 222.679C101.798 222.679 105.595 218.794 104.963 215.35C104.963 215.35 100.761 212.948 102.144 211.63C103.528 210.312 106 206.526 106 206.526C106 206.526 106.114 192.371 106 190.257C105.882 188.79 105.953 187.314 106.212 185.865C106.258 185.646 106.313 185.432 106.372 185.222C108.285 185.502 110.217 185.645 112.151 185.652C112.857 185.652 113.575 185.652 114.299 185.61C114.299 185.81 114.308 186.026 114.326 186.258C114.486 189.765 114.783 195.913 115.026 198.198C115.369 201.474 117.268 210.3 117.268 210.3C117.268 210.3 113.645 212.576 117.9 218.184C117.9 218.184 117.9 220.217 117.618 220.511C117.317 221.473 117.074 222.451 116.891 223.441C116.713 224.498 116.639 225.567 116.928 226.122C117.618 227.449 121.759 227.341 121.759 227.341L121.861 227.323C122.643 227.244 123.433 227.318 124.185 227.54C124.938 227.762 125.638 228.128 126.245 228.617C127.818 229.854 133.791 229.311 137.025 228.917C138.292 228.761 139.138 228.617 139.138 228.617C139.179 228.477 139.194 228.33 139.181 228.185C139.148 227.407 138.525 225.702 134.304 224.18C134.304 224.18 130.334 221.568 130.389 219.292H130.306H129.846C130.18 219.274 130.395 219.292 130.395 219.292C130.395 219.292 128.84 213.738 129.475 213.288C130.11 212.837 128.208 206.683 128.208 206.683C128.208 206.683 127.119 196.355 127.061 195.631C127.063 195.01 127.159 194.393 127.346 193.8L127.061 188.138C127.061 188.138 127.005 186.255 127.061 185.643C127.051 185.111 127.007 184.581 126.929 184.054C126.901 183.844 126.873 183.625 126.843 183.409C128.331 183.04 129.297 182.697 129.297 182.697L129.125 162.987C130.389 160.586 130.622 155.317 130.616 151.579C130.616 149.177 130.506 147.4 130.506 147.4L132.233 144.641C132.233 144.641 132.632 141.338 132 140.615C131.72 140.287 131.846 139.948 132.076 139.669C132.196 139.576 132.322 139.492 132.454 139.417C132.454 139.417 132.435 139.39 132.414 139.351C132.534 139.252 132.663 139.163 132.797 139.083C132.797 139.083 132.184 138.153 132.733 137.759C133.248 138.102 133.708 138.36 134.058 138.57C134.034 138.789 134.009 138.915 134.009 138.915L134.156 138.615C134.494 138.801 134.699 138.915 134.699 138.915C134.699 138.915 137.405 133.64 137.347 132.863C137.288 132.085 139.187 128.81 139.187 128.81C139.187 128.81 139.417 127.089 140.454 126.369C141.491 125.648 141.258 120.427 141.258 120.427C141.258 120.427 141.547 117.707 142.237 116.596C142.927 115.485 141.608 113.987 141.608 113.987ZM89.8363 111.673L89.8885 112.931C89.5817 112.447 89.3608 112.099 89.3608 112.099L89.8363 111.673Z" fill="url(#paint0_linear)"/>
<path d="M134.847 136.636L134.184 139.398C134.184 139.398 128.877 136.748 127.92 133.379C126.962 130.01 129.521 128.731 129.521 128.731L134.466 130.782L134.847 136.636Z" fill="white"/>
<path opacity="0.1" d="M134.847 136.636L134.184 139.398C134.184 139.398 128.877 136.748 127.92 133.379C126.962 130.01 129.521 128.731 129.521 128.731L134.466 130.782L134.847 136.636Z" fill="black"/>
<path d="M105.062 230.641C105.062 230.641 100.153 232.406 96.7787 232.628C94.9871 232.745 94.0453 231.67 93.5606 230.635C93.2958 230.059 93.125 229.446 93.0544 228.818L93.4931 224.06L93.7263 221.526L100.896 219.703L101.911 222.742L102.006 222.973C102.414 223.988 104.049 228.116 104 228.977C103.998 229.198 104.042 229.417 104.128 229.621C104.215 229.824 104.342 230.009 104.503 230.163C104.668 230.345 104.856 230.505 105.062 230.641Z" fill="white"/>
<path d="M138.589 228.221C138.602 228.365 138.587 228.511 138.546 228.65C138.546 228.65 128.048 230.364 125.901 228.65C125.296 228.149 124.59 227.778 123.829 227.56C123.068 227.342 122.269 227.281 121.483 227.383C121.483 227.383 117.422 227.491 116.744 226.182C116.461 225.633 116.535 224.567 116.71 223.516C116.888 222.532 117.126 221.558 117.422 220.601L117.584 220.475L118.551 219.715L129.865 219.388H129.95C129.895 221.652 133.791 224.249 133.791 224.249C137.93 225.75 138.54 227.446 138.589 228.221Z" fill="white"/>
<path opacity="0.1" d="M138.589 228.221C138.6 228.366 138.584 228.511 138.543 228.65C138.543 228.65 128.048 230.365 125.901 228.65C125.296 228.15 124.591 227.779 123.83 227.56C123.07 227.342 122.272 227.282 121.486 227.383C121.486 227.383 117.422 227.491 116.747 226.182C116.465 225.63 116.535 224.567 116.71 223.516C118.274 223.669 120.744 224.051 121.713 224.96C123.18 226.345 125.665 227.726 127.189 227.834C128.383 227.909 135.521 228.131 138.589 228.221Z" fill="black"/>
<path opacity="0.1" d="M105.062 230.641C105.062 230.641 100.153 232.406 96.7787 232.628C94.9871 232.745 94.0453 231.67 93.5637 230.632C94.8123 231.043 96.5455 231.475 97.4567 231.079C98.5365 230.611 102.365 230.307 104.513 230.178C104.676 230.353 104.86 230.509 105.062 230.641Z" fill="black"/>
<path d="M112.345 88.3779C108.295 86.8378 103.086 81.7489 104.387 79.3711C104.676 78.7711 104.847 78.1235 104.893 77.4617C104.977 76.5633 104.989 75.6599 104.93 74.7596C104.839 73.2852 104.657 71.8175 104.387 70.3643C104.387 70.3643 117.029 70.6435 116.293 72.4659C116.078 73.0003 116.044 73.928 116.103 74.9668C116.161 76.0056 116.314 77.1795 116.474 78.1732C116.695 79.5363 116.915 80.575 116.915 80.575C116.915 80.575 116.142 81.6348 115.688 81.6919C115.234 81.7489 118.155 90.5726 112.345 88.3779Z" fill="#CF6F80"/>
<path opacity="0.1" d="M101.997 222.973L101.902 223.075C98.1224 218.602 93.5514 224.177 93.5514 224.177L93.4839 224.06L93.7171 221.526L100.886 219.703L101.902 222.742L101.997 222.973Z" fill="black"/>
<path opacity="0.1" d="M129.953 219.703C129.953 219.703 127.192 219.646 125.72 220.919C124.247 222.192 117.13 221.196 117.437 220.919C117.528 220.783 117.583 220.626 117.597 220.463L118.563 219.703L129.877 219.376C129.92 219.577 129.953 219.703 129.953 219.703Z" fill="black"/>
<path d="M106.7 184.574C106.494 185.071 106.338 185.587 106.234 186.114C105.978 187.557 105.907 189.025 106.022 190.485C106.135 192.587 106.022 206.67 106.022 206.67C106.022 206.67 103.595 210.426 102.242 211.75C100.889 213.074 105.003 215.452 105.003 215.452C105.617 218.875 101.899 222.742 101.899 222.742C98.1193 218.268 93.5483 223.846 93.5483 223.846C93.5483 223.846 91.0635 219.643 90.4438 218.142C89.8241 216.641 92.8704 215.602 93.941 214.993C95.0117 214.383 93.8889 210.79 93.8889 210.79C93.8889 210.79 92.9839 207.64 91.9102 204.767C90.8364 201.894 93.0943 187.591 93.0943 187.591C93.0943 187.591 93.2109 185.051 93.4901 184.165C93.6309 183.526 93.6589 182.868 93.5729 182.22C93.5545 182.001 93.533 181.818 93.5177 181.695C93.5023 181.572 93.4901 181.514 93.4901 181.514L93.533 181.442L95.0669 178.644C95.0669 178.644 107.436 182.811 106.7 184.574Z" fill="#07B3D6"/>
<path d="M129.953 219.373C129.953 219.373 127.192 219.316 125.72 220.574C124.247 221.832 117.13 220.85 117.437 220.574C117.744 220.298 117.719 218.253 117.719 218.253C113.544 212.675 117.106 210.411 117.106 210.411C117.106 210.411 115.241 201.63 114.903 198.372C114.667 196.097 114.375 189.981 114.219 186.489C114.151 184.988 114.112 183.955 114.112 183.955L117.523 183.283L117.962 183.196L126.189 181.581C126.189 181.581 126.416 183.082 126.57 184.31C126.646 184.834 126.689 185.362 126.699 185.892C126.643 186.492 126.699 188.372 126.699 188.372L126.978 194.007C126.795 194.598 126.701 195.212 126.699 195.829C126.754 196.547 127.824 206.821 127.824 206.821C127.824 206.821 129.687 212.951 129.052 213.393C128.417 213.834 129.953 219.373 129.953 219.373Z" fill="#07B3D6"/>
<path opacity="0.1" d="M116.293 72.4659C116.078 73.0003 116.044 73.928 116.103 74.9668C114.409 75.9647 112.462 76.475 110.486 76.4389C108.51 76.4028 106.584 75.8218 104.93 74.7626C104.839 73.2872 104.657 71.8185 104.387 70.3643C104.387 70.3643 117.029 70.6375 116.293 72.4659Z" fill="black"/>
<path d="M121.18 65.8309C121.182 66.9127 121.008 67.9881 120.664 69.0163C119.896 71.3201 118.32 73.2839 116.215 74.5605C114.11 75.8371 111.611 76.3444 109.161 75.9926C106.711 75.6409 104.467 74.4528 102.825 72.6383C101.184 70.8239 100.25 68.4999 100.19 66.0771C100.19 65.993 100.19 65.9149 100.19 65.8309C100.166 64.4671 100.42 63.1124 100.937 61.8457C101.454 60.5789 102.223 59.4256 103.2 58.4529C104.177 57.4803 105.342 56.7077 106.628 56.1804C107.913 55.6531 109.293 55.3815 110.686 55.3815C112.08 55.3815 113.46 55.6531 114.745 56.1804C116.03 56.7077 117.196 57.4803 118.173 58.4529C119.15 59.4256 119.919 60.5789 120.436 61.8457C120.953 63.1124 121.207 64.4671 121.183 65.8309H121.18Z" fill="#CF6F80"/>
<path opacity="0.1" d="M112.345 88.378C108.295 86.8378 103.086 81.7489 104.387 79.3711C104.676 78.7711 104.847 78.1235 104.893 77.4617L110.436 81.9201L113.866 84.6731L116.474 78.1762C116.695 79.5392 116.915 80.578 116.915 80.578C116.915 80.578 116.142 81.6378 115.688 81.6949C115.234 81.7519 118.155 90.5726 112.345 88.378Z" fill="black"/>
<path d="M126.68 108.082L122.051 184.19L116.014 184.577L100.38 140.446L102.945 88.0537L103.485 76.9843L110.436 82.5715L113.869 85.3246L116.553 78.6386L121.545 82.8958L126.68 108.082Z" fill="#07B3D6"/>
<path opacity="0.1" d="M106.7 184.574C106.494 185.071 106.338 185.587 106.234 186.114C101.84 185.45 97.5739 184.146 93.576 182.244L93.4931 182.202L93.5207 181.719L93.5361 181.466L95.07 178.668C95.07 178.668 107.436 182.811 106.7 184.574Z" fill="black"/>
<path opacity="0.1" d="M117.593 186.126C116.47 186.313 115.338 186.439 114.201 186.504C114.133 185.003 114.093 183.97 114.093 183.97L117.504 183.298L117.593 186.126Z" fill="black"/>
<path opacity="0.1" d="M126.551 184.325C124.37 184.88 121.002 185.505 117.986 185.114L117.943 183.211L126.171 181.596C126.171 181.596 126.398 183.082 126.551 184.325Z" fill="black"/>
<path opacity="0.1" d="M117.931 185.462C105.353 187.564 93.8336 181.538 93.8336 181.538L93.9441 179.497C93.9441 179.497 94.2294 156.352 93.4379 154.578C92.6464 152.804 92.0298 143.806 92.4777 142.425C92.9256 141.044 90.8426 120.334 90.8426 120.334L90.5051 111.928L78.1543 107.031L83.6763 95.7665C84.4221 94.1872 85.0636 92.5626 85.5967 90.9028C86.5569 87.9786 91.0144 85.1054 91.0144 85.1054C91.0144 85.1054 95.5853 82.2353 97.3922 82.3433C99.1991 82.4514 101.567 79.8034 101.567 79.8034C103.316 75.4411 104.899 77.4166 104.899 77.4166C104.899 77.6238 104.899 77.4166 104.813 78.0621C104.2 82.8507 114.734 97.9822 114.885 98.2494L115.888 122.165L116.903 152.431L117.931 185.462Z" fill="black"/>
<path d="M117.593 185.463C105.016 187.564 93.4931 181.539 93.4931 181.539L93.6066 179.497C93.6066 179.497 93.8919 156.352 93.0974 154.578C92.3028 152.804 91.6893 143.806 92.1402 142.425C92.5912 141.044 90.5051 120.334 90.5051 120.334L90.1646 111.928L77.8076 107.013L83.3296 95.7486C84.0738 94.1686 84.7153 92.5441 85.25 90.8849C86.2072 87.9607 90.6677 85.0875 90.6677 85.0875C90.6677 85.0875 95.2387 82.2173 97.0425 82.3254C98.8464 82.4335 101.218 79.7855 101.218 79.7855C102.969 75.4232 104.899 77.3987 104.899 77.3987C104.899 77.6058 104.715 77.6989 104.813 78.0442C106.163 82.6887 114.397 97.9642 114.547 98.2314L115.563 122.148L116.578 152.413L117.593 185.463Z" fill="white"/>
<path opacity="0.1" d="M114.204 98.9129C112.851 98.3605 105.684 90.3534 105.684 90.3534V88.5311C105.424 87.9306 103.874 88.2969 102.617 88.7172L103.157 77.6478L103.77 78.1462C105.114 82.7877 114.047 98.6457 114.204 98.9129Z" fill="black"/>
<path d="M114.544 98.2494C113.188 97.697 106.022 89.6899 106.022 89.6899V87.8676C105.761 87.2671 104.212 87.6334 102.954 88.0537L103.497 76.9843L104.111 77.4827C105.457 82.1242 114.394 97.9852 114.544 98.2494Z" fill="white"/>
<path opacity="0.1" d="M93.8336 138.183C94.0024 138.183 102.58 137.3 102.58 137.3C102.58 137.3 107.774 147.294 107.433 149.726C107.093 152.158 106.476 154.311 104.387 153.93C102.298 153.548 93.1434 154.23 93.1434 154.23L93.8336 138.183Z" fill="black"/>
<path d="M93.4931 137.519C93.6619 137.519 102.239 136.636 102.239 136.636C102.239 136.636 107.43 146.634 107.093 149.063C106.755 151.492 106.132 153.647 104.046 153.266C101.96 152.885 92.8029 153.566 92.8029 153.566L93.4931 137.519Z" fill="white"/>
<path d="M99.9569 132.827C99.9569 132.827 107.829 136.967 107.997 138.231C108.166 139.495 103.991 137.678 103.089 137.459C102.495 137.319 101.891 137.227 101.282 137.183L95.2663 137.342L99.9569 132.827Z" fill="#CF6F80"/>
<path opacity="0.1" d="M112.007 99.4293C112.465 99.4293 112.835 99.0664 112.835 98.6187C112.835 98.171 112.465 97.8081 112.007 97.8081C111.55 97.8081 111.179 98.171 111.179 98.6187C111.179 99.0664 111.55 99.4293 112.007 99.4293Z" fill="black"/>
<path d="M112.007 99.099C112.465 99.099 112.835 98.7361 112.835 98.2884C112.835 97.8407 112.465 97.4778 112.007 97.4778C111.55 97.4778 111.179 97.8407 111.179 98.2884C111.179 98.7361 111.55 99.099 112.007 99.099Z" fill="#3F3D56"/>
<path opacity="0.1" d="M113.532 134.52C113.989 134.52 114.36 134.157 114.36 133.709C114.36 133.262 113.989 132.899 113.532 132.899C113.074 132.899 112.703 133.262 112.703 133.709C112.703 134.157 113.074 134.52 113.532 134.52Z" fill="black"/>
<path d="M113.532 134.187C113.989 134.187 114.36 133.824 114.36 133.376C114.36 132.928 113.989 132.565 113.532 132.565C113.074 132.565 112.703 132.928 112.703 133.376C112.703 133.824 113.074 134.187 113.532 134.187Z" fill="#3F3D56"/>
<path opacity="0.1" d="M112.832 116.975C113.29 116.975 113.661 116.612 113.661 116.164C113.661 115.716 113.29 115.353 112.832 115.353C112.375 115.353 112.004 115.716 112.004 116.164C112.004 116.612 112.375 116.975 112.832 116.975Z" fill="black"/>
<path d="M112.832 116.644C113.29 116.644 113.661 116.281 113.661 115.834C113.661 115.386 113.29 115.023 112.832 115.023C112.375 115.023 112.004 115.386 112.004 115.834C112.004 116.281 112.375 116.644 112.832 116.644Z" fill="#3F3D56"/>
<path d="M131.926 137.015C131.926 137.015 132.491 137.843 131.926 138.231C131.362 138.618 131.981 139.555 131.981 139.555C131.981 139.555 130.573 140.362 131.193 141.089C131.813 141.815 131.42 145.097 131.42 145.097L129.726 147.841C129.726 147.841 129.828 149.609 129.834 151.999C129.834 155.728 129.61 160.97 128.371 163.36L128.542 182.968C128.542 182.968 122.612 185.087 117.649 184.442L116.912 152.978C116.912 152.978 117.986 135.135 118.382 131.713C118.613 129.936 118.708 128.144 118.664 126.354C118.664 126.354 118.495 120.998 117.928 118.512C117.928 118.512 117.314 107.743 117.253 104.761C117.225 103.335 117.302 99.1741 117.388 95.2171C117.483 90.8909 117.59 86.8108 117.59 86.8108L116.471 78.1402C116.471 78.1402 117.59 78.0291 117.928 78.4705C118.079 78.6086 118.243 78.7323 118.419 78.8397C120.351 80.1187 127.18 84.0517 127.18 84.0517C127.18 84.0517 130.96 85.5228 131.865 87.6304C132.77 89.738 133.399 91.2331 133.837 91.8336C134.276 92.434 134.515 95.2562 134.515 95.2562C134.515 95.2562 135.816 100.45 136.831 101.33C137.847 102.209 138.589 107.806 138.589 107.806L129.616 114.711C129.616 114.711 128.828 126.198 128.659 126.642C128.49 127.086 131.926 137.015 131.926 137.015Z" fill="white"/>
<path d="M132.267 137.015C132.267 137.015 132.828 137.843 132.267 138.231C131.705 138.618 132.319 139.555 132.319 139.555C132.319 139.555 130.92 140.371 131.533 141.098C132.147 141.824 131.76 145.106 131.76 145.106L130.067 147.85C130.067 147.85 130.168 149.618 130.177 152.008C130.177 155.737 129.953 160.979 128.714 163.369L128.883 182.977C128.883 182.977 122.944 185.096 117.986 184.451L117.253 152.987C117.253 152.987 118.327 135.144 118.722 131.722C118.954 129.945 119.048 128.153 119.002 126.363C119.002 126.363 118.833 121.007 118.268 118.521C118.268 118.521 117.655 107.752 117.59 104.77C117.563 103.344 117.643 99.1831 117.725 95.2261C117.82 90.8998 117.928 86.8198 117.928 86.8198L116.449 78.0321C116.449 78.0321 117.928 78.0321 118.268 78.4794C118.418 78.6193 118.583 78.7431 118.759 78.8487C120.692 80.1277 127.524 84.0607 127.524 84.0607C127.524 84.0607 131.3 85.5318 132.205 87.6394C133.11 89.747 133.739 91.2421 134.181 91.8426C134.623 92.443 134.856 95.2652 134.856 95.2652C134.856 95.2652 136.156 100.459 137.172 101.339C138.187 102.218 138.921 107.803 138.921 107.803L129.947 114.708C129.947 114.708 129.159 126.195 128.987 126.639C128.815 127.083 132.267 137.015 132.267 137.015Z" fill="white"/>
<path opacity="0.1" d="M121.52 89.3687L122.33 91.6805L118.066 95.8836C118.161 91.5604 118.268 87.4773 118.268 87.4773L116.79 78.6896C116.79 78.6896 118.268 78.6896 118.609 79.137C118.758 79.2764 118.923 79.3992 119.1 79.5032L122.726 89.741L121.52 89.3687Z" fill="black"/>
<path d="M121.18 88.7052L121.993 91.0169L117.728 95.2201C117.824 90.8938 117.931 86.8137 117.931 86.8137L116.449 78.0261C116.449 78.0261 117.931 78.0261 118.268 78.4734C118.419 78.6124 118.583 78.7361 118.759 78.8427L122.388 89.0774L121.18 88.7052Z" fill="white"/>
<path opacity="0.1" d="M121.18 65.8309C121.182 66.9127 121.008 67.9881 120.664 69.0163C120.606 69.0251 120.547 69.0225 120.49 69.0086C120.433 68.9947 120.38 68.9697 120.333 68.9352C120.253 66.2332 118.894 63.6963 117.222 61.5376C116.753 60.8859 116.184 60.3087 115.535 59.8263C114.879 59.3442 114.063 59.1184 113.246 59.1928C112.326 59.3159 111.513 59.9284 110.584 60.0065C109.357 60.1055 108.258 59.2739 107.04 59.2319C106.545 59.2365 106.057 59.3444 105.608 59.5483C105.159 59.7523 104.759 60.0477 104.436 60.4148C103.796 61.1555 103.321 62.0184 103.04 62.9487C102.558 64.3593 102.295 65.8329 102.261 67.32C102.245 68.1606 102.163 69.2144 101.365 69.5207C101.425 68.9024 101.353 68.2787 101.154 67.6891C100.955 67.0994 100.633 66.5566 100.208 66.0951L100.19 66.0771C100.19 65.993 100.19 65.9149 100.19 65.8309C100.166 64.4671 100.42 63.1124 100.937 61.8457C101.454 60.5789 102.223 59.4256 103.2 58.4529C104.177 57.4803 105.342 56.7077 106.628 56.1804C107.913 55.6531 109.293 55.3815 110.686 55.3815C112.08 55.3815 113.46 55.6531 114.745 56.1804C116.03 56.7077 117.196 57.4803 118.173 58.4529C119.15 59.4256 119.919 60.5789 120.436 61.8457C120.953 63.1124 121.207 64.4671 121.183 65.8309H121.18Z" fill="black"/>
<path d="M115.032 49.5195C113.438 48.7857 111.625 48.6469 109.933 49.1292C109.083 49.3754 108.283 49.7747 107.421 49.9759C105.58 50.4112 103.433 49.9398 101.853 50.9936C100.975 51.5941 100.448 52.5428 99.9569 53.4645L98.7298 55.7522C98.061 57.0042 97.3861 58.2771 97.1069 59.6552C96.8278 61.0332 96.9965 62.5764 97.8892 63.6842C98.5396 64.4919 99.4998 64.9992 100.205 65.7588C100.628 66.2208 100.949 66.7633 101.147 67.3523C101.346 67.9412 101.418 68.5639 101.359 69.1814C102.16 68.8812 102.236 67.8244 102.255 66.9837C102.289 65.4966 102.552 64.023 103.034 62.6124C103.314 61.6819 103.789 60.8189 104.43 60.0785C104.753 59.7117 105.153 59.4166 105.602 59.2126C106.051 59.0087 106.539 58.9006 107.034 58.8956C108.261 58.9376 109.363 59.7663 110.577 59.6672C111.498 59.5921 112.314 58.9767 113.24 58.8566C114.057 58.7809 114.873 59.0069 115.529 59.4901C116.177 59.9717 116.746 60.549 117.213 61.2014C118.888 63.36 120.247 65.8909 120.327 68.599C120.674 68.8482 121.174 68.5239 121.345 68.1396C121.517 67.7553 121.523 67.305 121.741 66.9387C121.993 66.5154 122.474 66.2902 122.852 65.972C123.809 65.1644 124.048 63.8043 124.011 62.5704C123.974 61.3365 123.729 60.0845 123.968 58.8716C124.112 58.127 124.438 57.4305 124.616 56.695C124.794 55.9594 124.815 55.1338 124.395 54.5003C123.781 53.5696 122.49 53.3864 121.364 53.2994C120.084 53.1913 118.94 53.3294 118.124 52.2756C117.741 51.7257 117.31 51.2094 116.836 50.7324C116.673 50.5763 115.032 49.5856 115.032 49.5195Z" fill="#512E4E"/>
<path opacity="0.1" d="M81.6884 112.832L78.4826 107.031L77.4671 115.981C77.4671 115.981 78.0316 119.956 77.9181 120.565C77.8046 121.175 80.2312 126.639 80.2312 126.639C80.2312 126.639 88.2472 140.612 91.5205 141.332L102.58 133.598L99.647 129.953C99.647 129.953 98.6316 129.566 98.377 129.953C98.377 129.953 92.9317 120.785 92.3672 120.121C91.8028 119.458 91.9132 118.134 91.9132 118.134C91.9132 118.134 91.0665 117.251 91.3488 116.422C91.631 115.594 89.7136 112.72 89.7136 112.72L91.4623 111.12L81.6884 112.832Z" fill="black"/>
<path d="M78.6513 106.371L77.8046 107.031L76.7891 115.981C76.7891 115.981 77.3536 119.956 77.2401 120.565C77.1266 121.175 79.5563 126.639 79.5563 126.639C79.5563 126.639 87.5693 140.612 90.8426 141.332L101.905 133.598L98.9691 129.953C98.9691 129.953 97.9536 129.566 97.699 129.953C97.699 129.953 92.2537 120.785 91.6893 120.121C91.1248 119.458 91.2383 118.134 91.2383 118.134C91.2383 118.134 90.3916 117.251 90.6738 116.422C90.9561 115.594 89.0357 112.72 89.0357 112.72L90.7843 111.12L78.6513 106.371Z" fill="white"/>
<path opacity="0.1" d="M131.193 141.431C131.806 142.161 131.42 145.436 131.42 145.436L129.726 148.18C129.726 148.18 129.828 149.951 129.834 152.338L126.987 153.209C126.73 153.288 126.457 153.305 126.191 153.259C125.926 153.214 125.675 153.107 125.461 152.947C125.246 152.788 125.073 152.58 124.957 152.342C124.841 152.104 124.785 151.842 124.793 151.579L125.284 136.084L131.926 138.57C131.362 138.954 131.981 139.897 131.981 139.897C131.981 139.897 130.573 140.701 131.193 141.431Z" fill="black"/>
<path d="M131.533 141.098C132.147 141.828 131.76 145.106 131.76 145.106L130.067 147.85C130.067 147.85 130.168 149.618 130.177 152.008L127.278 152.894C127.026 152.971 126.759 152.987 126.5 152.942C126.24 152.898 125.994 152.793 125.784 152.636C125.574 152.48 125.405 152.277 125.292 152.044C125.178 151.811 125.123 151.555 125.131 151.297L125.625 135.754L132.27 138.24C131.702 138.624 132.322 139.564 132.322 139.564C132.322 139.564 130.92 140.371 131.533 141.098Z" fill="white"/>
<path d="M133.733 133.712C133.733 133.712 133.282 136.531 132.153 136.697C131.024 136.862 130.518 141.257 129.392 141.101C128.266 140.945 129.012 137.015 129.052 136.252C129.091 135.49 127.824 132.331 128.772 131.614C129.72 130.896 132.721 131.614 132.721 131.614L133.733 133.712Z" fill="#CF6F80"/>
<path opacity="0.1" d="M136.135 112.003L138.264 107.8C138.264 107.8 139.111 111.003 139.111 112.714C139.111 114.426 140.295 114.594 140.295 114.594C140.295 114.594 141.593 116.095 140.908 117.188C140.224 118.281 139.948 121.001 139.948 121.001C139.948 121.001 140.172 126.192 139.157 126.909C138.141 127.627 137.93 129.341 137.93 129.341C137.93 129.341 136.064 132.598 136.123 133.373C136.181 134.148 133.527 139.393 133.527 139.393C133.527 139.393 134.825 132.875 127.263 130.059C127.263 130.059 127.205 127.846 127.769 127.239C128.334 126.633 129.214 126.357 128.662 123.291C128.11 120.226 128.502 116.563 128.502 115.828C128.502 115.092 130.196 110.505 130.196 110.505L136.135 112.003Z" fill="black"/>
<path d="M137.055 107.199L138.914 107.8C138.914 107.8 139.764 111.003 139.764 112.714C139.764 114.426 140.948 114.594 140.948 114.594C140.948 114.594 142.246 116.095 141.562 117.188C140.878 118.281 140.605 121.001 140.605 121.001C140.605 121.001 140.829 126.192 139.813 126.909C138.798 127.627 138.571 129.341 138.571 129.341C138.571 129.341 136.709 132.598 136.767 133.373C136.825 134.148 134.169 139.393 134.169 139.393C134.169 139.393 135.469 132.875 127.904 130.059C127.904 130.059 127.849 127.846 128.413 127.239C128.978 126.633 129.858 126.357 129.306 123.291C128.754 120.226 129.147 116.563 129.147 115.828C129.147 115.092 130.84 110.505 130.84 110.505L137.055 107.199Z" fill="white"/>
<path opacity="0.1" d="M95.9933 216.143C95.9933 216.143 98.9568 214.32 100.902 215.644C102.847 216.968 95.9933 216.143 95.9933 216.143Z" fill="black"/>
<path opacity="0.1" d="M119.02 210.507C119.02 210.507 121.643 210.177 123.846 212.498C126.048 214.819 119.02 210.507 119.02 210.507Z" fill="black"/>
<g opacity="0.1">
<path opacity="0.1" d="M122.858 65.3145C122.48 65.6327 121.996 65.8609 121.744 66.2842C121.529 66.6475 121.523 67.0948 121.351 67.4851C121.18 67.8754 120.68 68.1937 120.333 67.9475C120.253 65.2454 118.891 62.7085 117.219 60.5469C116.752 59.8945 116.184 59.3172 115.535 58.8356C114.878 58.3525 114.061 58.1266 113.243 58.2021C112.323 58.3252 111.513 58.9376 110.584 59.0127C109.357 59.1148 108.255 58.2831 107.037 58.2411C106.542 58.2459 106.054 58.3542 105.606 58.5588C105.157 58.7633 104.758 59.0593 104.436 59.427C103.795 60.1662 103.32 61.0283 103.04 61.9579C102.558 63.3686 102.295 64.8422 102.261 66.3292C102.242 67.1669 102.163 68.2117 101.371 68.5239C101.39 68.7457 101.39 68.9686 101.371 69.1904C102.169 68.8902 102.249 67.8334 102.267 66.9927C102.301 65.5056 102.564 64.032 103.046 62.6214C103.326 61.6909 103.802 60.8279 104.442 60.0875C104.765 59.7208 105.164 59.4257 105.612 59.2217C106.061 59.0177 106.549 58.9096 107.043 58.9046C108.271 58.9467 109.375 59.7753 110.59 59.6762C111.51 59.6011 112.326 58.9857 113.249 58.8656C114.067 58.7901 114.885 59.016 115.541 59.4991C116.19 59.9807 116.758 60.558 117.225 61.2104C118.897 63.369 120.259 65.8999 120.339 68.608C120.686 68.8572 121.186 68.5329 121.358 68.1486C121.529 67.7643 121.535 67.314 121.75 66.9477C122.002 66.5244 122.487 66.2992 122.864 65.981C123.821 65.1734 124.06 63.8133 124.023 62.5794C124.023 62.5404 124.023 62.5013 124.023 62.4653C123.965 63.5341 123.674 64.6239 122.858 65.3145Z" fill="black"/>
<path opacity="0.1" d="M100.212 65.1013C99.5059 64.3417 98.5427 63.8343 97.8954 63.0297C97.3503 62.3174 97.039 61.46 97.0026 60.5709C96.9061 61.682 97.2231 62.7898 97.8954 63.6902C98.5427 64.4978 99.5059 65.0052 100.212 65.7648C100.889 66.5078 101.296 67.4496 101.368 68.4428C101.415 67.8383 101.337 67.2308 101.138 66.6566C100.939 66.0824 100.624 65.5534 100.212 65.1013Z" fill="black"/>
<path opacity="0.1" d="M124.622 56.0374C124.441 56.773 124.119 57.4725 123.971 58.2141C123.884 58.7096 123.852 59.2129 123.876 59.7152C123.886 59.4291 123.918 59.1441 123.971 58.8626C124.119 58.118 124.441 57.4215 124.622 56.6859C124.727 56.2802 124.761 55.8599 124.723 55.443C124.704 55.6433 124.67 55.8419 124.622 56.0374Z" fill="black"/>
</g>
<path opacity="0.1" d="M40.7184 228.35C57.2275 228.35 70.6107 226.246 70.6107 223.651C70.6107 221.056 57.2275 218.953 40.7184 218.953C24.2094 218.953 10.8261 221.056 10.8261 223.651C10.8261 226.246 24.2094 228.35 40.7184 228.35Z" fill="#07B3D6"/>
<path d="M41.6817 133.643H39.7582V176.026H41.6817V133.643Z" fill="#535461"/>
<path d="M53.7687 175.897L53.649 177.807L53.4772 180.509L53.4067 181.632L53.2379 184.334L53.1643 185.456L52.9925 188.158L51.0537 218.803C50.9694 220.121 50.375 221.359 49.3913 222.263C48.4076 223.168 47.1086 223.672 45.7587 223.672H35.6781C34.3285 223.672 33.0299 223.168 32.0467 222.263C31.0635 221.358 30.4697 220.121 30.3862 218.803L28.4566 188.137L28.2848 185.435L28.2142 184.313L28.0424 181.61L27.9719 180.488L27.8001 177.786L27.6773 175.876C27.656 175.509 27.7117 175.141 27.8408 174.795C27.97 174.449 28.17 174.133 28.4286 173.866C28.6871 173.598 28.9987 173.386 29.3443 173.24C29.6899 173.095 30.0622 173.02 30.4383 173.021H51.0568C51.4315 173.024 51.8015 173.102 52.1441 173.251C52.4867 173.4 52.7946 173.615 53.0487 173.885C53.3028 174.154 53.4978 174.472 53.6216 174.818C53.7455 175.164 53.7955 175.531 53.7687 175.897Z" fill="#3F3D56"/>
<path d="M53.649 177.807L53.4772 180.5H27.9596L27.7878 177.807H53.649Z" fill="#9D9CB5"/>
<path d="M53.4067 181.623L53.2379 184.319H28.2019L28.0302 181.623H53.4067Z" fill="#9D9CB5"/>
<path d="M53.1643 185.444L52.9956 188.138H28.4443L28.2725 185.444H53.1643Z" fill="#9D9CB5"/>
<path d="M24.8519 149.528C36.0523 157.46 40.7276 169.866 40.7276 169.866C40.7276 169.866 27.2294 169.412 16.026 161.48C4.82252 153.548 0.156448 141.146 0.156448 141.146C0.156448 141.146 13.6485 141.596 24.8519 149.528Z" fill="#07B3D6"/>
<path d="M0.147263 141.146C0.147263 141.146 14.1608 148.757 18.6551 155.058C23.1493 161.36 40.7276 169.866 40.7276 169.866" stroke="#535461" stroke-width="2" stroke-miterlimit="10"/>
<path d="M32.0826 133.55C38.1783 137.864 40.7276 144.616 40.7276 144.616C40.7276 144.616 33.3803 144.37 27.2816 140.056C21.1829 135.742 18.6397 128.987 18.6397 128.987C18.6397 128.987 25.9839 129.233 32.0826 133.55Z" fill="#07B3D6"/>
<path d="M18.6397 128.987C18.6397 128.987 26.2662 133.13 28.7112 136.558C31.1562 139.987 40.7276 144.616 40.7276 144.616" stroke="#535461" stroke-width="2" stroke-miterlimit="10"/>
<path d="M49.5781 144.274C42.5744 151.807 41.0927 161.651 41.0927 161.651C41.0927 161.651 50.9678 159.28 57.9654 151.744C64.9629 144.208 66.4508 134.367 66.4508 134.367C66.4508 134.367 56.5818 136.741 49.5781 144.274Z" fill="#07B3D6"/>
<path d="M66.4569 134.37C66.4569 134.37 57.3334 142.092 55.0142 147.412C52.6949 152.732 41.0927 161.651 41.0927 161.651" stroke="#535461" stroke-width="2" stroke-miterlimit="10"/>
<path d="M306.675 141.623C306.675 141.623 301.61 116.963 303.549 113.894C303.549 113.894 303.619 111.042 303.503 107.406C303.503 107.268 303.503 107.13 303.503 106.989C303.844 107.212 304.2 107.412 304.567 107.589C306.354 108.488 308.405 108.747 310.366 108.322L308.832 106.65C308.463 106.25 308.08 105.818 308 105.29C307.921 104.761 308.141 104.29 308.332 103.819C309.789 100.216 309.865 95.6855 307.058 92.9354C304.687 90.6236 304.11 87.6394 301.537 85.5288C299.656 83.9826 298.622 81.7159 297.647 79.5242C296.821 77.6718 295.99 75.8044 295.518 73.8409C295.149 72.3068 295.002 70.7186 294.496 69.2204C293.99 67.7223 293.042 66.2662 291.56 65.5967C291.032 65.3595 290.447 65.2244 289.965 64.9092C289.333 64.4919 288.953 63.8133 288.495 63.2189C286.173 60.2166 278.396 61.985 274.715 63.2039C273.714 63.5108 272.787 64.0134 271.991 64.681L272.025 64.627C272.052 64.5819 272.086 64.5369 272.117 64.4919C271.714 64.8107 271.366 65.1909 271.086 65.6177C270.549 66.4493 270.325 67.4191 269.877 68.3198C269.337 69.3856 266.334 72.3608 267.625 73.5587C267.716 73.6392 267.82 73.7041 267.932 73.7509C268.417 73.9483 268.951 74.0006 269.466 73.901L269.411 74.0301C268.97 75.087 268.744 76.2179 268.745 77.3596C268.745 82.2923 272.902 86.2914 278.034 86.2914C278.999 86.2923 279.958 86.1475 280.878 85.862C280.9 85.9761 280.918 86.0902 280.94 86.2043C280.94 86.2493 280.955 86.2944 280.961 86.3394L280.798 86.5616C280.79 86.5479 280.781 86.5348 280.771 86.5225L275.954 93.1095C275.218 93.6169 270.979 96.6192 270.739 98.8709C270.488 101.336 270.236 104.221 270.236 104.221L270.202 104.839C269.992 105.012 269.746 105.137 269.481 105.207C269.216 105.277 268.939 105.29 268.668 105.245C267.165 105.005 267.165 110.649 267.165 110.649C267.165 110.649 266.165 111.549 265.478 110.769C264.791 109.988 262.975 112.633 262.975 112.633L251.593 113.114L251.333 113.129L250.719 111.27C250.653 111.074 250.511 110.912 250.323 110.818C250.135 110.724 249.917 110.706 249.716 110.769C249.668 110.784 249.622 110.803 249.578 110.826L249.535 110.85L249.455 110.904L249.415 110.94C249.393 110.96 249.373 110.981 249.354 111.003L249.317 111.045L249.299 111.063C249.228 111.159 249.181 111.27 249.162 111.387C249.143 111.503 249.152 111.623 249.188 111.736L249.716 113.33C247.519 113.762 245.274 114.981 247.105 118.338L237.822 116.659L240.825 119.127L256.33 122.259C256.124 122.619 256.259 123.141 256.901 123.877C259.662 127.05 264.693 127.912 266.717 128.134C267.252 129.305 267.92 130.412 268.708 131.437L268.534 134.598C268.534 134.598 263.407 158.694 262.469 159.916C262.942 159.391 263.376 158.832 263.766 158.244C262.278 163.195 260.198 169.971 259.652 170.986C258.775 172.607 257.962 179.167 258.962 179.587C259.269 179.716 260.146 179.653 261.398 179.56V180.103L261.343 200.696C261.343 200.696 261.594 213.327 260.904 214.531C260.214 215.734 260.03 218.259 260.03 218.259C260.03 218.259 257.269 223.24 255.081 225.243C255.066 225.258 255.05 225.272 255.032 225.285L254.965 224.816C254.965 224.816 252.336 228.065 246.519 227.882C246.519 227.882 243.019 230.109 248.21 230.229C253.4 230.349 260.03 230.049 260.03 230.049C260.03 230.049 264.659 223.144 268.537 224.045V229.278H269.724V223.961C270.274 223.606 270.746 223.145 271.109 222.607C271.472 222.069 271.72 221.464 271.837 220.829C271.939 220.175 271.865 219.506 271.621 218.888C271.378 218.271 270.975 217.726 270.451 217.308C270.215 217.099 270.027 216.846 269.896 216.563C269.766 216.279 269.697 215.973 269.693 215.662L269.65 215.698C269.65 215.593 269.623 215.485 269.61 215.374C269.27 212.672 268.843 207.097 270.35 202.972C272.414 197.315 273.04 189.438 271.537 184.748C271.052 183.249 270.653 181.724 270.343 180.182C270.307 179.986 270.273 179.8 270.242 179.626C271.27 179.762 272.287 179.963 273.289 180.227C276.77 181.166 284.388 181.34 290.891 181.289C290.907 181.463 290.925 181.647 290.947 181.83C291.063 183.103 291.305 184.362 291.671 185.589C292.487 187.99 292.861 198.579 292.861 198.579C292.861 198.579 293.913 207.286 293.339 210.829C293.033 212.798 292.726 214.777 292.551 216.764V216.803C292.551 216.803 290.827 221.607 289.566 224.216C289.535 224.282 289.502 224.348 289.471 224.411C289.135 224.441 288.804 224.513 288.486 224.624C288.486 224.624 286.796 227.927 285.112 228.473C283.427 229.019 283.986 230.818 287.799 230.157C291.612 229.497 297.37 228.956 297.37 228.956L297.619 225.588L298.791 224.153L298.484 227.512L299.733 227.272L299.567 223.186L301.484 220.838C301.484 220.838 303.8 218.821 300.358 214.852V214.939C300.322 214.882 300.288 214.822 300.248 214.765V214.747C299.677 213.882 299.223 212.27 300.055 209.409C301.558 204.239 302.432 199.546 302.432 199.546C302.432 199.546 305.788 186.976 301.754 181.028H301.932C301.519 180.191 301.227 179.302 301.064 178.386C301.044 178.278 301.025 178.167 301.009 178.053C303.994 177.885 306.924 177.356 309.313 176.215C309.304 176.203 307.865 146.373 306.675 141.623ZM268.779 120.818V120.878L268.165 120.908L268.779 120.818ZM266.674 121.103C266.574 121.125 266.479 121.169 266.398 121.232C266.135 121.597 265.969 122.021 265.917 122.466L264.96 122.256C264.96 122.256 264.288 122.115 263.321 121.955L262.864 121.505C264.122 121.403 265.429 121.253 266.674 121.103Z" fill="url(#paint1_linear)"/>
<path d="M298.343 223.228L297.978 227.482L299.202 227.242L299.018 222.628L298.343 223.228Z" fill="#1D2366"/>
<path d="M270.417 203.029C268.941 207.142 269.359 212.693 269.69 215.389C269.813 216.386 269.926 216.992 269.926 216.992C269.926 216.992 267.721 221.91 267.536 222.096C267.352 222.282 261.045 226.05 261.045 226.05L256.637 228.569C256.637 228.569 252.164 226.651 254.308 225.99C254.746 225.818 255.141 225.555 255.465 225.219C257.612 223.222 260.309 218.259 260.309 218.259C260.309 218.259 260.493 215.74 261.168 214.543C261.843 213.345 261.597 200.756 261.597 200.756L261.649 180.236V177.561L270.04 177.621C270.093 178.529 270.214 179.432 270.402 180.323C270.703 181.86 271.093 183.38 271.571 184.874C273.049 189.555 272.436 197.394 270.417 203.029Z" fill="#FFB0B1"/>
<path opacity="0.1" d="M269.926 216.992C269.926 216.992 267.721 221.91 267.536 222.096C267.352 222.282 261.045 226.05 261.045 226.05L256.637 228.569C256.637 228.569 252.164 226.651 254.308 225.99C254.746 225.818 255.141 225.555 255.465 225.219L255.655 226.531L257.124 226.471L269.702 215.395C269.813 216.386 269.926 216.992 269.926 216.992Z" fill="black"/>
<path d="M269.773 215.674L257.125 226.825L255.655 226.885L255.348 224.783C255.348 224.783 252.777 228.02 247.065 227.84C247.065 227.84 243.636 230.058 248.719 230.178C253.802 230.298 260.293 229.998 260.293 229.998C260.293 229.998 264.828 223.093 268.622 223.994V229.209H269.788V223.946C270.33 223.589 270.793 223.128 271.148 222.591C271.503 222.055 271.744 221.453 271.856 220.823C271.957 220.174 271.885 219.511 271.648 218.897C271.412 218.282 271.017 217.738 270.503 217.317C270.273 217.106 270.09 216.852 269.965 216.569C269.839 216.287 269.774 215.982 269.773 215.674Z" fill="#1D2366"/>
<path d="M299.509 209.442C298.693 212.294 299.137 213.9 299.696 214.762V214.78C300.412 215.844 300.91 217.034 301.162 218.283L301.211 218.554L295.456 226.765L292.333 227.966C292.333 227.966 287.311 226.287 288.229 225.807C288.459 225.69 288.818 225.065 289.229 224.204C290.456 221.607 292.149 216.815 292.149 216.815V216.776C292.327 214.798 292.609 212.825 292.922 210.862C293.484 207.328 292.453 198.654 292.453 198.654C292.453 198.654 292.085 188.108 291.287 185.709C290.927 184.489 290.688 183.238 290.572 181.974C290.407 180.473 290.37 179.236 290.37 179.236C290.37 179.236 293.677 174.732 299.739 179.596C300.224 179.984 300.65 180.437 301.006 180.941C305.193 186.772 301.822 199.615 301.822 199.615C301.822 199.615 300.978 204.287 299.509 209.442Z" fill="#FFB0B1"/>
<path opacity="0.1" d="M301.22 218.554L295.465 226.765L292.342 227.966C292.342 227.966 287.32 226.287 288.238 225.807C288.468 225.69 288.827 225.065 289.238 224.204C291.364 224.186 292.465 226.167 292.465 226.167L295.159 225.747C295.159 225.747 298.711 218.914 299.509 218.496C300.306 218.079 299.631 215.377 299.631 215.377V214.69C299.653 214.714 299.671 214.741 299.696 214.765V214.783C300.412 215.847 300.91 217.036 301.162 218.286L301.22 218.554Z" fill="black"/>
<path d="M292.649 226.344C292.649 226.344 291.115 223.588 288.176 224.606C288.176 224.606 286.523 227.909 284.869 228.443C283.216 228.977 283.768 230.779 287.505 230.121C291.241 229.464 296.873 228.92 296.873 228.92L297.119 225.561L300.917 220.826C300.917 220.826 303.181 218.818 299.812 214.864V215.551C299.812 215.551 300.487 218.253 299.69 218.671C298.892 219.088 295.352 225.924 295.352 225.924L292.649 226.344Z" fill="#1D2366"/>
<path opacity="0.1" d="M270.049 177.614C270.102 178.523 270.223 179.426 270.411 180.317C266.957 179.821 263.751 180.067 261.649 180.229V177.554L270.049 177.614Z" fill="black"/>
<path opacity="0.1" d="M301.346 181.689C301.346 181.689 296.438 181.923 290.585 181.971C290.419 180.47 290.382 179.233 290.382 179.233C290.382 179.233 293.689 174.729 299.751 179.593C300.236 179.981 300.662 180.434 301.018 180.938C301.113 181.194 301.223 181.445 301.346 181.689Z" fill="black"/>
<path d="M301.346 181.148C301.346 181.148 279.847 182.166 273.295 180.368C266.742 178.569 260.247 180.127 259.269 179.71C258.29 179.293 259.085 172.757 259.944 171.139C260.803 169.52 265.515 153.155 265.515 153.155L270.049 130.02L274.825 128.732L275.163 128.638L283.486 126.393L289.584 124.745C289.584 124.745 301.711 171.079 300.671 174.495C300.294 175.803 300.233 177.18 300.493 178.515C300.652 179.427 300.939 180.313 301.346 181.148Z" fill="#1D2366"/>
<path d="M254.244 114.198C254.244 114.198 249.949 118.701 253.201 121.211C256.453 123.721 258.591 121.451 258.591 121.451L254.244 114.198Z" fill="#C7DAF5"/>
<path opacity="0.1" d="M254.244 114.198C254.244 114.198 249.949 118.701 253.201 121.211C256.453 123.721 258.591 121.451 258.591 121.451L254.244 114.198Z" fill="black"/>
<path d="M288.943 84.5891C288.943 84.5891 288.44 85.0574 287.682 85.748C286.603 86.7357 285.004 88.1798 283.587 89.3897C281.624 91.062 280.004 92.2899 280.584 91.2421C281.163 90.1943 281.053 88.3689 280.765 86.6606C280.743 86.5466 280.725 86.4325 280.703 86.3214C280.465 85.0668 280.148 83.8276 279.755 82.6106C279.755 82.6106 282.927 78.5995 284.682 77.0174C285.336 76.4169 285.793 76.1707 285.82 76.588C285.851 77.1495 286.281 78.3894 286.814 79.7044C286.83 79.7464 286.845 79.7854 286.863 79.8275C287.219 80.7282 287.621 81.6529 287.974 82.4515C288.514 83.6764 288.943 84.5891 288.943 84.5891Z" fill="#FFB0B1"/>
<path opacity="0.1" d="M286.863 79.8274C286.565 81.3965 285.842 82.8585 284.769 84.0605C283.696 85.2625 282.313 86.1605 280.765 86.6606C280.521 85.2901 280.184 83.9371 279.755 82.6105C279.755 82.6105 285.728 75.0598 285.82 76.588C285.842 77.1674 286.308 78.4524 286.863 79.8274Z" fill="black"/>
<path opacity="0.1" d="M280.17 88.6782L280.943 87.6124C280.943 87.6124 281.455 90.6687 283.339 89.3207C285.222 87.9726 285.314 99.4653 285.314 99.4653L283.292 129.047L268.684 128.191L269.098 113.897L270.752 106.692L274.841 96.2169L277.274 92.7553L280.17 88.6782Z" fill="black"/>
<path d="M285.314 99.6485L283.473 126.396L283.28 129.23L275.135 128.753L274.829 128.735L268.693 128.374L269.107 114.077L270.761 106.872L274.85 96.397L277.283 92.9354L280.179 88.8433L280.952 87.7805C280.952 87.7805 281.464 90.8368 283.348 89.4888L283.388 89.4618C285.228 88.3209 285.314 99.6485 285.314 99.6485Z" fill="#1D2366"/>
<path d="M270.966 104.368C270.966 104.368 270.233 105.869 268.76 105.626C267.288 105.383 267.291 111.03 267.291 111.03C267.291 111.03 266.312 111.931 265.638 111.15C264.963 110.37 263.183 113.009 263.183 113.009L252.035 113.489C252.035 113.489 256.996 115.708 256.023 122.421C256.023 122.421 272.865 121.4 273.417 119.842C273.97 118.284 270.966 104.368 270.966 104.368Z" fill="white"/>
<path opacity="0.03" d="M270.966 104.368C270.966 104.368 270.233 105.869 268.76 105.626C267.288 105.383 267.291 111.03 267.291 111.03C267.291 111.03 266.312 111.931 265.638 111.15C264.963 110.37 263.183 113.009 263.183 113.009L252.035 113.489C252.035 113.489 256.996 115.708 256.023 122.421C256.023 122.421 272.865 121.4 273.417 119.842C273.97 118.284 270.966 104.368 270.966 104.368Z" fill="black"/>
<path d="M238.568 117.017L241.507 119.472L265.699 124.447L262.699 121.451L238.568 117.017Z" fill="white"/>
<path d="M280.216 89.6239C279.814 90.2244 278.663 93.2987 277.703 95.9827C276.902 98.2194 276.234 100.186 276.234 100.186C276.234 100.186 274.672 110.135 273.874 111.934C273.077 113.732 273.509 120.745 273.509 120.745L270.537 138.066C270.537 138.066 269.19 146.997 267.11 152.332C265.058 157.583 262.772 160.045 262.702 160.123C263.622 158.904 268.638 134.904 268.638 134.904L270.294 104.635C270.294 104.635 270.537 101.759 270.782 99.3002C271.028 96.8414 275.997 93.4848 275.997 93.4848L280.789 86.8168C281.271 87.4472 280.949 88.5461 280.216 89.6239Z" fill="white"/>
<path d="M267.721 128.524C267.721 128.524 260.665 128.224 257.247 124.207C253.83 120.19 265.147 122.604 265.147 122.604L268.089 123.264L267.721 128.524Z" fill="#FFB0B1"/>
<path opacity="0.1" d="M300.671 174.498C300.294 175.806 300.233 177.183 300.493 178.518C292.796 179.053 284.563 177.017 284.563 177.017C283.029 178.398 278.988 180.434 278.988 180.434L276.786 153.713C275.378 150.111 274.826 131.235 274.826 131.235C274.826 131.235 274.951 130.248 275.132 128.767C275.132 128.731 275.132 128.692 275.148 128.656C275.697 124.522 276.786 116.761 277.32 115.714C278.056 114.273 275.056 110.439 275.056 110.439L276.421 99.045L276.586 97.6699C279.464 96.412 281.67 92.3949 281.67 92.3949L283.363 89.4917C285.204 88.3359 285.299 99.6634 285.299 99.6634L283.458 126.411L289.557 124.762C289.557 124.762 301.711 171.082 300.671 174.498Z" fill="black"/>
<path d="M308.571 176.345C300.181 180.422 284.931 176.645 284.931 176.645C283.397 178.026 279.357 180.061 279.357 180.061L277.151 153.341C275.746 149.738 275.194 130.863 275.194 130.863C275.194 130.863 276.967 116.779 277.703 115.341C277.918 114.921 277.813 114.297 277.559 113.624C276.307 110.423 275.847 106.978 276.215 103.569L276.804 98.6727L276.967 97.3007C279.847 96.0397 282.053 92.0227 282.053 92.0227L283.587 89.3927L286.409 84.547L287.747 82.2533L287.974 82.4544L289.707 83.9916C289.707 83.9916 290.443 84.5921 291.548 85.4928C293.95 87.4743 298.101 90.9629 300.242 93.0975C302.125 94.9769 302.721 102.287 302.892 107.791C303.006 111.414 302.938 114.255 302.938 114.255C301.04 117.314 306.006 141.875 306.006 141.875C307.163 146.622 308.571 176.345 308.571 176.345Z" fill="white"/>
<path opacity="0.03" d="M292.465 91.9626C292.465 91.9626 286.707 102.69 287.376 106.767C288.044 110.844 289.946 115.458 289.029 116.536C288.714 116.945 288.307 117.276 287.839 117.505C287.371 117.733 286.856 117.853 286.333 117.854C285.412 117.914 282.958 119.593 282.958 119.773C282.958 119.953 280.691 119.953 278.663 120.793C276.635 121.634 273.641 122.111 273.641 122.111C273.641 122.111 267.813 121.931 267.27 122.472C266.727 123.012 266.168 126.246 267.331 128.825C268.494 131.404 269.785 133.328 270.761 133.679C271.736 134.031 277.927 132.001 282.949 131.521C287.971 131.04 293.422 127.146 293.422 127.146C293.422 127.146 299.426 125.045 300.478 121.511C301.53 117.977 299.193 98.5556 299.193 98.5556C299.193 98.5556 297.426 89.5038 292.465 91.9626Z" fill="black"/>
<path opacity="0.03" d="M291.729 91.062C291.729 91.062 285.971 101.792 286.646 105.866C287.321 109.94 289.216 114.558 288.296 115.639C287.982 116.047 287.575 116.379 287.108 116.608C286.64 116.837 286.125 116.956 285.603 116.957C284.682 117.017 282.228 118.695 282.228 118.875C282.228 119.055 279.961 119.055 277.933 119.893C275.905 120.73 272.911 121.211 272.911 121.211C272.911 121.211 267.082 121.031 266.543 121.571C266.003 122.111 265.438 125.348 266.604 127.924C267.77 130.5 269.058 132.427 270.034 132.779C271.009 133.13 277.2 131.1 282.222 130.623C287.244 130.146 292.695 126.246 292.695 126.246C292.695 126.246 298.696 124.144 299.736 120.613C300.776 117.083 298.45 97.655 298.45 97.655C298.45 97.655 296.689 88.6061 291.729 91.062Z" fill="black"/>
<path d="M292.284 91.4222C292.284 91.4222 286.526 102.152 287.201 106.226C287.876 110.301 289.772 114.918 288.854 115.996C288.54 116.406 288.133 116.738 287.665 116.968C287.197 117.197 286.681 117.316 286.158 117.317C285.237 117.377 282.783 119.055 282.783 119.232C282.783 119.409 280.519 119.412 278.488 120.253C276.458 121.094 273.466 121.571 273.466 121.571C273.466 121.571 267.638 121.391 267.095 121.931C266.552 122.472 265.993 125.708 267.156 128.284C268.319 130.86 269.61 132.788 270.586 133.139C271.561 133.49 277.752 131.461 282.774 130.98C287.796 130.5 293.247 126.606 293.247 126.606C293.247 126.606 299.251 124.504 300.303 120.971C301.355 117.437 299.033 98.0152 299.033 98.0152C299.033 98.0152 297.242 88.9784 292.284 91.4222Z" fill="white"/>
<path opacity="0.1" d="M292.158 120.202C292.158 120.202 287.557 119.301 289.158 120.803C290.759 122.304 290.75 123.619 292.711 123.559C294.671 123.499 292.158 120.202 292.158 120.202Z" fill="black"/>
<path opacity="0.1" d="M299.935 152.5C299.935 152.5 297.855 153.879 301.834 157.055C305.813 160.231 299.935 152.5 299.935 152.5Z" fill="black"/>
<path opacity="0.1" d="M295.965 163.828C295.965 164.008 295.229 170.433 297.984 172.039C300.739 173.646 295.965 163.828 295.965 163.828Z" fill="black"/>
<path d="M252.225 113.474C250.004 113.549 245.206 114.213 247.694 118.755C249.894 122.775 253.59 120.088 255.67 118.049C255.163 116.149 253.93 114.511 252.225 113.474Z" fill="#FFB0B1"/>
<path d="M255.698 118.015L255.792 117.92L255.698 118.015Z" fill="#FFB0B1"/>
<path opacity="0.1" d="M291.548 85.6759C289.192 87.2521 287.216 88.5821 286.83 88.8583C285.774 89.6239 283.762 94.1183 282.464 96.412C281.43 98.2584 278.071 98.7328 276.804 98.8498L276.967 97.4778C279.847 96.2169 282.053 92.1998 282.053 92.1998L287.747 82.4304L289.707 84.1747C289.707 84.1747 290.443 84.7752 291.548 85.6759Z" fill="black"/>
<path d="M291.548 85.4958C289.192 87.072 287.216 88.402 286.83 88.6812C285.774 89.4438 283.762 93.9382 282.464 96.2319C281.43 98.0783 278.071 98.5527 276.804 98.6697L276.967 97.2977C279.847 96.0367 282.053 92.0197 282.053 92.0197L287.747 82.2503L289.707 83.9886C289.707 83.9886 290.443 84.5831 291.548 85.4958Z" fill="#DCE7FF"/>
<path d="M287.014 77.846C287.015 79.6482 286.457 81.4083 285.412 82.8928C284.179 84.648 282.344 85.9125 280.24 86.4567C278.135 87.0009 275.901 86.7889 273.943 85.8591C271.985 84.9293 270.432 83.3432 269.566 81.3888C268.701 79.4344 268.58 77.241 269.225 75.2067C269.871 73.1724 271.24 71.432 273.084 70.3012C274.929 69.1703 277.127 68.7241 279.279 69.0434C281.431 69.3627 283.394 70.4263 284.814 72.0414C286.233 73.6564 287.013 75.7158 287.014 77.846Z" fill="#FFB0B1"/>
<path opacity="0.1" d="M302.892 107.794C301.647 107.044 300.632 105.977 299.957 104.707C299.444 103.717 299.104 102.573 298.229 101.87C297.441 101.24 296.389 101.087 295.407 100.804C292.18 99.8706 289.474 96.9884 289.373 93.6979C289.324 92.1488 289.818 90.6026 289.594 89.0684C289.466 88.2002 289.114 87.3784 288.569 86.6816C288.299 86.3484 288.002 86.0362 287.682 85.7479C287.253 85.3516 286.802 84.9673 286.409 84.547C286.162 84.2868 285.946 83.9997 285.765 83.6914C285.619 83.4391 285.501 83.1724 285.412 82.8958C284.799 81.0584 285.357 78.8787 284.682 77.0203L284.645 76.9182C284.391 76.2577 283.872 75.5972 283.151 75.5462C282.43 75.4952 281.814 76.0806 281.127 76.3418C279.688 76.8882 278.136 75.9575 276.936 75.0088C275.737 74.0601 274.384 72.9762 272.859 73.1864C271.85 73.3275 271.052 74 270.123 74.3483C269.913 74.4278 269.696 74.4891 269.475 74.5314C270.262 72.6115 271.707 71.0196 273.563 70.0293C275.419 69.0389 277.569 68.7119 279.644 69.1045C281.719 69.497 283.59 70.5846 284.935 72.1803C286.28 73.7761 287.015 75.7804 287.014 77.8489C287.015 78.4736 286.948 79.0965 286.814 79.7073C286.83 79.7494 286.845 79.7884 286.863 79.8304C287.219 80.7311 287.621 81.6558 287.974 82.4544L289.707 83.9916C289.707 83.9916 290.443 84.592 291.548 85.4927C293.95 87.4742 298.101 90.9629 300.242 93.0975C302.125 94.9829 302.714 102.29 302.892 107.794Z" fill="black"/>
<path d="M270.015 68.8631C270.454 67.9895 270.672 67.0107 271.196 66.1821C271.966 64.9812 273.31 64.2126 274.691 63.7473C278.295 62.5313 285.912 60.766 288.189 63.7473C288.637 64.3477 289.008 65.0142 289.627 65.4285C290.1 65.7438 290.67 65.8789 291.189 66.1161C292.64 66.7826 293.566 68.2357 294.06 69.7188C294.554 71.2019 294.702 72.7931 295.064 74.3213C295.527 76.2818 296.34 78.1402 297.15 79.9866C298.104 82.1662 299.116 84.4269 300.957 85.9671C303.469 88.0687 304.024 91.0439 306.356 93.3497C309.117 96.0878 309.028 100.606 307.605 104.194C307.417 104.665 307.206 105.158 307.279 105.659C307.353 106.16 307.733 106.617 308.092 107.016L309.602 108.682C306.031 109.526 301.991 107.701 300.328 104.497C299.815 103.506 299.475 102.366 298.598 101.66C297.812 101.029 296.757 100.879 295.778 100.597C292.551 99.6605 289.845 96.7753 289.744 93.4848C289.695 91.9386 290.189 90.3924 289.965 88.8613C289.84 87.9872 289.486 87.1596 288.937 86.4595C288.094 85.3816 286.82 84.6581 286.133 83.4572C284.971 81.4487 285.854 78.8397 285.017 76.6841C284.759 76.0236 284.244 75.3631 283.523 75.312C282.802 75.261 282.185 75.8464 281.495 76.1076C280.059 76.654 278.507 75.7263 277.307 74.7746C276.108 73.8229 274.755 72.7421 273.227 72.9552C272.218 73.0933 271.423 73.7658 270.494 74.1171C269.807 74.3753 268.414 74.6065 267.813 74.0391C266.543 72.8952 269.485 69.9319 270.015 68.8631Z" fill="#591D4B"/>
<path opacity="0.1" d="M301.181 103.506C300.665 102.516 300.328 101.375 299.45 100.672C298.665 100.042 297.61 99.8887 296.628 99.6065C293.404 98.6728 290.698 95.7876 290.594 92.4971C290.545 90.9509 291.039 89.4018 290.818 87.8706C290.689 87.0021 290.335 86.1804 289.79 85.4838C288.943 84.406 287.67 83.6824 286.986 82.4815C285.823 80.476 286.707 77.867 285.866 75.7084C285.612 75.0509 285.093 74.3904 284.375 74.3363C283.658 74.2823 283.035 74.8738 282.348 75.135C280.912 75.6814 279.357 74.7507 278.16 73.8019C276.964 72.8532 275.605 71.7694 274.08 71.9796C273.071 72.1207 272.273 72.7932 271.347 73.1414C270.659 73.3996 269.264 73.6338 268.662 73.0664C267.398 71.8655 270.34 68.9082 270.868 67.8454C271.307 66.9688 271.525 65.993 272.052 65.1644C272.08 65.1194 272.111 65.0743 272.141 65.0293C271.747 65.3493 271.406 65.7282 271.132 66.1521C270.607 66.9808 270.39 67.9535 269.951 68.8332C269.42 69.896 266.478 72.8622 267.745 74.0541C268.359 74.6246 269.739 74.3904 270.426 74.1322C271.347 73.7809 272.15 73.1084 273.16 72.9703C274.694 72.7571 276.043 73.841 277.24 74.7897C278.436 75.7384 280.001 76.6691 281.43 76.1227C282.118 75.8615 282.719 75.2731 283.455 75.3271C284.191 75.3811 284.682 76.0386 284.949 76.6991C285.787 78.8548 284.903 81.4637 286.066 83.4723C286.753 84.6522 288.026 85.3907 288.87 86.4745C289.419 87.1747 289.773 88.0023 289.897 88.8764C290.121 90.4075 289.627 91.9537 289.677 93.4999C289.778 96.8024 292.484 99.6755 295.711 100.612C296.683 100.894 297.745 101.045 298.53 101.675C299.411 102.381 299.757 103.521 300.26 104.512C301.923 107.716 305.963 109.541 309.534 108.697L308.822 107.911C305.727 107.956 302.595 106.233 301.181 103.506Z" fill="black"/>
<path opacity="0.1" d="M280.031 89.804C279.63 90.4045 278.479 93.4788 277.519 96.1628C276.62 95.8206 275.804 93.6379 275.804 93.6379L280.596 86.9669C281.087 87.6274 280.765 88.7232 280.031 89.804Z" fill="black"/>
<path d="M280.215 89.6239C279.814 90.2243 278.663 93.2987 277.703 95.9827C276.804 95.6434 275.988 93.4578 275.988 93.4578L280.78 86.7897C281.271 87.4472 280.949 88.5461 280.215 89.6239Z" fill="#DCE7FF"/>
<path d="M252.354 120.295L249.697 112.096C249.666 112 249.654 111.899 249.663 111.798C249.671 111.698 249.7 111.6 249.748 111.511C249.795 111.421 249.86 111.341 249.939 111.277C250.017 111.212 250.108 111.163 250.207 111.132C250.404 111.072 250.618 111.09 250.802 111.184C250.986 111.277 251.125 111.438 251.188 111.631L253.845 119.821L253.581 121.535L252.354 120.295Z" fill="#BE8B87"/>
<path opacity="0.1" d="M249.949 111.375C250.147 111.314 250.362 111.332 250.547 111.425C250.731 111.519 250.87 111.68 250.934 111.874L253.59 120.064L253.391 121.349L253.584 121.547L253.848 119.833L251.176 111.643C251.113 111.45 250.974 111.289 250.79 111.196C250.606 111.102 250.392 111.084 250.194 111.144C250.028 111.197 249.884 111.303 249.786 111.444C249.839 111.417 249.893 111.394 249.949 111.375Z" fill="white"/>
<path d="M252.354 120.295L253.845 119.833L253.627 121.238L253.581 121.547L253.146 121.103L252.354 120.295Z" fill="#EFC8C4"/>
<path d="M253.146 121.103C253.172 121.071 253.204 121.044 253.241 121.025C253.262 121.011 253.287 121.004 253.313 121.004C253.338 121.004 253.363 121.011 253.385 121.025C253.406 121.049 253.423 121.077 253.437 121.106C253.457 121.139 253.485 121.167 253.518 121.188C253.551 121.21 253.588 121.224 253.627 121.229L253.581 121.529L253.146 121.103Z" fill="#727A9C"/>
<path d="M249.682 115.008C249.682 115.008 255.011 114.978 253.756 117.197C252.501 119.415 250.541 119.683 250.541 119.683L249.682 115.008Z" fill="#FFB0B1"/>
<path d="M216.541 15.4377H216.311C207.157 15.4377 199.061 20.1783 194.404 27.1736C189.747 20.1783 181.651 15.4377 172.497 15.4377H172.267C165.397 15.5018 158.831 18.2166 153.994 22.9922C149.158 27.7679 146.443 34.2184 146.44 40.942C146.44 49.2913 150.176 61.1383 157.462 70.8867C171.344 89.4617 194.404 105.713 194.404 105.713C194.404 105.713 217.464 89.4648 231.343 70.8867C238.632 61.1383 242.365 49.2913 242.365 40.942C242.362 34.2189 239.647 27.7688 234.812 22.9933C229.976 18.2177 223.41 15.5025 216.541 15.4377ZM213.249 72.3158C212.207 72.3119 211.19 71.9996 210.332 71.4198C209.474 70.8401 208.815 70.02 208.442 69.0673H202.969C202.609 69.0651 202.258 68.9528 201.966 68.7461C201.674 68.5395 201.455 68.2487 201.34 67.9144L199.659 62.9577L194.34 81.1485C194.236 81.4986 194.019 81.8065 193.722 82.0257C193.424 82.245 193.062 82.3638 192.689 82.3644H192.582C192.193 82.346 191.823 82.1976 191.532 81.9441C191.242 81.6905 191.049 81.3472 190.987 80.9713L185.505 48.7029L181.498 67.7973C181.406 68.1601 181.193 68.4822 180.892 68.7124C180.591 68.9426 180.22 69.0675 179.838 69.0673H172.129C171.898 69.0769 171.667 69.0406 171.451 68.9606C171.234 68.8807 171.037 68.7587 170.87 68.6021C170.703 68.4454 170.57 68.2574 170.479 68.0491C170.388 67.8409 170.342 67.6169 170.342 67.3905C170.342 67.1642 170.388 66.9401 170.479 66.7319C170.57 66.5237 170.703 66.3356 170.87 66.179C171.037 66.0223 171.234 65.9004 171.451 65.8204C171.667 65.7405 171.898 65.7042 172.129 65.7138H178.489L184.164 40.0413C184.257 39.6618 184.482 39.3257 184.8 39.0905C185.119 38.8553 185.511 38.7356 185.909 38.7519C186.308 38.7682 186.688 38.9195 186.985 39.1799C187.282 39.4403 187.478 39.7936 187.538 40.1794L193.137 73.0964L197.904 56.821C198.004 56.4783 198.214 56.1761 198.503 55.9597C198.792 55.7432 199.145 55.6241 199.509 55.6201H199.543C199.903 55.6202 200.254 55.7317 200.546 55.9388C200.838 56.1458 201.056 56.4377 201.169 56.773L204.209 65.7228H208.375C208.671 64.8421 209.21 64.0586 209.932 63.4588C210.655 62.8591 211.533 62.4663 212.469 62.3239C213.405 62.1814 214.363 62.2949 215.237 62.6518C216.112 63.0086 216.868 63.595 217.424 64.3461C217.979 65.0972 218.312 65.9839 218.385 66.9083C218.458 67.8327 218.268 68.7589 217.837 69.5846C217.407 70.4103 216.751 71.1034 215.943 71.5875C215.135 72.0716 214.206 72.3278 213.259 72.3278L213.249 72.3158Z" fill="#07B3D6"/>
</g>

</svg>
