<svg width="183" height="188" viewBox="0 0 183 188" fill="none" xmlns="http://www.w3.org/2000/svg">
<g clip-path="url(#clip0)">
<path opacity="0.1" d="M22.5802 32.9467H52.5651V73.8267H24.7726C24.7017 74.2493 24.6308 74.669 24.551 75.0916H52.5651V108.054C52.5178 108.054 52.4705 108.019 52.4262 108.001C51.6382 107.688 50.8503 107.356 50.0624 107.005C49.894 106.928 49.7285 106.849 49.5571 106.775C48.7692 106.402 47.9812 106.008 47.1933 105.593C46.9185 105.448 46.6437 105.297 46.3748 105.144C42.0005 102.702 38.0248 99.6069 34.5854 95.9645C34.482 95.867 34.3874 95.7606 34.2899 95.669C33.8112 95.1489 33.3414 94.6228 32.8864 94.085C32.715 93.887 32.5496 93.686 32.3811 93.4939C31.8434 92.8379 31.3233 92.1581 30.821 91.4755C30.7442 91.372 30.6733 91.2716 30.5994 91.18C28.5417 88.3321 26.8353 85.2461 25.5172 81.9891C25.4759 81.8916 25.4375 81.7852 25.3991 81.6936C24.9913 80.6593 24.6219 79.6101 24.3028 78.5403C24.1669 78.0941 24.034 77.6538 23.9217 77.1898C23.8803 77.0568 23.8478 76.9209 23.8123 76.7879C22.1518 70.242 21.9597 63.439 21.9597 56.6685C21.9597 55.8804 21.9597 55.0924 21.9597 54.3043C21.9834 51.5402 22.0159 48.779 22.0572 46.0207C22.073 45.3115 22.0878 44.5992 22.1015 43.8841C22.1429 42.0735 22.202 40.259 22.2788 38.4405C22.2966 37.9381 22.3202 37.4328 22.3468 36.9333C22.3586 36.6437 22.3734 36.3541 22.3911 36.0645C22.4443 35.0183 22.5073 33.9791 22.5802 32.9467Z" fill="#16697A"/>
<path opacity="0.1" d="M52.5651 -11.3112V31.6819H22.6748C22.6748 31.5577 22.6925 31.4306 22.7043 31.3065C22.7309 30.9667 22.7575 30.6298 22.7871 30.2899C22.8166 29.8939 22.855 29.4979 22.8934 29.1078C22.9318 28.7177 22.9702 28.2449 23.0175 27.8164C23.0648 27.3879 23.1032 26.9534 23.1505 26.5249C23.1978 26.0964 23.245 25.6679 23.2982 25.2424C23.3514 24.8168 23.3987 24.3853 23.4578 23.9598C23.5021 23.6081 23.5464 23.2535 23.5967 22.8988C23.6646 22.3994 23.7355 21.9 23.8094 21.4035C23.8094 21.3266 23.833 21.2528 23.8449 21.1789C24.3849 17.5447 25.1187 13.9421 26.0432 10.3863C27.014 6.65682 28.2533 3.00246 29.7514 -0.548153C31.3432 -4.26841 33.2079 -7.86588 35.33 -11.3112H52.5651Z" fill="#16697A"/>
<path opacity="0.1" d="M59.7274 32.9467V73.8267H123.775V32.9467H59.7274ZM59.7274 75.0916V110.2C60.0938 110.274 60.4543 110.348 60.8177 110.41C61.3053 110.504 61.7957 110.59 62.2951 110.664L62.5906 110.705C62.7856 110.738 62.9836 110.764 63.1815 110.788C63.675 110.859 64.1684 110.912 64.6589 110.959C64.8894 110.983 65.1287 111.001 65.3621 111.022L65.9324 111.063C66.2426 111.087 66.5499 111.104 66.8572 111.116C67.0463 111.116 67.2354 111.131 67.4275 111.137C67.6196 111.143 67.723 111.137 67.8766 111.137H68.4351C68.6892 111.137 68.9433 111.137 69.1945 111.137H69.5195C69.7736 111.137 70.0277 111.137 70.2788 111.113H70.2936C70.4709 111.113 70.6452 111.113 70.8225 111.092C70.8727 111.095 70.923 111.095 70.9732 111.092C71.1209 111.092 71.2687 111.092 71.4105 111.075C71.4439 111.072 71.4775 111.072 71.511 111.075C71.839 111.054 72.1699 111.027 72.5038 110.998C72.8377 110.968 73.1538 110.933 73.4877 110.897L74.1584 110.815C76.8993 110.431 79.6096 109.854 82.2692 109.089C88.2467 107.422 94.0882 105.09 100.063 103.385C107.781 101.184 116.314 100.099 123.772 102.779V75.0916H59.7274ZM123.775 -12.5701V-66.9941C116.763 -67.0712 109.771 -66.2519 102.967 -64.556C86.7486 -60.4807 72.1847 -51.6415 59.7274 -40.3525V-12.5731H62.9511V-11.3112H59.7274V31.6819H123.775V-11.3112H76.1381V-12.576L123.775 -12.5701ZM206.059 -30.9548C202.046 -31.0966 198.057 -32.3644 194.446 -34.3296C187.55 -38.0799 182.036 -43.8781 175.879 -48.7661C163.085 -58.9528 147.218 -65.1027 130.94 -66.6276V-12.5701H222.363L222.59 -12.8095L206.059 -30.9548ZM214.388 -32.4324L223.22 -22.7362V-34.9828C220.247 -34.6074 217.659 -33.7356 214.388 -32.4442V-32.4324ZM223.22 118.918V75.0916H204.386C204.339 74.9054 204.286 74.7163 204.227 74.5271C204.283 74.7163 204.333 74.9054 204.383 75.0916H130.94V106.784C131.637 107.301 132.326 107.848 133.008 108.397C133.745 109 134.477 109.61 135.204 110.227L135.936 110.832C136.288 111.128 136.646 111.423 137 111.704C137.711 112.278 138.427 112.845 139.148 113.406C139.509 113.69 139.871 113.969 140.236 114.243C146.007 118.654 152.094 122.636 158.449 126.155C159.873 126.95 161.312 127.716 162.76 128.463C163.723 128.96 164.693 129.447 165.67 129.923C167.136 130.639 168.613 131.328 170.102 131.992C183.832 138.156 198.35 142.385 213.242 144.558C216.547 145.044 219.867 145.429 223.202 145.71V118.912H223.498L223.22 118.918ZM130.94 -11.3112V31.6819H223.22V-11.3112H130.94ZM130.94 32.9408V73.8267H223.22V32.9467L130.94 32.9408ZM230.382 -35.0419V-21.359L241.652 -33.7327C237.917 -34.3493 234.16 -34.7857 230.382 -35.0419ZM230.382 32.9467V73.8267H320.133V32.9467H230.382ZM319.817 122.16L320.133 75.0916H230.382V146.186C236.163 146.427 241.953 146.357 247.727 145.976H247.827C250.585 145.799 253.33 145.547 256.062 145.22H256.124C270.704 143.522 284.96 139.714 298.445 133.913L319.817 122.16ZM337.448 39.661C337.107 38.873 336.757 38.0849 336.399 37.2968C335.731 35.8192 335.028 34.383 334.301 32.9497H327.298V73.8267H345C344.985 62.248 342.054 50.427 337.448 39.661ZM327.298 75.0916V115.579C332.283 110.8 336.499 105.33 339.531 99.0764C343.18 91.5435 344.849 83.3929 344.988 75.0886L327.298 75.0916ZM327.298 21.0341V31.673H333.645C331.721 28.0158 329.602 24.4644 327.298 21.0341ZM266.43 -27.0183C265.963 -27.1986 265.494 -27.3789 265.024 -27.5503C260.07 -29.3813 255.008 -30.9033 249.866 -32.1073L232.616 -13.1759L232.279 -12.8124L232.501 -12.5731H293.895C285.344 -18.4581 276.124 -23.3071 266.43 -27.0183ZM295.697 -11.3112H231.641L230.382 -10.1616V31.6819H241.418H320.133V11.4088C313.015 2.79999 304.8 -4.83842 295.697 -11.3112Z" fill="#16697A"/>
<path opacity="0.1" d="M52.5651 10.3774V31.6818H22.6748C22.6748 31.5577 22.6925 31.4306 22.7043 31.3065C22.7309 30.9667 22.7575 30.6298 22.7871 30.2899C22.8166 29.8939 22.855 29.4979 22.8934 29.1078C22.9318 28.7177 22.9702 28.2449 23.0175 27.8164C23.0648 27.3878 23.1032 26.9534 23.1505 26.5249C23.1978 26.0964 23.245 25.6679 23.2982 25.2423C23.3514 24.8168 23.3987 24.3853 23.4578 23.9598C23.5021 23.6081 23.5464 23.2535 23.5967 22.8988C23.6646 22.3994 23.7355 21.8999 23.8094 21.4035C23.8094 21.3266 23.833 21.2527 23.8449 21.1789C24.3849 17.5447 25.1187 13.9421 26.0432 10.3863L52.5651 10.3774Z" fill="#16697A"/>
<path opacity="0.1" d="M22.5802 32.9467H52.5651V73.8267H24.7726C24.7017 74.2493 24.6308 74.669 24.551 75.0916H52.5651V108.054C52.5178 108.054 52.4705 108.019 52.4262 108.001C51.6382 107.688 50.8503 107.356 50.0624 107.005C49.894 106.928 49.7285 106.849 49.5571 106.775C48.7692 106.402 47.9812 106.008 47.1933 105.593C46.9185 105.448 46.6437 105.297 46.3748 105.144C42.0005 102.702 38.0248 99.6069 34.5854 95.9645C34.482 95.867 34.3874 95.7606 34.2899 95.669C33.8112 95.1489 33.3414 94.6228 32.8864 94.085C32.715 93.887 32.5496 93.686 32.3811 93.4939C31.8434 92.8379 31.3233 92.1581 30.821 91.4755C30.7442 91.372 30.6733 91.2716 30.5994 91.18C28.5417 88.3321 26.8353 85.2461 25.5172 81.9891C25.4759 81.8916 25.4375 81.7852 25.3991 81.6936C24.9913 80.6593 24.6219 79.6101 24.3028 78.5403C24.1669 78.0941 24.034 77.6538 23.9217 77.1898C23.8803 77.0568 23.8478 76.9209 23.8123 76.7879C22.1518 70.242 21.9597 63.439 21.9597 56.6685C21.9597 55.8804 21.9597 55.0924 21.9597 54.3043C21.9834 51.5402 22.0159 48.779 22.0572 46.0207C22.073 45.3115 22.0878 44.5992 22.1015 43.8841C22.1429 42.0735 22.202 40.259 22.2788 38.4405C22.2966 37.9381 22.3202 37.4328 22.3468 36.9333C22.3586 36.6437 22.3734 36.3541 22.3911 36.0645C22.4443 35.0183 22.5073 33.9791 22.5802 32.9467Z" fill="#16697A"/>
<path opacity="0.1" d="M82.2722 -5.15246V31.6818H59.7244V-5.15246H62.9392V-17.6236H76.1351V-5.15246H82.2722Z" fill="#16697A"/>
<path opacity="0.1" d="M82.2692 32.9437H59.7244V73.8238H82.2692V32.9437Z" fill="#16697A"/>
<path opacity="0.1" d="M59.7274 75.0916H82.2722V109.077C79.6128 109.843 76.9024 110.419 74.1614 110.8C73.9368 110.832 73.7152 110.859 73.4907 110.883C73.1597 110.921 72.8317 110.957 72.5038 110.986L71.5139 111.066H71.4135L70.9762 111.09H70.8255C70.6482 111.09 70.4739 111.11 70.2966 111.113H70.2818C70.0277 111.113 69.7765 111.131 69.5224 111.137H69.1974C68.9462 111.137 68.6951 111.137 68.438 111.137H67.8825H67.4305C67.2384 111.137 67.0493 111.137 66.8572 111.113C66.5539 111.101 66.2466 111.084 65.9354 111.06L65.3651 111.019C65.1287 111.001 64.8923 110.977 64.6589 110.954C64.1625 110.91 63.67 110.854 63.1815 110.785L62.5906 110.702L62.2951 110.661C61.8017 110.587 61.3112 110.504 60.8177 110.41C60.4513 110.345 60.0909 110.271 59.7274 110.194V75.0916Z" fill="#16697A"/>
<path opacity="0.1" d="M223.22 32.9437V73.8267H130.94V56.1927H180.092V66.5952H204.626V32.9437H223.22Z" fill="#16697A"/>
<path opacity="0.1" d="M223.512 118.927C223.415 118.927 223.317 118.927 223.217 118.909V145.728C219.886 145.454 216.567 145.071 213.259 144.578C198.362 142.406 183.839 138.18 170.102 132.019C166.137 130.23 162.252 128.28 158.449 126.17C152.096 122.649 146.01 118.667 140.238 114.258C138.785 113.146 137.353 112.011 135.942 110.85C134.964 110.04 133.995 109.213 133.008 108.412C132.329 107.859 131.64 107.313 130.94 106.793V75.0916H204.383C204.33 74.9024 204.283 74.7162 204.23 74.5271C204.286 74.7162 204.339 74.9024 204.386 75.0916H223.22V118.906C223.317 118.909 223.415 118.918 223.512 118.927Z" fill="#16697A"/>
<path opacity="0.1" d="M173.627 72.8781H130.94V73.8267H173.627V72.8781Z" fill="#16697A"/>
<path opacity="0.1" d="M173.627 75.0886H130.94V78.7236H173.627V75.0886Z" fill="#16697A"/>
<path opacity="0.1" d="M173.627 90.6392H130.94V96.4847H173.627V90.6392Z" fill="#16697A"/>
<path opacity="0.1" d="M173.627 108.4V114.246H140.239C138.785 113.138 137.353 112.002 135.942 110.835C134.961 110.029 133.992 109.201 133.008 108.4H173.627Z" fill="#16697A"/>
<path opacity="0.1" d="M173.627 126.158V132.019H170.102C166.137 130.23 162.252 128.28 158.449 126.17L173.627 126.158Z" fill="#16697A"/>
<path opacity="0.1" d="M74.1821 -2.25333H65.7787V6.15141H74.1821V-2.25333Z" fill="#16697A"/>
<path opacity="0.1" d="M74.1821 17.2691H65.7787V25.6738H74.1821V17.2691Z" fill="#16697A"/>
<path opacity="0.1" d="M74.1821 36.7915H65.7787V45.1962H74.1821V36.7915Z" fill="#16697A"/>
<path opacity="0.1" d="M74.1821 56.3109H65.7787V64.7157H74.1821V56.3109Z" fill="#16697A"/>
<path opacity="0.1" d="M74.1821 75.8334H65.7787V84.2381H74.1821V75.8334Z" fill="#16697A"/>
<path opacity="0.1" d="M74.1821 95.3557H65.7787V103.76H74.1821V95.3557Z" fill="#16697A"/>
<path opacity="0.1" d="M23.8094 21.17V25.9782H52.5651V21.17H23.8094ZM26.6726 25.6768H24.3088V21.4744H26.6726V25.6768ZM29.5357 25.6768H27.1719V21.4744H29.5357V25.6768ZM32.393 25.6768H30.0292V21.4744H32.393V25.6768ZM35.2561 25.6768H32.8923V21.4744H35.2561V25.6768ZM38.1163 25.6768H35.7525V21.4744H38.1163V25.6768ZM40.9795 25.6768H38.6157V21.4744H40.9795V25.6768ZM43.8426 25.6768H41.4788V21.4744H43.8426V25.6768ZM46.7028 25.6768H44.339V21.4744H46.7028V25.6768ZM49.563 25.6768H47.1992V21.4744H49.563V25.6768ZM52.4262 25.6768H50.0624V21.4744H52.4262V25.6768Z" fill="#16697A"/>
<path opacity="0.1" d="M23.8094 35.1661V39.9743H52.5651V35.1661H23.8094ZM26.6726 39.6728H24.3088V35.4705H26.6726V39.6728ZM29.5357 39.6728H27.1719V35.4705H29.5357V39.6728ZM32.393 39.6728H30.0292V35.4705H32.393V39.6728ZM35.2561 39.6728H32.8923V35.4705H35.2561V39.6728ZM38.1163 39.6728H35.7525V35.4705H38.1163V39.6728ZM40.9795 39.6728H38.6157V35.4705H40.9795V39.6728ZM43.8426 39.6728H41.4788V35.4705H43.8426V39.6728ZM46.7028 39.6728H44.339V35.4705H46.7028V39.6728ZM49.563 39.6728H47.1992V35.4705H49.563V39.6728ZM52.4262 39.6728H50.0624V35.4705H52.4262V39.6728Z" fill="#16697A"/>
<path opacity="0.1" d="M23.8094 49.1651V53.9704H52.5651V49.1651H23.8094ZM26.6726 53.666H24.3088V49.4636H26.6726V53.666ZM29.5357 53.666H27.1719V49.4636H29.5357V53.666ZM32.393 53.666H30.0292V49.4636H32.393V53.666ZM35.2561 53.666H32.8923V49.4636H35.2561V53.666ZM38.1163 53.666H35.7525V49.4636H38.1163V53.666ZM40.9795 53.666H38.6157V49.4636H40.9795V53.666ZM43.8426 53.666H41.4788V49.4636H43.8426V53.666ZM46.7028 53.666H44.339V49.4636H46.7028V53.666ZM49.563 53.666H47.1992V49.4636H49.563V53.666ZM52.4262 53.666H50.0624V49.4636H52.4262V53.666Z" fill="#16697A"/>
<path opacity="0.1" d="M23.8094 63.1612V67.9665H52.5651V63.1612H23.8094ZM26.6726 67.665H24.3088V63.4567H26.6726V67.665ZM29.5357 67.665H27.1719V63.4567H29.5357V67.665ZM32.393 67.665H30.0292V63.4567H32.393V67.665ZM35.2561 67.665H32.8923V63.4567H35.2561V67.665ZM38.1163 67.665H35.7525V63.4567H38.1163V67.665ZM40.9795 67.665H38.6157V63.4567H40.9795V67.665ZM43.8426 67.665H41.4788V63.4567H43.8426V67.665ZM46.7028 67.665H44.339V63.4567H46.7028V67.665ZM49.563 67.665H47.1992V63.4567H49.563V67.665ZM52.4262 67.665H50.0624V63.4567H52.4262V67.665Z" fill="#16697A"/>
<path opacity="0.1" d="M23.9483 77.1514C24.0606 77.6065 24.1935 78.0557 24.3294 78.5019V77.4558H26.6932V81.6552H25.4256C25.4611 81.7557 25.4995 81.8591 25.5409 81.9507H52.5769V77.1514H23.9483ZM29.5623 81.6552H27.1985V77.4558H29.5623V81.6552ZM32.4196 81.6552H30.0557V77.4558H32.4196V81.6552ZM35.2827 81.6552H32.9189V77.4558H35.2827V81.6552ZM38.1429 81.6552H35.7791V77.4558H38.1429V81.6552ZM41.0061 81.6552H38.6423V77.4558H41.0061V81.6552ZM43.8692 81.6552H41.5054V77.4558H43.8692V81.6552ZM46.7294 81.6552H44.3656V77.4558H46.7294V81.6552ZM49.5896 81.6552H47.2258V77.4558H49.5896V81.6552ZM52.4528 81.6552H50.089V77.4558H52.4528V81.6552Z" fill="#16697A"/>
<path opacity="0.1" d="M30.6083 91.1475C30.6851 91.242 30.756 91.3484 30.8299 91.443H32.393V93.4614L32.8982 94.0525V91.4312H35.262V95.669H34.2899C34.3845 95.7665 34.4761 95.87 34.5854 95.9645H52.5592V91.1475H30.6083ZM38.1311 95.669H35.7673V91.4489H38.1311V95.669ZM40.9943 95.669H38.6305V91.4489H40.9943V95.669ZM43.8574 95.669H41.4936V91.4489H43.8574V95.669ZM46.7176 95.669H44.3538V91.4489H46.7176V95.669ZM49.5778 95.669H47.214V91.4489H49.5778V95.669ZM52.441 95.669H50.0772V91.4489H52.441V95.669Z" fill="#16697A"/>
<path opacity="0.1" d="M46.3837 105.144C46.6556 105.297 46.9304 105.439 47.2052 105.59V105.442H49.569V106.775C49.7403 106.849 49.9028 106.929 50.0713 107.005V105.442H52.4351V108.001C52.48 108.022 52.5264 108.038 52.574 108.052V105.144H46.3837Z" fill="#16697A"/>
<path opacity="0.1" d="M223.217 118.906H223.512H223.217ZM204.227 74.5271C204.283 74.7162 204.333 74.9054 204.383 75.0915C204.339 74.9054 204.286 74.7162 204.227 74.5271ZM62.951 -12.5701V-11.3112H76.1499V-12.576L62.951 -12.5701ZM223.22 118.906H223.515H223.22ZM204.227 74.5271C204.283 74.7162 204.333 74.9054 204.383 75.0915C204.339 74.9054 204.286 74.7162 204.227 74.5271ZM223.217 118.906H223.512H223.217ZM204.227 74.5271C204.283 74.7162 204.333 74.9054 204.383 75.0915C204.339 74.9054 204.286 74.7162 204.227 74.5271Z" fill="#16697A"/>
<path opacity="0.1" d="M130 183.375C145.901 183.375 158.791 181.304 158.791 178.75C158.791 176.196 145.901 174.125 130 174.125C114.099 174.125 101.209 176.196 101.209 178.75C101.209 181.304 114.099 183.375 130 183.375Z" fill="#16697A"/>
<path d="M163.147 56.4557C163.14 56.4264 163.124 56.3997 163.102 56.3789C162.662 55.9445 157.048 48.0037 157.048 48.0037C157.048 48.0037 156.753 47.1171 156.274 45.9646C156.427 45.7659 156.543 45.5404 156.614 45.2997C156.64 45.1976 156.658 45.094 156.67 44.9894C156.67 44.9569 156.694 44.9303 156.702 44.8978C156.805 44.4969 156.795 44.0755 156.673 43.6802C156.64 43.7816 156.599 43.8804 156.552 43.9757C156.441 43.6315 156.292 43.3004 156.108 42.9887C155.364 41.7061 154.3 40.6245 153.517 39.3744C152.331 37.4321 151.86 35.1371 152.185 32.8846C152.185 32.9999 152.185 33.1181 152.185 33.2334C152.214 32.7866 152.273 32.3424 152.362 31.9035C152.485 31.404 152.65 30.9156 152.855 30.4436C153.559 28.833 154.696 27.4292 155.388 25.8127C155.62 25.2675 155.796 24.7001 155.913 24.1194C156.157 23.1494 156.246 22.147 156.176 21.1493C156.176 21.3857 156.138 21.6222 156.103 21.8556C156.028 19.4569 155.059 17.1727 153.387 15.4516C150.973 13.0253 147.507 12.0826 144.192 11.5861C142.799 11.4235 141.468 10.9156 140.321 10.1085C139.048 9.28398 137.402 9.08598 135.913 9.26625C134.201 9.45133 132.611 10.2378 131.424 11.4856C129.85 13.2174 129.167 15.6703 127.329 17.1302C126.215 18.0168 124.803 18.4305 123.506 19.0334C122.209 19.6362 120.982 20.511 120.566 21.8054C120.566 21.8054 120.566 21.7877 120.566 21.7788V21.8527L120.548 21.9C120.117 23.4308 120.95 24.9882 121.384 26.5161C121.836 28.0971 121.866 29.7668 121.889 31.4011C121.922 33.3989 121.952 35.3996 121.919 37.4003C121.904 38.1864 121.878 38.9813 121.819 39.7645C121.119 39.9759 120.44 40.2489 119.789 40.5801C119.127 41.0116 116.651 43.6861 116.651 43.6861L111.808 62.1919L111.873 62.2658L111.808 62.517L112.053 62.4608C112.739 63.1996 114.786 65.3038 116.996 66.6159L117.203 70.245C117.203 70.245 117.451 73.8858 120.799 75.3901C120.876 76.652 121.115 81.7764 120.007 83.8066C119.24 85.2898 118.879 86.9498 118.961 88.6178C118.961 88.6178 119.348 91.6972 118.908 93.3166C118.651 94.399 118.632 95.5242 118.852 96.6147C118.852 96.6147 118.852 96.9723 118.852 97.587C118.852 100.864 118.89 111.367 118.852 112.555C118.796 113.959 118.852 134.72 118.852 134.72C118.852 134.72 118.577 145.096 117.697 147.906C116.816 150.717 117.038 160.023 117.038 160.023C117.038 160.023 116.485 171.108 118.438 173.295C118.438 173.392 118.421 173.493 118.418 173.59C118.418 173.635 118.418 173.685 118.418 173.729C118.394 174.571 118.557 175.467 119.28 175.742C120.758 176.309 122.711 178.011 123.08 178.499C123.45 178.987 125.598 180.201 128.399 179.876C130.154 179.679 131.919 179.598 133.685 179.634C133.685 179.634 134.79 179.433 134.432 178.059C134.202 177.202 133.339 175.883 132.725 175.018C132.837 175.047 132.946 175.071 133.05 175.091L133.156 175.112H133.239C133.284 175.115 133.329 175.115 133.375 175.112H133.434C133.489 175.117 133.544 175.117 133.599 175.112C134.341 175.041 137.106 176.33 137.6 177.181C138.093 178.032 139.834 178.679 141.146 178.842C141.926 178.936 143.894 178.777 145.545 178.564C146.377 178.478 147.201 178.328 148.009 178.115C148.4 177.967 148.482 177.494 148.37 176.962C148.237 176.287 147.876 175.677 147.348 175.236C146.869 174.896 146.237 174.001 145.77 173.268L145.646 173.07C146.47 172.284 147.959 169.713 148.411 169.181C148.961 168.534 147.525 144.865 147.525 144.865V133L149.726 121.77L151.266 115.827L152.586 106.855C152.586 106.855 154.897 96.3753 154.185 95.3469C154.185 95.3262 153.594 84.5366 152.973 81.9448C152.705 80.7893 152.773 78.1887 152.932 75.659C153.099 75.4934 153.215 75.2838 153.267 75.0546C153.32 74.8255 153.306 74.5862 153.228 74.3646C153.183 74.2131 153.126 74.0657 153.056 73.9243C153.056 73.8799 153.056 73.8326 153.056 73.7883C154.333 73.2009 155.666 72.7473 157.036 72.4348C159.238 72.0033 158.688 70.8685 158.688 70.8685C158.688 70.8685 159.184 69.8962 159.512 69.3022C159.84 68.7082 159.568 63.4656 159.512 63.0341C159.492 62.8598 159.356 61.8964 159.199 60.8029C159.905 60.3005 160.824 59.677 161.826 59.0859C163.732 57.957 163.303 56.7661 163.147 56.4557ZM134.426 131.38C134.426 131.38 132.775 135.595 133.437 136.673C134.099 137.752 133.327 141.756 133.327 141.756L132.775 147.699C132.775 147.699 131.235 158.722 131.785 161.314C132.216 163.347 132.376 169.42 132.426 171.953C132.388 171.968 132.352 171.986 132.317 172.006L132.243 172.045C132.497 171.049 132.391 169.033 131.129 164.979L131.023 148.231C131.023 148.231 130.828 128.886 132.355 126.723C133.883 124.56 134.424 120.886 134.424 120.886C134.424 120.886 134.093 126.185 133.877 127.589C133.661 128.992 134.426 131.38 134.426 131.38ZM131.351 173.008C131.336 173.043 131.318 173.079 131.306 173.111L131.224 173.005C131.266 173.009 131.308 173.01 131.351 173.008Z" fill="url(#paint0_linear)"/>
<path d="M148.196 179.646C147.342 179.974 142.712 180.532 141.418 180.375C140.123 180.219 138.41 179.563 137.922 178.706C137.435 177.849 134.701 176.554 133.969 176.637C133.668 176.646 133.368 176.604 133.082 176.513C132.577 176.36 132.083 176.17 131.605 175.946C131.538 175.573 131.549 175.191 131.637 174.823C131.654 174.748 131.676 174.675 131.702 174.604C131.875 174.119 132.232 173.722 132.695 173.499L132.801 173.448C133.006 173.36 133.22 173.294 133.44 173.253C135.762 172.807 145.344 173.702 145.344 173.702C145.344 173.702 145.613 174.184 145.983 174.781C146.444 175.52 147.07 176.421 147.543 176.761C148.066 177.209 148.422 177.822 148.55 178.499C148.663 179.022 148.58 179.501 148.196 179.646Z" fill="white"/>
<path opacity="0.1" d="M148.196 179.646C147.342 179.974 142.715 180.532 141.42 180.375C140.126 180.219 138.412 179.56 137.922 178.706C137.431 177.852 134.704 176.554 133.971 176.637C133.239 176.72 131.608 175.946 131.608 175.946C131.608 175.946 131.354 174.763 132.092 173.957L133.57 175.006C133.57 175.006 137.523 176.232 138.256 177.37C138.989 178.508 140.324 179.143 142.254 179.258C143.696 179.353 147.008 178.791 148.559 178.511C148.663 179.022 148.583 179.501 148.196 179.646Z" fill="black"/>
<path d="M134.051 181.153C132.308 181.119 130.565 181.201 128.833 181.398C126.059 181.723 123.94 180.511 123.571 180.012C123.201 179.513 121.29 177.825 119.821 177.234C119.103 176.956 118.935 176.052 118.967 175.207C118.967 175.162 118.967 175.112 118.967 175.068C118.994 174.532 119.074 174.001 119.204 173.481L130.701 173.236L131.696 174.586L131.85 174.793L132.456 175.618C132.456 175.618 132.73 175.978 133.091 176.504C133.7 177.391 134.551 178.7 134.778 179.566C135.142 180.952 134.051 181.153 134.051 181.153Z" fill="white"/>
<path opacity="0.1" d="M134.051 181.153C132.308 181.119 130.565 181.201 128.833 181.398C126.062 181.723 123.94 180.511 123.574 180.012C123.207 179.513 121.29 177.81 119.821 177.24C119.103 176.962 118.935 176.058 118.967 175.213C119.789 175.405 121.514 175.895 122.191 176.749C123.077 177.89 124.664 179.808 126.918 179.929C128.739 180.027 133.171 179.702 134.796 179.572C135.145 180.952 134.051 181.153 134.051 181.153Z" fill="black"/>
<path opacity="0.1" d="M132.683 173.487C132.55 174.474 132.14 174.74 131.844 174.799C131.772 174.813 131.698 174.813 131.625 174.799C131.587 174.796 131.548 174.79 131.51 174.781C131.51 174.781 121.186 177.063 119.1 175.216C119.047 175.168 118.998 175.117 118.952 175.062C118.98 174.527 119.059 173.995 119.189 173.475L130.686 173.23L131.682 174.58C131.854 174.095 132.211 173.698 132.674 173.475L132.683 173.487Z" fill="black"/>
<path opacity="0.1" d="M145.98 174.769C145.749 175.023 145.557 175.168 145.436 175.118C144.892 174.899 140.437 174.14 139.021 174.793C137.606 175.446 132.816 174.899 132.816 174.899C132.816 174.899 132.816 174.332 132.79 173.422C132.994 173.333 133.209 173.268 133.428 173.227C135.75 172.78 145.333 173.676 145.333 173.676C145.333 173.676 145.613 174.172 145.98 174.769Z" fill="black"/>
<path d="M152.722 107.921L151.416 116.947L149.898 122.928L147.723 134.235V146.204C147.723 146.204 149.135 170.017 148.592 170.667C148.048 171.318 145.983 175.021 145.439 174.805C144.895 174.589 140.439 173.827 139.024 174.477C137.609 175.127 132.819 174.586 132.819 174.586C132.819 174.586 132.71 165.345 132.166 162.736C131.622 160.126 133.144 149.035 133.144 149.035L133.688 143.056C133.688 143.056 134.45 139.031 133.797 137.944C133.144 136.856 134.775 132.624 134.775 132.624C134.775 132.624 134.016 130.228 134.234 128.815C134.453 127.402 134.775 122.074 134.775 122.074C134.775 122.074 134.234 125.774 132.725 127.946C131.215 130.118 131.407 149.585 131.407 149.585L131.513 166.43C134.234 175.349 131.513 174.477 131.513 174.477C131.513 174.477 121.189 176.761 119.103 174.911C117.017 173.061 117.614 161.417 117.614 161.417C117.614 161.417 117.398 152.067 118.267 149.242C119.136 146.417 119.41 135.976 119.41 135.976C119.41 135.976 119.354 115.097 119.41 113.687C119.452 112.505 119.41 101.922 119.41 98.6154C119.41 98.0007 119.41 97.6372 119.41 97.6372L120.657 94.5401L135.431 92.6901H142.499C142.499 92.6901 153.136 95.1903 154.235 96.2689C154.259 96.2869 154.279 96.3089 154.294 96.3339C155.006 97.3771 152.722 107.921 152.722 107.921Z" fill="#16697A"/>
<path opacity="0.1" d="M134.784 155.33C134.784 155.33 138.034 163.158 139.568 163.702C141.101 164.246 134.784 155.33 134.784 155.33Z" fill="black"/>
<path opacity="0.1" d="M135.987 166.855C135.987 166.855 146.961 167.399 146.851 168.596C146.742 169.793 135.987 166.855 135.987 166.855Z" fill="black"/>
<path opacity="0.1" d="M121.304 163.726C121.739 164.136 129.675 164.908 129.022 165.658C128.369 166.409 121.957 167.869 121.957 167.869L121.304 163.726Z" fill="black"/>
<path opacity="0.1" d="M120.001 150.22C120.001 150.545 121.632 160.658 122.07 161.092C122.507 161.527 126.091 161.961 126.091 161.961L120.001 150.22Z" fill="black"/>
<path d="M131.835 11.991C130.278 13.7316 129.604 16.1993 127.79 17.671C126.688 18.5576 125.293 18.9802 124.011 19.583C122.729 20.1859 121.458 21.105 121.077 22.4703C120.651 24.007 121.473 25.5763 121.904 27.113C122.35 28.7029 122.377 30.3638 122.404 32.0276C122.433 34.0401 122.466 36.0527 122.43 38.0652C122.377 41.2007 122.117 44.481 120.453 47.1378C126.461 49.0499 132.849 49.3099 139.148 49.5552C140.359 49.6416 141.575 49.6109 142.78 49.4636C143.824 49.2556 144.856 48.9942 145.873 48.6805C147.884 48.1483 149.957 47.883 152.037 47.8914C152.944 47.8914 153.869 47.9476 154.743 47.7111C155.618 47.4747 156.46 46.8689 156.697 45.9941C156.906 45.208 156.599 44.3717 156.197 43.6654C155.464 42.3769 154.424 41.3012 153.638 40.0304C152.836 38.6881 152.36 37.1762 152.249 35.6163C152.137 34.0564 152.394 32.4921 152.997 31.0494C153.695 29.427 154.817 28.0144 155.503 26.389C156.205 24.6438 156.392 22.7338 156.041 20.8857C155.69 19.0376 154.816 17.329 153.523 15.9628C151.139 13.5218 147.717 12.5761 144.443 12.0737C143.065 11.9109 141.75 11.4026 140.62 10.5961C139.364 9.76864 137.736 9.56767 136.264 9.7509C134.567 9.94115 132.995 10.7363 131.835 11.991Z" fill="#3F3D56"/>
<g opacity="0.1">
<path opacity="0.1" d="M153.089 29.3443C152.486 30.7683 152.228 32.3144 152.335 33.8569C152.401 32.7539 152.656 31.6703 153.089 30.6534C153.783 29.031 154.906 27.6184 155.591 25.993C156.152 24.6358 156.388 23.1664 156.28 21.702C156.219 22.7284 155.986 23.7374 155.591 24.6868C154.906 26.3122 153.783 27.7218 153.089 29.3443Z" fill="black"/>
<path opacity="0.1" d="M122.492 31.6257C122.51 32.7842 122.528 33.9456 122.531 35.1041C122.531 33.5082 122.516 31.9153 122.492 30.3225C122.469 28.6705 122.439 26.9978 121.993 25.4049C121.697 24.3942 121.26 23.3687 121.106 22.3492C120.844 23.7973 121.591 25.266 121.993 26.7111C122.439 28.2892 122.469 29.9737 122.492 31.6257Z" fill="black"/>
<path opacity="0.1" d="M154.844 46.0207C153.957 46.2601 153.047 46.2069 152.14 46.201C150.062 46.1878 147.99 46.4481 145.98 46.9753C144.962 47.2876 143.93 47.548 142.886 47.7555C141.68 47.9052 140.463 47.9369 139.252 47.85C133.165 47.6107 126.992 47.3535 121.163 45.6129C120.99 45.9993 120.792 46.3744 120.572 46.7359C126.579 48.645 132.967 48.908 139.263 49.1533C140.475 49.2401 141.692 49.2085 142.898 49.0587C143.938 48.8533 144.966 48.5939 145.98 48.2815C147.986 47.7524 150.053 47.4891 152.128 47.4984C153.036 47.4984 153.957 47.5545 154.832 47.3151C155.707 47.0758 156.549 46.4758 156.785 45.6011C156.885 45.1959 156.874 44.7716 156.756 44.3717C156.493 45.1992 155.68 45.7754 154.844 46.0207Z" fill="black"/>
</g>
<path d="M146.092 42.5187C145.873 43.0093 144.951 47.2472 144.733 47.6816C144.514 48.116 143.32 55.0697 143.211 55.4598C143.102 55.8499 135.342 53.8285 135.342 53.8285L130.671 49.9128L125.87 45.1341C125.87 45.1341 125.728 40.8224 129.265 39.4394C129.505 39.345 129.752 39.2679 130.003 39.2089C134.294 38.1775 133.862 25.13 133.862 25.13L142.667 28.9334C142.667 28.9334 141.036 36.5462 141.092 38.0149C141.107 38.5085 141.494 38.8158 142 39.002C142.781 39.2243 143.594 39.3122 144.405 39.2621C144.405 39.2621 146.311 42.0311 146.092 42.5187Z" fill="#FBBEBE"/>
<path d="M161.856 56.8163L163.105 57.1443C163.105 57.1443 164.03 58.551 161.856 59.8602C160.475 60.6991 159.149 61.626 157.887 62.6352L151.461 64.5916L150.223 60.7054L156.203 56.1661L161.856 56.8163Z" fill="#16697A"/>
<path opacity="0.1" d="M161.856 56.8163L163.105 57.1443C163.105 57.1443 164.03 58.551 161.856 59.8602C160.475 60.6991 159.149 61.626 157.887 62.6352L151.461 64.5916L150.223 60.7054L156.203 56.1661L161.856 56.8163Z" fill="black"/>
<path d="M114.955 60.5695L112.455 63.0164C112.455 63.0164 116.964 68.2354 120.433 68.5605C123.902 68.8856 126.138 64.5916 126.138 64.5916L123.136 59.8632L114.955 60.5695Z" fill="#16697A"/>
<path opacity="0.1" d="M114.955 60.5695L112.455 63.0164C112.455 63.0164 116.964 68.2354 120.433 68.5605C123.902 68.8856 126.138 64.5916 126.138 64.5916L123.136 59.8632L114.955 60.5695Z" fill="black"/>
<path opacity="0.1" d="M138.699 33.656C143.502 33.656 147.395 29.762 147.395 24.9586C147.395 20.1552 143.502 16.2613 138.699 16.2613C133.897 16.2613 130.003 20.1552 130.003 24.9586C130.003 29.762 133.897 33.656 138.699 33.656Z" fill="black"/>
<path d="M138.699 33.0028C143.502 33.0028 147.395 29.1089 147.395 24.3055C147.395 19.5021 143.502 15.6082 138.699 15.6082C133.897 15.6082 130.003 19.5021 130.003 24.3055C130.003 29.1089 133.897 33.0028 138.699 33.0028Z" fill="#FBBEBE"/>
<path opacity="0.1" d="M154.3 97.321C152.32 97.5476 150.37 97.9845 148.482 98.6242C145.232 99.7059 119.762 98.642 119.408 98.6242C119.408 98.0096 119.408 97.6461 119.408 97.6461L120.654 94.549L135.428 92.699H142.496C142.496 92.699 153.133 95.1991 154.232 96.2778C154.277 96.9279 154.3 97.321 154.3 97.321Z" fill="black"/>
<path opacity="0.1" d="M146.092 42.5188C145.873 43.0093 144.951 47.2472 144.733 47.6816C144.514 48.116 143.32 55.0697 143.211 55.4598C143.102 55.8499 135.342 53.8285 135.342 53.8285L130.671 49.9128L125.87 45.1342C125.87 45.1342 125.728 40.8225 129.265 39.4394L138.046 49.5375L142 39.002C142.781 39.2243 143.594 39.3122 144.405 39.2621C144.405 39.2621 146.311 42.0311 146.092 42.5188Z" fill="black"/>
<path d="M138.046 49.8626L129.058 39.5192C128.532 39.1833 127.93 38.9834 127.308 38.9375C126.685 38.8916 126.061 39.0011 125.491 39.2562C123.479 40.128 120.979 40.8343 120.326 41.2687C119.673 41.7031 117.227 44.3924 117.227 44.3924L124.513 63.4567L121.304 76.0136C121.304 76.0136 121.795 82.4295 120.545 84.7671C119.784 86.2617 119.428 87.9296 119.511 89.6048C119.511 89.6048 119.892 92.7049 119.458 94.3332C119.204 95.422 119.185 96.5523 119.402 97.649C119.402 97.649 145.223 98.7366 148.482 97.649C150.369 97.0075 152.32 96.5705 154.3 96.3457C154.3 96.3457 153.709 85.4704 153.118 82.8609C152.527 80.2514 153.609 70.3041 153.609 70.3041L152.903 59.6474L157.14 48.713C157.14 48.713 154.844 41.7031 152.451 40.9968C152.451 40.9968 148.104 39.9625 147.179 39.4749C146.254 38.9872 143.536 38.5499 143.536 38.5499L142.109 39.0286L138.046 49.8626Z" fill="#16697A"/>
<path opacity="0.1" d="M150.587 59.2876L131.673 58.0013C131.194 57.9687 130.78 58.3304 130.747 58.8092L128.717 88.6769C128.684 89.1556 129.046 89.5701 129.524 89.6027L148.438 90.889C148.917 90.9216 149.331 90.5598 149.364 90.0811L151.395 60.2134C151.427 59.7346 151.065 59.3201 150.587 59.2876Z" fill="black"/>
<path d="M151.238 58.6389L132.324 57.3526C131.845 57.32 131.431 57.6817 131.398 58.1605L129.368 88.0282C129.335 88.507 129.697 88.9214 130.176 88.954L149.09 90.2403C149.568 90.2729 149.983 89.9112 150.015 89.4324L152.046 59.5647C152.078 59.086 151.717 58.6715 151.238 58.6389Z" fill="#3F3D56"/>
<path d="M150.614 60.9801L132.625 59.7567L130.777 86.9473L148.765 88.1707L150.614 60.9801Z" fill="white"/>
<path opacity="0.1" d="M149.001 67.9204L134.307 66.8916L134.02 70.9876L148.714 72.0163L149.001 67.9204Z" fill="black"/>
<path opacity="0.1" d="M148.469 84.1976L146.137 84.039L145.992 86.1737L148.324 86.3322L148.469 84.1976Z" fill="black"/>
<path opacity="0.1" d="M146.169 79.0457L134.233 78.2339L134.088 80.3686L146.024 81.1804L146.169 79.0457Z" fill="black"/>
<path d="M148.387 59.9635L135.959 59.1182L135.736 62.3998L148.164 63.2451L148.387 59.9635Z" fill="#3F3D56"/>
<path opacity="0.1" d="M148.387 59.9635L135.959 59.1182L135.736 62.3998L148.164 63.2451L148.387 59.9635Z" fill="black"/>
<path opacity="0.1" d="M139.133 96.7211C139.133 96.7211 139.024 112.815 134.784 122.056C134.784 122.056 139.896 109.878 139.896 109.39C139.896 108.903 142.721 103.79 141.964 102.268C141.208 100.746 139.133 96.7211 139.133 96.7211Z" fill="black"/>
<path opacity="0.1" d="M139.364 22.1305C139.201 20.706 139.55 19.2701 140.348 18.0788C140.253 19.2728 140.591 20.4611 141.299 21.4269C142.007 22.3926 143.039 23.0713 144.207 23.3392C144.107 23.2527 144.036 23.1381 144.003 23.0104C143.97 22.8828 143.976 22.7481 144.021 22.624C144.626 23.3096 145.09 24.1223 145.776 24.7252C146.461 25.3281 147.489 25.6886 148.296 25.2601C149.392 24.669 149.404 23.1116 149.12 21.9C148.512 19.3196 147.263 16.9342 145.489 14.964C145.047 14.3684 144.472 13.8835 143.811 13.5471C143.15 13.2108 142.419 13.0322 141.677 13.0253C139.999 12.8953 138.256 13.043 136.752 13.7966C135.906 14.2585 135.113 14.8126 134.388 15.4486L130.251 18.8235C129.853 19.1103 129.513 19.4692 129.247 19.8815C129.069 20.2262 128.963 20.6031 128.934 20.9897C128.828 22.095 129.032 23.2079 129.524 24.2034C130.016 25.1989 130.775 26.0376 131.717 26.6254C131.697 25.7518 131.937 24.892 132.407 24.1553C132.877 23.4186 133.555 22.8383 134.356 22.4881C134.481 22.5929 134.582 22.7234 134.653 22.8707C134.724 23.018 134.763 23.1787 134.766 23.3421L135.638 21.7877C135.768 21.5048 135.972 21.2626 136.229 21.0873C136.767 20.7917 137.437 21.1405 137.895 21.5571C138.353 21.9738 138.8 22.494 139.414 22.559L139.438 20.245" fill="black"/>
<path d="M139.364 21.8054C139.201 20.3799 139.55 18.9429 140.348 17.7508C140.082 20.115 141.864 22.556 144.21 23.0111C144.11 22.9254 144.039 22.8113 144.006 22.6841C143.972 22.5568 143.979 22.4225 144.024 22.2989C144.629 22.9845 145.093 23.7943 145.779 24.4001C146.464 25.0059 147.492 25.3635 148.299 24.9321C149.395 24.341 149.407 22.7836 149.123 21.5749C148.515 18.9945 147.266 16.6091 145.492 14.6389C144.942 13.9679 144.248 13.4287 143.462 13.0608C142.893 12.8503 142.295 12.7287 141.689 12.7002C140.011 12.5702 138.268 12.715 136.764 13.4686C135.918 13.9326 135.125 14.4875 134.4 15.1236L130.263 18.4985C129.865 18.7845 129.524 19.1435 129.259 19.5564C129.081 19.901 128.974 20.2779 128.945 20.6647C128.84 21.7695 129.045 22.8819 129.536 23.8769C130.028 24.8719 130.787 25.7101 131.729 26.2974C131.71 25.424 131.95 24.5645 132.42 23.828C132.89 23.0914 133.567 22.5109 134.367 22.16C134.492 22.2653 134.594 22.3958 134.664 22.543C134.735 22.6902 134.774 22.8508 134.778 23.0141L135.647 21.4655C135.776 21.1822 135.98 20.9398 136.238 20.7651C136.776 20.4696 137.446 20.8183 137.904 21.235C138.362 21.6517 138.808 22.1689 139.423 22.2368L139.447 19.9199" fill="#3F3D56"/>
<path d="M143.483 76.6638C142.723 76.2796 130.166 78.2389 130.166 78.2389C130.166 78.2389 128.097 77.6479 123.098 76.8263C118.099 76.0047 117.779 71.1168 117.779 71.1168L117.233 61.3319L118.92 59.8543L126.147 64.5827C126.147 64.5827 126.26 66.9735 126.147 67.4049C126.076 67.7005 125.887 68.0521 125.905 68.2915C125.911 68.3563 125.937 68.4176 125.981 68.4656C126.025 68.5137 126.083 68.546 126.147 68.5575C126.638 68.6816 133.321 69.7632 133.321 69.7632C133.321 69.7632 148.813 68.7023 152.675 73.9213C152.981 74.3044 153.213 74.7414 153.358 75.2098C154.315 78.7768 144.171 77.0036 143.483 76.6638Z" fill="#FBBEBE"/>
<path opacity="0.1" d="M153.366 75.2304C152.776 75.4935 152.409 75.6826 152.409 75.6826C152.409 75.6826 146.866 75.5201 143.752 74.3912C140.637 73.2622 136.852 73.4632 136.852 73.4632C136.852 73.4632 123.875 71.229 125.887 68.3122C125.893 68.377 125.919 68.4382 125.963 68.4863C126.007 68.5344 126.066 68.5667 126.13 68.5782C126.62 68.7023 133.304 69.7839 133.304 69.7839C133.304 69.7839 148.795 68.723 152.657 73.942C152.973 74.3229 153.213 74.7601 153.366 75.2304Z" fill="black"/>
<path d="M158.756 58.0132C158.756 58.0132 159.518 63.3947 159.571 63.8321C159.625 64.2694 159.899 69.5386 159.571 70.1386C159.243 70.7385 158.756 71.7137 158.756 71.7137C158.756 71.7137 159.3 72.8544 157.125 73.2918C154.95 73.7292 152.397 75.0295 152.397 75.0295C152.397 75.0295 146.851 74.867 143.755 73.7262C140.658 72.5855 136.852 72.8013 136.852 72.8013C136.852 72.8013 120.38 69.9731 127.447 66.5213C134.515 63.0696 139.515 67.7448 139.515 67.7448L147.395 67.2572C147.395 67.2572 150.332 65.4604 151.147 65.6259C151.723 65.6992 152.308 65.6048 152.832 65.354L152.888 59.6445L158.756 58.0132Z" fill="#FBBEBE"/>
<path opacity="0.1" d="M118.796 44.8032L117.218 44.7204L112.437 63.3385C112.437 63.3385 117.599 62.0323 119.824 63.3385C122.049 64.6447 126.13 64.9137 126.13 64.9137L124.608 50.0724L118.796 44.8032Z" fill="black"/>
<path d="M118.796 44.4751L117.218 44.3924L112.437 63.0105C112.437 63.0105 117.599 61.7043 119.824 63.0105C122.049 64.3167 126.13 64.5856 126.13 64.5856L124.608 49.7444L118.796 44.4751Z" fill="#16697A"/>
<path opacity="0.1" d="M154.953 48.5534L157.125 49.044C157.125 49.044 162.671 57.0232 163.105 57.4694C163.54 57.9156 161.037 59.5381 160.006 59.5381C158.975 59.5381 153.919 60.1291 152.45 61.4945C150.982 62.8598 151.594 55.9888 151.594 55.8322C151.594 55.6756 153.417 51.3402 153.417 51.3402L154.953 48.5534Z" fill="black"/>
<path d="M154.953 48.2283L157.125 48.7159C157.125 48.7159 162.671 56.7099 163.105 57.1443C163.54 57.5787 161.037 59.213 160.006 59.213C158.975 59.213 153.919 59.804 152.45 61.1693C150.982 62.5347 151.594 55.6637 151.594 55.5071C151.594 55.3505 153.429 51.0003 153.429 51.0003L154.953 48.2283Z" fill="#16697A"/>
<g opacity="0.1">
<path opacity="0.1" d="M140.333 17.7774C140.32 17.5508 140.325 17.3235 140.348 17.0977C139.898 17.7728 139.588 18.5316 139.438 19.3289V20.0145C139.438 20.0145 139.438 19.9997 139.438 19.9909V20.1534C139.438 20.6321 139.438 21.1138 139.423 21.5926H139.382V21.8142C139.382 21.7374 139.382 21.6635 139.367 21.5867C138.776 21.4921 138.353 20.9956 137.913 20.5996C137.473 20.2036 136.784 19.8254 136.247 20.1297C135.989 20.3045 135.785 20.5468 135.656 20.8301L134.778 22.3787C134.774 22.2157 134.736 22.0555 134.665 21.9087C134.594 21.7619 134.493 21.632 134.367 21.5276C133.567 21.8778 132.889 22.4582 132.419 23.1949C131.949 23.9316 131.709 24.7914 131.729 25.6649C130.922 25.159 130.246 24.4682 129.759 23.6496C129.271 22.831 128.985 21.9081 128.925 20.9572C128.873 22.019 129.106 23.0753 129.599 24.0171C130.092 24.959 130.827 25.7522 131.729 26.3151C131.71 25.4417 131.95 24.5822 132.42 23.8457C132.89 23.1091 133.567 22.5286 134.367 22.1777C134.492 22.283 134.594 22.4135 134.664 22.5607C134.735 22.7079 134.774 22.8685 134.778 23.0318L135.647 21.4833C135.776 21.1999 135.98 20.9576 136.238 20.7829C136.776 20.4873 137.446 20.8361 137.904 21.2527C138.362 21.6694 138.808 22.1866 139.423 22.2546C139.423 21.498 139.431 20.7435 139.447 19.9909C139.592 19.2013 139.893 18.4487 140.333 17.7774Z" fill="black"/>
<path opacity="0.1" d="M139.334 20.7533C139.349 20.5524 139.373 20.3514 139.402 20.1623L139.435 19.3466C139.346 19.8099 139.312 20.2821 139.334 20.7533Z" fill="black"/>
<path opacity="0.1" d="M148.299 24.2789C147.492 24.7104 146.464 24.3499 145.779 23.747C145.093 23.1441 144.629 22.3314 144.024 21.6458C143.979 21.7698 143.973 21.9046 144.006 22.0322C144.039 22.1599 144.11 22.2745 144.21 22.361C144.151 22.361 144.095 22.3314 144.038 22.3166C144.629 22.9964 145.099 23.7943 145.779 24.3853C146.458 24.9764 147.492 25.3487 148.299 24.9173C149.106 24.4858 149.336 23.4751 149.265 22.491C149.212 23.2653 148.934 23.9361 148.299 24.2789Z" fill="black"/>
<path opacity="0.1" d="M144.021 22.3107C143.032 22.0414 142.15 21.4764 141.492 20.6915C140.834 19.9066 140.432 18.9393 140.339 17.9192C140.171 20.2391 141.92 22.5649 144.21 23.0111C144.112 22.9264 144.042 22.8145 144.008 22.6898C143.975 22.565 143.979 22.433 144.021 22.3107Z" fill="black"/>
</g>
<path opacity="0.1" d="M39.2184 180.91C55.1193 180.91 68.0095 178.84 68.0095 176.285C68.0095 173.731 55.1193 171.66 39.2184 171.66C23.3175 171.66 10.4273 173.731 10.4273 176.285C10.4273 178.84 23.3175 180.91 39.2184 180.91Z" fill="#16697A"/>
<path d="M40.1462 87.6839H38.2936V129.403H40.1462V87.6839Z" fill="#535461"/>
<path d="M51.7909 129.279L51.6727 131.159L51.5102 133.818L51.4423 134.924L51.2768 137.583L51.2059 138.689L51.0434 141.348L49.173 171.513C49.0933 172.81 48.5215 174.029 47.5744 174.92C46.6273 175.81 45.3761 176.306 44.0761 176.306H34.3638C33.0602 176.307 31.8057 175.808 30.8579 174.913C29.9101 174.018 29.3408 172.794 29.2668 171.492L27.3965 141.328L27.234 138.668L27.166 137.563L26.9976 134.903L26.9296 133.798L26.7671 131.138L26.6489 129.258C26.6285 128.898 26.6815 128.538 26.8049 128.198C26.9282 127.859 27.1193 127.549 27.3664 127.286C27.6135 127.023 27.9115 126.813 28.2423 126.669C28.5731 126.525 28.9297 126.45 29.2905 126.448H49.1523C49.5147 126.45 49.8728 126.526 50.2048 126.672C50.5366 126.817 50.8353 127.029 51.0824 127.294C51.3295 127.559 51.5198 127.872 51.6416 128.213C51.7635 128.555 51.8143 128.917 51.7909 129.279Z" fill="#3F3D56"/>
<path d="M51.6727 131.156L51.5073 133.81H26.9296L26.7642 131.156H51.6727Z" fill="#9D9CB5"/>
<path d="M51.4393 134.915L51.2768 137.569H27.1631L26.9976 134.915H51.4393Z" fill="#9D9CB5"/>
<path d="M51.2059 138.677L51.0434 141.328H27.3965L27.231 138.677H51.2059Z" fill="#9D9CB5"/>
<path d="M23.9483 103.323C34.739 111.131 39.2332 123.342 39.2332 123.342C39.2332 123.342 26.2323 122.896 15.4386 115.088C4.64487 107.28 0.144775 95.0779 0.144775 95.0779C0.144775 95.0779 13.1457 95.5153 23.9483 103.323Z" fill="#16697A"/>
<path d="M0.144775 95.0779C0.144775 95.0779 13.6391 102.57 17.9678 108.773C22.2966 114.976 39.2214 123.348 39.2214 123.348" stroke="#535461" stroke-width="2" stroke-miterlimit="10"/>
<path d="M30.9008 87.5953C36.7749 91.842 39.2214 98.4883 39.2214 98.4883C39.2214 98.4883 32.13 98.246 26.2707 93.9993C20.4114 89.7526 17.9501 83.1033 17.9501 83.1033C17.9501 83.1033 25.0297 83.3456 30.9008 87.5953Z" fill="#16697A"/>
<path d="M17.9501 83.1033C17.9501 83.1033 25.2957 87.1815 27.6535 90.5564C30.0114 93.9313 39.2214 98.4883 39.2214 98.4883" stroke="#535461" stroke-width="2" stroke-miterlimit="10"/>
<path d="M47.7548 98.1514C41.0091 105.566 39.5819 115.256 39.5819 115.256C39.5819 115.256 49.0933 112.922 55.8331 105.504C62.5728 98.0864 64.0059 88.3991 64.0059 88.3991C64.0059 88.3991 54.5005 90.7367 47.7548 98.1514Z" fill="#16697A"/>
<path d="M64.0118 88.402C64.0118 88.402 55.2244 96.003 52.9906 101.24C50.7568 106.476 39.5819 115.256 39.5819 115.256" stroke="#535461" stroke-width="2" stroke-miterlimit="10"/>
</g>
<defs>
<linearGradient id="paint0_linear" x1="137.553" y1="179.929" x2="137.553" y2="9.21896" gradientUnits="userSpaceOnUse">
<stop stop-color="#808080" stop-opacity="0.25"/>
<stop offset="0.54" stop-color="#808080" stop-opacity="0.12"/>
<stop offset="1" stop-color="#808080" stop-opacity="0.1"/>
</linearGradient>
<clipPath id="clip0">
<rect width="345" height="255" fill="white" transform="translate(0 -67)"/>
</clipPath>
</defs>
</svg>
