<svg width="192" height="138" viewBox="0 0 192 138" fill="none" xmlns="http://www.w3.org/2000/svg">
<defs>
<linearGradient id="paint0_linear" x1="129.051" y1="16.8225" x2="129.051" y2="13.5818" gradientUnits="userSpaceOnUse">
<stop stop-color="#808080" stop-opacity="0.25"/>
<stop offset="0.54" stop-color="#808080" stop-opacity="0.12"/>
<stop offset="1" stop-color="#808080" stop-opacity="0.1"/>
</linearGradient>
<linearGradient id="paint1_linear" x1="81099.2" y1="116107" x2="81099.2" y2="8095.24" gradientUnits="userSpaceOnUse">
<stop stop-color="#808080" stop-opacity="0.25"/>
<stop offset="0.54" stop-color="#808080" stop-opacity="0.12"/>
<stop offset="1" stop-color="#808080" stop-opacity="0.1"/>
</linearGradient>
<clipPath id="clip0">
<rect width="192" height="138" fill="white"/>
</clipPath>
</defs>
<g clip-path="url(#clip0)">
<path opacity="0.1" d="M111.555 24.3375C99.2464 23.9108 87.5139 19.9471 76.3276 15.6114C65.1413 11.2758 54.054 6.47104 42.0334 4.1736C34.3048 2.69428 25.4661 2.48622 19.2401 6.61915C13.2474 10.5952 11.3117 17.4593 10.2705 23.8279C9.48743 28.6203 9.03312 33.663 11.1739 38.1504C12.6641 41.2642 15.3086 43.8825 17.1382 46.8658C23.5021 57.2458 19.0032 70.0466 12.1055 80.1902C8.87048 84.9509 5.11756 89.4805 2.62151 94.5426C0.125452 99.6048 -1.03065 105.404 1.15428 110.567C3.31977 115.68 8.47805 119.527 14.0677 122.23C25.4201 127.715 38.7966 129.285 51.8408 130.184C80.7151 132.153 109.745 131.3 138.695 130.447C149.41 130.129 160.172 129.81 170.711 128.154C176.564 127.236 182.608 125.779 186.858 122.264C192.251 117.799 193.589 110.242 189.974 104.644C183.911 95.2568 167.147 92.924 162.908 82.8491C160.577 77.3039 162.972 71.1257 166.362 65.9824C173.633 54.9501 185.823 45.2702 186.465 32.658C186.907 23.9954 181.047 15.3223 171.986 11.2229C162.489 6.92242 149.32 7.46549 142.314 14.5729C135.1 21.8955 122.422 24.7131 111.555 24.3375Z" fill="#6C63FF"/>
<path d="M42.8236 127.839C42.8236 127.839 33.101 120.507 31.2643 111.182C30.5194 107.265 28.5216 103.695 25.5704 101.006C24.1586 99.7418 22.6337 98.6086 21.0149 97.6211" stroke="#535461" stroke-width="2" stroke-miterlimit="10"/>
<path d="M19.8253 91.746C20.6774 92.8956 21.0628 97.7673 21.0628 97.7673C21.0628 97.7673 16.5073 95.9777 15.6535 94.8298C15.2435 94.278 15.07 93.5864 15.1713 92.907C15.2726 92.2277 15.6403 91.6163 16.1935 91.2073C16.7467 90.7984 17.4402 90.6254 18.1213 90.7264C18.8024 90.8274 19.4153 91.1942 19.8253 91.746Z" fill="#6C63FF"/>
<path d="M27.9958 95.5688C28.0842 96.9952 25.7561 101.294 25.7561 101.294C25.7561 101.294 22.9047 97.3196 22.8146 95.8932C22.7803 95.2132 23.016 94.547 23.4707 94.0392C23.9254 93.5313 24.5624 93.2226 25.2437 93.1799C25.925 93.1372 26.5957 93.364 27.1105 93.8112C27.6253 94.2583 27.9428 94.8898 27.994 95.5688H27.9958Z" fill="#6C63FF"/>
<path d="M35.9152 106.557C35.2717 107.834 31.0839 110.373 31.0839 110.373C31.0839 110.373 30.6367 105.506 31.2801 104.23C31.5969 103.629 32.1373 103.177 32.785 102.97C33.4327 102.763 34.136 102.818 34.7435 103.123C35.351 103.428 35.8141 103.959 36.0332 104.601C36.2524 105.243 36.21 105.946 35.9152 106.557Z" fill="#6C63FF"/>
<path d="M40.0324 116.212C39.6134 117.579 35.9171 120.786 35.9171 120.786C35.9171 120.786 34.6496 116.066 35.0686 114.698C35.2699 114.041 35.7245 113.491 36.3324 113.169C36.9402 112.847 37.6515 112.779 38.3097 112.979C38.968 113.18 39.5193 113.634 39.8423 114.24C40.1654 114.846 40.2337 115.556 40.0324 116.212Z" fill="#6C63FF"/>
<path d="M21.5418 104.75C22.956 104.94 27.4267 102.927 27.4267 102.927C27.4267 102.927 23.6543 99.8092 22.233 99.6188C21.5509 99.5273 20.8602 99.7099 20.3131 100.126C19.7659 100.543 19.407 101.159 19.3154 101.84C19.2237 102.52 19.4068 103.209 19.8243 103.755C20.2419 104.3 20.8597 104.658 21.5418 104.75Z" fill="#6C63FF"/>
<path d="M26.5002 115.983C27.9144 115.741 31.5683 112.488 31.5683 112.488C31.5683 112.488 27.0323 110.641 25.6198 110.882C25.2817 110.937 24.9578 111.059 24.667 111.24C24.3762 111.421 24.1242 111.657 23.9255 111.935C23.7267 112.214 23.5853 112.529 23.5093 112.862C23.4332 113.195 23.4241 113.54 23.4825 113.877C23.5409 114.214 23.6655 114.536 23.8493 114.824C24.033 115.113 24.2723 115.362 24.5532 115.558C24.8341 115.754 25.151 115.892 25.4858 115.965C25.8206 116.038 26.1666 116.044 26.5037 115.983H26.5002Z" fill="#6C63FF"/>
<path d="M32.82 126.243C34.2536 126.243 38.4078 123.653 38.4078 123.653C38.4078 123.653 34.2518 121.066 32.8182 121.066C32.1299 121.066 31.4699 121.339 30.9832 121.824C30.4965 122.31 30.2231 122.968 30.2231 123.655C30.2231 124.341 30.4965 124.999 30.9832 125.485C31.4699 125.97 32.1299 126.243 32.8182 126.243H32.82Z" fill="#6C63FF"/>
<path d="M137.274 64.429C137.274 64.429 143.267 53.841 152.3 50.7907C156.093 49.5342 159.376 47.0849 161.655 43.8102C162.724 42.2446 163.646 40.5844 164.411 38.8503" stroke="#535461" stroke-width="2" stroke-miterlimit="10"/>
<path d="M170.082 36.9108C169.053 37.9052 164.264 38.9349 164.264 38.9349C164.264 38.9349 165.44 34.1919 166.469 33.1957C166.965 32.732 167.624 32.4813 168.305 32.4976C168.985 32.5139 169.631 32.7959 170.105 33.2829C170.578 33.7699 170.841 34.423 170.837 35.1015C170.833 35.78 170.562 36.4297 170.082 36.9108Z" fill="#6C63FF"/>
<path d="M167.374 45.4851C165.959 45.7637 161.386 44.0323 161.386 44.0323C161.386 44.0323 164.957 40.6822 166.362 40.4089C166.7 40.3342 167.049 40.3275 167.389 40.3892C167.729 40.4509 168.053 40.5797 168.343 40.7681C168.632 40.9565 168.881 41.2007 169.075 41.4863C169.268 41.7719 169.403 42.0932 169.47 42.4314C169.537 42.7695 169.536 43.1177 169.467 43.4554C169.397 43.7932 169.261 44.1137 169.066 44.3982C168.871 44.6826 168.62 44.9253 168.33 45.112C168.039 45.2986 167.714 45.4255 167.374 45.4851Z" fill="#6C63FF"/>
<path d="M157.517 54.7737C156.163 54.3064 153.085 50.505 153.085 50.505C153.085 50.505 157.858 49.4153 159.216 49.8826C159.542 49.9905 159.843 50.162 160.102 50.387C160.362 50.6121 160.573 50.8863 160.725 51.1937C160.878 51.501 160.967 51.8355 160.988 52.1776C161.01 52.5197 160.963 52.8627 160.851 53.1866C160.738 53.5105 160.562 53.8089 160.333 54.0644C160.104 54.32 159.826 54.5276 159.516 54.6752C159.206 54.8229 158.87 54.9076 158.526 54.9245C158.183 54.9414 157.84 54.8901 157.517 54.7737Z" fill="#6C63FF"/>
<path d="M148.459 60.1267C147.045 59.8939 143.375 56.6585 143.375 56.6585C143.375 56.6585 147.898 54.7789 149.311 55.0117C149.991 55.1232 150.598 55.4995 151 56.0578C151.401 56.6162 151.564 57.3107 151.452 57.9888C151.341 58.6669 150.963 59.2728 150.404 59.6734C149.844 60.074 149.147 60.2364 148.468 60.1249L148.459 60.1267Z" fill="#6C63FF"/>
<path d="M157.393 40.3244C157.391 41.7544 159.991 45.9032 159.991 45.9032C159.991 45.9032 162.588 41.7596 162.588 40.3315C162.597 39.986 162.537 39.6422 162.411 39.3204C162.284 38.9986 162.095 38.7052 161.853 38.4577C161.611 38.2102 161.322 38.0134 161.003 37.8791C160.684 37.7447 160.341 37.6755 159.994 37.6755C159.648 37.6755 159.305 37.7447 158.985 37.8791C158.666 38.0134 158.377 38.2102 158.135 38.4577C157.894 38.7052 157.704 38.9986 157.578 39.3204C157.451 39.6422 157.391 39.986 157.4 40.3315L157.393 40.3244Z" fill="#6C63FF"/>
<path d="M146.887 46.7175C147.315 48.0822 151.034 51.2648 151.034 51.2648C151.034 51.2648 152.272 46.5359 151.84 45.1712C151.617 44.5389 151.156 44.0179 150.555 43.7178C149.953 43.4177 149.259 43.362 148.617 43.5624C147.976 43.7628 147.438 44.2037 147.115 44.7922C146.793 45.3807 146.713 46.0709 146.891 46.7175H146.887Z" fill="#6C63FF"/>
<path d="M137.541 54.3294C137.732 55.74 140.857 59.5079 140.857 59.5079C140.857 59.5079 142.874 55.0558 142.684 53.64C142.646 53.297 142.539 52.9649 142.371 52.6634C142.203 52.362 141.975 52.0971 141.703 51.8845C141.43 51.6719 141.118 51.5158 140.784 51.4254C140.45 51.335 140.101 51.3121 139.758 51.358C139.415 51.404 139.085 51.5179 138.787 51.6931C138.489 51.8682 138.229 52.1011 138.022 52.3779C137.816 52.6548 137.667 52.9701 137.584 53.3052C137.501 53.6403 137.487 53.9886 137.541 54.3294Z" fill="#6C63FF"/>
<path opacity="0.25" d="M170.082 36.9108C169.053 37.9052 164.264 38.9349 164.264 38.9349C164.264 38.9349 165.44 34.1919 166.469 33.1957C166.965 32.732 167.624 32.4813 168.305 32.4976C168.985 32.5139 169.631 32.7959 170.105 33.2829C170.578 33.7699 170.841 34.423 170.837 35.1015C170.833 35.78 170.562 36.4297 170.082 36.9108Z" fill="black"/>
<path opacity="0.25" d="M167.374 45.4851C165.959 45.7637 161.386 44.0323 161.386 44.0323C161.386 44.0323 164.957 40.6822 166.362 40.4089C166.7 40.3342 167.049 40.3275 167.389 40.3892C167.729 40.4509 168.053 40.5797 168.343 40.7681C168.632 40.9565 168.881 41.2007 169.075 41.4863C169.268 41.7719 169.403 42.0932 169.47 42.4314C169.537 42.7695 169.536 43.1177 169.467 43.4554C169.397 43.7932 169.261 44.1137 169.066 44.3982C168.871 44.6826 168.62 44.9253 168.33 45.112C168.039 45.2986 167.714 45.4255 167.374 45.4851Z" fill="black"/>
<path opacity="0.25" d="M157.517 54.7737C156.163 54.3064 153.085 50.505 153.085 50.505C153.085 50.505 157.858 49.4153 159.216 49.8826C159.542 49.9905 159.843 50.162 160.102 50.387C160.362 50.6121 160.573 50.8863 160.725 51.1937C160.878 51.501 160.967 51.8355 160.988 52.1776C161.01 52.5197 160.963 52.8627 160.851 53.1866C160.738 53.5105 160.562 53.8089 160.333 54.0644C160.104 54.32 159.826 54.5276 159.516 54.6752C159.206 54.8229 158.87 54.9076 158.526 54.9245C158.183 54.9414 157.84 54.8901 157.517 54.7737Z" fill="black"/>
<path opacity="0.25" d="M148.459 60.1267C147.045 59.8939 143.375 56.6585 143.375 56.6585C143.375 56.6585 147.898 54.7789 149.311 55.0117C149.991 55.1232 150.598 55.4995 151 56.0578C151.401 56.6162 151.564 57.3107 151.452 57.9888C151.341 58.6669 150.963 59.2728 150.404 59.6734C149.844 60.074 149.147 60.2364 148.468 60.1249L148.459 60.1267Z" fill="black"/>
<path opacity="0.25" d="M157.393 40.3244C157.391 41.7544 159.991 45.9032 159.991 45.9032C159.991 45.9032 162.588 41.7596 162.588 40.3315C162.597 39.986 162.537 39.6422 162.411 39.3204C162.284 38.9986 162.095 38.7052 161.853 38.4577C161.611 38.2102 161.322 38.0134 161.003 37.8791C160.684 37.7447 160.341 37.6755 159.994 37.6755C159.648 37.6755 159.305 37.7447 158.985 37.8791C158.666 38.0134 158.377 38.2102 158.135 38.4577C157.894 38.7052 157.704 38.9986 157.578 39.3204C157.451 39.6422 157.391 39.986 157.4 40.3315L157.393 40.3244Z" fill="black"/>
<path opacity="0.25" d="M146.887 46.7175C147.315 48.0822 151.034 51.2648 151.034 51.2648C151.034 51.2648 152.272 46.5359 151.84 45.1712C151.617 44.5389 151.156 44.0179 150.555 43.7178C149.953 43.4177 149.259 43.362 148.617 43.5624C147.976 43.7628 147.438 44.2037 147.115 44.7922C146.793 45.3807 146.713 46.0709 146.891 46.7175H146.887Z" fill="black"/>
<path opacity="0.25" d="M137.541 54.3294C137.732 55.74 140.857 59.5079 140.857 59.5079C140.857 59.5079 142.874 55.0558 142.684 53.64C142.646 53.297 142.539 52.9649 142.371 52.6634C142.203 52.362 141.975 52.0971 141.703 51.8845C141.43 51.6719 141.118 51.5158 140.784 51.4254C140.45 51.335 140.101 51.3121 139.758 51.358C139.415 51.404 139.085 51.5179 138.787 51.6931C138.489 51.8682 138.229 52.1011 138.022 52.3779C137.816 52.6548 137.667 52.9701 137.584 53.3052C137.501 53.6403 137.487 53.9886 137.541 54.3294Z" fill="black"/>
<path d="M137.619 64.219C137.619 64.219 138.796 52.1164 145.807 45.6808C148.764 42.9986 150.77 39.4328 151.524 35.5177C151.867 33.6565 152.038 31.7679 152.035 29.8755" stroke="#535461" stroke-width="2" stroke-miterlimit="10"/>
<path d="M156.429 25.7921C155.899 27.118 151.932 29.9955 151.932 29.9955C151.932 29.9955 151.08 25.1838 151.616 23.8578C151.874 23.2212 152.375 22.7127 153.008 22.4444C153.642 22.1761 154.357 22.1698 154.995 22.427C155.633 22.6842 156.143 23.1838 156.412 23.8158C156.681 24.4479 156.687 25.1607 156.429 25.7973V25.7921Z" fill="#6C63FF"/>
<path d="M157.439 34.7349C156.267 35.5565 151.375 35.8263 151.375 35.8263C151.375 35.8263 153.281 31.3231 154.453 30.5015C154.731 30.294 155.048 30.1442 155.385 30.0611C155.722 29.9779 156.072 29.9631 156.415 30.0174C156.758 30.0717 157.087 30.1941 157.381 30.3773C157.676 30.5606 157.93 30.8009 158.13 31.0841C158.33 31.3673 158.471 31.6875 158.544 32.026C158.618 32.3644 158.622 32.7141 158.558 33.0544C158.494 33.3946 158.361 33.7185 158.169 34.0069C157.977 34.2953 157.728 34.5422 157.439 34.7331V34.7349Z" fill="#6C63FF"/>
<path d="M152.196 47.2149C150.767 47.3348 146.408 45.0991 146.408 45.0991C146.408 45.0991 150.333 42.1722 151.761 42.0523C152.447 41.9948 153.128 42.2114 153.653 42.6545C154.179 43.0976 154.507 43.7309 154.565 44.415C154.622 45.0991 154.405 45.7781 153.961 46.3025C153.517 46.827 152.882 47.1539 152.196 47.2114V47.2149Z" fill="#6C63FF"/>
<path d="M146.095 55.7645C144.708 56.1172 140.034 54.659 140.034 54.659C140.034 54.659 143.405 51.1132 144.792 50.7535C145.459 50.5812 146.166 50.6799 146.759 51.0279C147.353 51.376 147.783 51.9448 147.956 52.6093C148.129 53.2738 148.03 53.9795 147.681 54.5713C147.332 55.163 146.762 55.5922 146.095 55.7645Z" fill="#6C63FF"/>
<path d="M146.219 34.0508C146.799 35.3573 150.854 38.1062 150.854 38.1062C150.854 38.1062 151.543 33.268 150.964 31.9614C150.675 31.3502 150.158 30.8758 149.523 30.6398C148.888 30.4038 148.186 30.4248 147.566 30.6983C146.946 30.9718 146.459 31.4762 146.207 32.1036C145.955 32.7311 145.96 33.4318 146.219 34.0561V34.0508Z" fill="#6C63FF"/>
<path d="M139.212 44.1399C140.157 45.2137 144.849 46.6207 144.849 46.6207C144.849 46.6207 144.057 41.7984 143.111 40.7246C142.888 40.4638 142.615 40.2497 142.308 40.095C142.001 39.9403 141.667 39.8479 141.324 39.8233C140.981 39.7987 140.636 39.8423 140.31 39.9516C139.985 40.0609 139.684 40.2337 139.425 40.46C139.167 40.6863 138.956 40.9616 138.805 41.2698C138.655 41.578 138.567 41.913 138.547 42.2554C138.527 42.5978 138.575 42.9407 138.69 43.2642C138.804 43.5877 138.981 43.8854 139.212 44.1399Z" fill="#6C63FF"/>
<path d="M133.751 54.8813C134.501 56.0979 138.886 58.2754 138.886 58.2754C138.886 58.2754 138.924 53.3896 138.179 52.1712C137.809 51.6087 137.233 51.2122 136.575 51.0658C135.916 50.9195 135.226 51.0348 134.651 51.3873C134.076 51.7398 133.662 52.3018 133.495 52.9541C133.329 53.6063 133.424 54.2976 133.76 54.8813H133.751Z" fill="#6C63FF"/>
<path d="M128.604 16.8225C128.897 15.7488 129.251 14.6697 129.498 13.5818C129.201 14.6697 128.846 15.7523 128.604 16.8225Z" fill="url(#paint0_linear)"/>
<path d="M127.288 27.1656C127.263 27.1233 127.246 27.081 127.226 27.0422C127.226 27.0246 127.209 27.0105 127.201 26.9928C127.163 27.011 127.123 27.0269 127.083 27.0404C127.005 27.0704 126.926 27.0986 126.844 27.1216C126.763 27.1445 126.729 27.1568 126.668 27.1709C126.616 27.1886 126.564 27.2021 126.51 27.2115L126.524 27.2432C126.59 27.2291 126.653 27.2168 126.719 27.1991L126.737 27.4178C126.811 27.4178 126.88 27.4072 126.947 27.4072C126.979 27.4054 127.011 27.4054 127.042 27.4072C127.18 27.4072 127.3 27.4072 127.396 27.4072C127.359 27.3279 127.32 27.245 127.288 27.1656ZM163.173 84.1398C162.342 83.0237 160.684 71.0445 160.684 71.0445C160.684 71.0445 157.423 62.5265 158.312 59.1271C159.201 55.7276 155.883 47.0298 155.883 47.0298C155.883 47.0298 153.691 46.0794 153.573 44.6689C153.573 44.6689 144.623 41.8478 144.204 39.7319C143.864 37.9969 138.314 36.7521 136.32 36.3589C135.711 33.9116 135.1 31.6283 134.649 30.3817C134.527 29.9938 134.412 29.6588 134.306 29.3943C133.544 27.4548 131.19 27.2785 129.482 27.4336C129.408 27.1031 129.27 26.7899 129.077 26.5115C129.049 26.4158 128.993 26.3305 128.916 26.2664C128.88 26.2353 128.841 26.207 128.8 26.1818C128.769 26.1246 128.728 26.0733 128.679 26.0301C128.631 25.9866 128.577 25.9487 128.52 25.9173C128.479 25.8951 128.437 25.8757 128.393 25.8591C128.291 25.8202 128.185 25.7913 128.077 25.7727C127.951 25.7469 127.823 25.7304 127.695 25.7233C128.007 25.5872 128.285 25.3844 128.51 25.1291C128.662 24.95 128.776 24.741 128.844 24.5156C128.9 24.3281 128.925 24.1327 128.918 23.9372C128.872 24.0178 128.819 24.0939 128.759 24.1647C128.833 23.3836 128.419 22.5901 128.183 21.8126C127.896 20.8003 127.842 19.7363 128.027 18.7005C128.264 17.1383 128.851 15.5585 129.249 13.9681C129.25 13.9593 129.25 13.9505 129.249 13.9417C129.457 13.1518 129.586 12.3432 129.634 11.5279C129.703 9.88279 129.28 8.24126 128.602 6.74254C127.999 5.41486 127.11 4.10833 125.748 3.56879C124.737 3.16149 123.604 3.22673 122.515 3.15973C120.072 3.0081 117.742 2.15118 115.419 1.37185C113.097 0.592519 110.707 -0.116286 108.262 0.0194799C105.817 0.155246 103.302 1.3313 102.186 3.48945C101.833 4.16299 101.629 4.91235 101.207 5.54533C100.415 6.73902 98.9971 7.33674 97.8145 8.16015C96.6319 8.98356 95.5907 10.1526 95.1629 11.5473C94.9293 12.2987 94.8964 13.0979 95.0674 13.8659C95.1059 14.0393 95.1555 14.2101 95.2159 14.3772C95.3837 14.8431 95.6454 15.2697 95.9849 15.6308C96.2409 15.8977 96.5352 16.1253 96.8582 16.3061C97.2637 16.5303 97.6978 16.6988 98.1486 16.8069C98.1327 16.8598 98.1168 16.9162 98.0991 16.9708C98.0708 17.0608 98.0461 17.1472 98.0196 17.2441C97.9612 17.461 97.9064 17.6814 97.8605 17.9036C97.8586 17.9194 97.8586 17.9354 97.8605 17.9512C97.6434 18.9541 97.5343 19.9772 97.5352 21.0033C97.5349 21.4885 97.5596 21.9734 97.6095 22.4561C98.3166 29.6112 104.238 35.2552 111.555 35.6219C111.806 35.6343 112.059 35.6413 112.315 35.6413C112.432 35.6413 112.547 35.6413 112.669 35.6413C112.784 35.7929 112.897 35.9481 113.005 36.0997C113.113 36.2514 113.212 36.4065 113.305 36.5582L113.049 36.2937L112.793 36.0592C112.723 36.1543 112.646 36.2434 112.561 36.3254C112.394 36.2668 112.223 36.2185 112.05 36.1809C111.317 36.0186 110.199 35.9587 108.729 36.4012C107.376 36.805 105.723 37.6355 103.789 39.2135L94.3656 44.8558L89.2675 47.9484L87.4308 52.4269C87.4308 52.4269 86.0502 57.7483 84.514 63.8454C84.4539 63.863 84.3956 63.8806 84.3372 63.9018C84.2128 63.8877 84.0877 63.8806 83.9625 63.8806C83.0712 63.8786 82.2138 64.2211 81.5703 64.8362C80.9269 65.4514 80.5475 66.2913 80.5118 67.1796C77.4572 70.8823 77.2839 74.585 78.0016 76.2847C78.0666 76.444 78.1484 76.5959 78.2456 76.7379C78.7158 77.4149 79.5944 79.1605 80.4853 81.0207C80.4623 81.1741 80.4482 81.3028 80.4411 81.3998C80.4395 81.4315 80.4395 81.4632 80.4411 81.495C80.4411 81.495 80.9714 89.484 79.2037 91.7744C78.8166 92.2734 78.8749 92.9293 79.2037 93.6557C80.3881 96.2688 85.0708 99.7581 85.0708 99.7581C85.0708 99.7581 90.687 99.7282 93.8159 99.3879C93.807 99.7017 93.8 100.014 93.7929 100.319C93.7222 103.401 93.7222 105.984 93.7222 105.984L93.6055 109.216C93.6055 109.216 92.5449 116.027 92.0145 117.905C91.6804 119.083 92.0658 129.988 92.4017 138.005H147.736C148.386 133.262 147.469 118.852 147.469 118.852C147.469 118.852 146.597 115.126 146.565 111.878C146.564 111.875 146.563 111.871 146.563 111.867C146.563 111.863 146.564 111.859 146.565 111.855C146.565 111.572 146.565 111.295 146.576 111.023L146.977 111.009L147.698 110.984H147.764C147.764 110.984 147.782 110.917 147.822 110.808C147.918 110.536 148.048 110.277 148.209 110.038C148.517 109.584 148.998 109.14 149.721 109.11C150.12 109.094 150.739 108.772 151.437 108.296C151.442 108.297 151.447 108.297 151.451 108.296C153.331 107.028 155.814 104.688 156.417 104.304C157.246 103.775 161.216 100.248 161.216 100.248C161.216 100.248 161.809 99.5007 162.44 98.5997L162.463 98.568C163.248 97.4395 164.082 96.0907 163.877 95.6658C163.523 94.9041 164.114 93.0827 164.114 93.0827C165.958 89.7168 164.004 85.2559 163.173 84.1398ZM128.99 29.9074C129.007 29.96 129.018 30.0145 129.022 30.0696C128.978 30.0114 128.934 29.9497 128.89 29.8933L128.847 29.8369L128.817 29.7946L128.884 29.7029C128.884 29.7029 128.884 29.7029 128.884 29.7152C128.931 29.7724 128.967 29.8375 128.99 29.9074ZM128.396 28.3452C128.204 28.384 128.052 28.4193 127.953 28.4457C127.827 28.2236 127.707 28.0014 127.599 27.7757C127.883 27.9397 128.15 28.1304 128.396 28.3452ZM128.064 28.6238C128.064 28.6203 128.064 28.6167 128.064 28.6132L128.078 28.6238C128.151 28.6714 128.221 28.7172 128.287 28.7649C128.345 28.8072 128.398 28.8477 128.451 28.89C128.416 28.9518 128.377 29.0152 128.338 29.0664C128.276 28.9694 128.218 28.8759 128.161 28.779C128.126 28.7402 128.094 28.6873 128.064 28.6238ZM127.004 26.448C127.345 26.4144 127.689 26.4144 128.031 26.448C128.078 26.448 128.121 26.4568 128.163 26.4639C128.259 26.4787 128.353 26.5029 128.444 26.5362C128.653 26.8277 128.782 27.1688 128.817 27.5253L128.722 27.5394L128.628 27.5571C128.451 27.587 128.275 27.617 128.137 27.6452L127.96 27.6823C127.725 27.7334 127.589 27.7722 127.583 27.7739C127.56 27.7263 127.537 27.6823 127.513 27.6364C127.474 27.5606 127.433 27.483 127.398 27.4072C127.362 27.3314 127.316 27.245 127.279 27.1656C127.255 27.1233 127.237 27.081 127.217 27.0422C127.217 27.0246 127.2 27.0105 127.193 26.9928C127.182 26.9741 127.174 26.9547 127.166 26.9347C127.058 26.716 126.959 26.4974 126.864 26.2823C126.853 26.2611 126.844 26.2382 126.836 26.217L126.97 26.2082V26.2541L127.004 26.448ZM84.8269 135.826C84.8128 133.201 84.6218 130.36 84.0915 127.694C83.8652 126.56 83.6319 125.427 83.395 124.312C83.3349 124.034 83.2766 123.759 83.2183 123.484L82.6738 123.556H82.6243C81.1394 116.572 79.5873 110.418 79.5873 110.418C79.5873 110.418 76.5044 98.6773 76.8614 97.7411C76.9074 97.6194 76.8491 97.2914 76.7183 96.8101C75.9723 94.1406 72.8575 86.7846 71.7686 84.2702C71.7686 84.2597 71.7597 84.2473 71.7562 84.2385C71.5794 83.8171 71.4521 83.5332 71.4133 83.4504L71.6696 79.6983L71.6837 79.4726L71.7173 78.993L71.7032 78.9807L71.7173 78.7585C71.7173 78.7585 69.0268 76.558 64.4696 74.9694C64.2928 74.9059 64.1054 74.8442 63.9198 74.7842C64.1478 73.2661 64.4501 71.5523 64.8443 69.8826C64.8814 69.7151 64.9221 69.5528 64.9645 69.3889C65.0016 69.2249 65.0441 69.0662 65.0865 68.9058C65.1537 68.6448 65.2261 68.3874 65.3004 68.1335C65.5461 68.0559 65.7883 67.9695 66.0269 67.8778L66.1189 67.8425C69.0588 66.7015 71.4846 64.5366 72.9472 61.7487C74.4097 58.9608 74.8099 55.7387 74.0737 52.6791C73.6539 50.9438 72.8787 49.314 71.7969 47.892C71.7155 47.7827 71.6289 47.6734 71.5423 47.5658C71.4557 47.4582 71.3514 47.3383 71.2542 47.229C71.765 46.0706 72.3678 44.9686 72.4173 43.8419C72.4262 43.6993 72.4262 43.5562 72.4173 43.4135V43.3958C72.3519 42.6712 72.0302 41.9377 71.2807 41.1672C70.1864 40.037 68.6291 39.4639 67.0717 39.1889C65.5143 38.9138 63.9269 38.9067 62.3606 38.7216C59.7638 38.4113 57.2342 37.6126 54.6374 37.3675C51.4388 37.072 48.2185 37.6192 45.2984 38.9544C43.3662 39.836 41.4093 41.377 41.2927 43.4911C41.1972 45.2384 42.4169 46.9134 42.1094 48.6396C41.8035 50.3358 40.0711 51.6705 40.2232 53.3861C40.2815 54.0561 40.6262 54.6556 41.0576 55.1899C41.206 55.3662 41.3634 55.5425 41.526 55.7188C42.1553 56.3835 42.8483 57.0218 43.2001 57.8593C43.2142 57.8946 43.2283 57.9299 43.2407 57.9651C43.5395 58.7921 43.4051 59.8376 42.6662 60.3119C42.6703 60.3151 42.6734 60.3194 42.675 60.3243C42.6856 60.3384 42.6962 60.349 42.7051 60.3631C42.7062 60.3602 42.7062 60.3571 42.7051 60.3543C42.9671 60.6641 43.3203 60.8837 43.7145 60.982L43.8647 61.0278C43.7427 61.16 43.6278 61.2976 43.5112 61.4422L43.4352 61.5427C43.2403 61.8039 43.0632 62.0778 42.9048 62.3625C42.8147 62.5212 42.7281 62.6799 42.6556 62.8386C42.4133 63.3223 42.2379 63.8366 42.1341 64.3673C41.945 65.5345 42.2119 66.7511 41.9255 67.8937C41.572 69.3042 40.453 70.3868 39.8219 71.6969C38.6269 74.1654 39.3039 77.0623 39.5444 79.7882C39.8714 83.4909 39.3411 87.2095 38.8125 90.8875C38.532 92.8435 38.2515 94.8012 37.9711 96.7607C37.264 101.679 36.5569 106.597 35.8498 111.515C35.5917 113.317 35.2859 115.218 34.082 116.609H34.0944C34.0944 116.609 34.0944 116.62 34.082 116.623C34.4434 116.781 34.8278 116.879 35.2205 116.916C36.792 117.073 38.4572 116.315 39.8714 115.486C40.9913 114.84 42.052 114.098 43.041 113.266C42.896 113.795 42.7404 114.372 42.5743 114.992C42.5748 114.998 42.5748 115.004 42.5743 115.01C40.5785 122.592 37.3683 136.491 37.3683 136.491C37.3683 136.491 37.0766 137.096 36.6983 137.997H86.5487C85.9653 137.291 85.4226 136.616 84.9984 136.071L84.8269 135.826ZM47.9164 65.7214C47.9288 65.7003 47.9376 65.6809 47.95 65.6615C47.95 65.7179 47.95 65.7726 47.95 65.8255C47.95 65.8783 47.95 65.926 47.95 65.9753C47.95 66.0247 47.95 66.0194 47.95 66.0441C47.95 66.0688 47.95 66.0441 47.95 66.0441C47.95 66.1164 47.9341 66.1887 47.9217 66.261C47.9217 66.261 47.9217 66.2698 47.9217 66.2768L48.0985 66.3421L48.3035 66.4267C49.515 66.9039 50.7418 67.3359 51.984 67.7226C52.1113 67.7632 52.2403 67.802 52.3693 67.839L52.3959 68.0577C52.4277 68.2816 52.4577 68.509 52.486 68.7365C52.486 68.7365 52.486 68.7471 52.486 68.7541C52.5656 69.3836 52.6433 70.0113 52.7123 70.6249C52.7123 70.6249 49.4667 69.3906 49.5074 71.2649C49.5055 71.2984 49.5055 71.3319 49.5074 71.3654C49.5038 71.41 49.5038 71.4548 49.5074 71.4994C49.5374 72.9593 49.9953 73.8251 50.0872 74.2694C50.0817 74.2878 50.072 74.3047 50.0589 74.3188C49.9805 74.489 49.9534 74.6783 49.9811 74.8636C49.978 75.179 50.0029 75.4941 50.0554 75.8051C49.9599 75.8633 49.8662 75.9215 49.7725 75.9815C49.7018 76.0255 49.6346 76.0749 49.5657 76.1243C49.132 74.6239 48.5647 73.1652 47.8704 71.7657C47.3843 70.7677 46.8381 69.7274 46.8434 68.6325C46.8434 68.5619 46.8434 68.4896 46.8522 68.4174C46.8719 68.1 46.9325 67.7865 47.0325 67.4846C47.0732 67.37 47.1174 67.2572 47.1669 67.1461C47.2824 66.8821 47.4116 66.6244 47.554 66.3738C47.6459 66.2081 47.7432 66.0441 47.8368 65.8783C47.8669 65.829 47.8952 65.7778 47.9235 65.7285L47.9164 65.7214ZM127.288 27.1656C127.263 27.1233 127.246 27.081 127.226 27.0422C127.226 27.0246 127.209 27.0105 127.201 26.9928C127.163 27.011 127.123 27.0269 127.083 27.0404C127.005 27.0704 126.926 27.0986 126.844 27.1216C126.763 27.1445 126.729 27.1568 126.668 27.1709L126.51 27.2115L126.524 27.2432C126.59 27.2291 126.653 27.2168 126.719 27.1991L126.737 27.4178C126.811 27.4178 126.88 27.4072 126.947 27.4072H127.042C127.18 27.4072 127.3 27.4072 127.396 27.4072C127.359 27.3279 127.32 27.245 127.288 27.1656Z" fill="url(#paint1_linear)"/>
<path d="M88.663 53.0635L87.6024 53.5307C87.6024 53.5307 80.6887 80.3207 80.6887 82.4859C80.6887 84.6511 95.3486 96.699 95.3486 96.699L97.6361 81.2993C97.6361 81.2993 94.3516 45.9843 88.663 53.0635Z" fill="#E8F5FF"/>
<path d="M120.82 44.5417L114.695 41.3539C114.352 39.8951 113.743 38.5115 112.899 37.2721C112.002 35.9814 110.811 34.7137 109.326 34.0525C105.573 32.3739 125.2 23.5632 125.2 23.5632C125.51 24.6216 125.874 25.6633 126.291 26.6841C127.302 29.1737 128.98 32.3933 131.142 33.3102C134.817 34.8706 120.82 44.5417 120.82 44.5417Z" fill="#FFC1C7"/>
<path opacity="0.1" d="M126.291 26.6841C125.452 29.626 123.708 32.2307 121.305 34.1306C118.902 36.0304 115.962 37.1293 112.899 37.2721C112.002 35.9814 110.811 34.7137 109.326 34.0525C105.573 32.3739 125.2 23.5632 125.2 23.5632C125.51 24.6216 125.874 25.6633 126.291 26.6841Z" fill="black"/>
<path d="M126.843 22.2356C126.844 25.1209 125.986 27.9415 124.38 30.3408C122.773 32.7401 120.489 34.6103 117.817 35.7149C115.145 36.8194 112.204 37.1087 109.367 36.5461C106.53 35.9835 103.923 34.5943 101.878 32.5543C99.8322 30.5142 98.4392 27.9149 97.8748 25.0851C97.3104 22.2554 97.6001 19.3222 98.7072 16.6566C99.8142 13.991 101.689 11.7128 104.094 10.11C106.5 8.50721 109.327 7.65191 112.22 7.65225C114.143 7.64339 116.048 8.01453 117.826 8.74425C119.604 9.47397 121.22 10.5478 122.579 11.9037C123.939 13.2597 125.016 14.8709 125.747 16.6442C126.479 18.4176 126.851 20.318 126.843 22.2356Z" fill="#FFC1C7"/>
<path d="M128.953 42.6694L124.965 51.9509L121.448 58.1115H110.187L106.903 49.6887L108.234 40.9538H116.834L122.386 40.6417L124.262 40.0176L125.471 40.7017L128.953 42.6694Z" fill="#575A89"/>
<path opacity="0.1" d="M127.58 30.2969C127.58 30.2969 130.067 30.8258 127.84 32.6472C125.612 34.4686 117.928 40.2607 117.928 40.2607C117.928 40.2607 120.627 42.6586 120.069 45.4674L129.012 40.4952L130.603 32.5397C130.603 32.5397 130.781 30.1488 127.58 30.2969Z" fill="black"/>
<path opacity="0.1" d="M119.687 40.2607L113.998 41.197C113.998 41.197 115.172 45.5256 114.585 46.7546C114.567 46.7928 114.553 46.8323 114.541 46.8727L112.22 53.1303L113.959 58.0443L119.98 49.8543L117.928 46.7546C117.928 46.7546 120.097 43.8876 121.387 42.8932C122.678 41.8987 119.687 40.2607 119.687 40.2607Z" fill="black"/>
<path d="M119.687 40.0193L113.998 40.9538C113.998 40.9538 115.172 45.2824 114.585 46.5114C114.567 46.5496 114.553 46.5891 114.541 46.6295L112.22 52.8871L113.959 57.8011L119.98 49.6058L117.928 46.5061C117.928 46.5061 120.097 43.6391 121.387 42.6447C122.678 41.6502 119.687 40.0193 119.687 40.0193Z" fill="#DCE6F2"/>
<path d="M127.819 29.8298C127.819 29.8298 130.306 30.3588 128.077 32.1802C125.847 34.0016 117.928 40.2609 117.928 40.2609C117.928 40.2609 120.861 42.1916 120.304 44.9986L129.247 40.0282L130.838 32.0726C130.838 32.0726 131.015 29.6817 127.819 29.8298Z" fill="#575A89"/>
<path opacity="0.1" d="M113.289 37.824C113.289 37.824 113.832 38.836 116.227 40.661C116.227 40.661 112.239 42.7768 113.765 45.7513L107.665 44.1644L106.726 41.2393L113.289 37.824Z" fill="black"/>
<path d="M113.054 37.5913C113.054 37.5913 113.597 38.6034 115.992 40.4283C115.992 40.4283 112.004 42.5335 113.53 45.5169L107.431 43.93L106.492 41.0066L113.054 37.5913Z" fill="#575A89"/>
<path opacity="0.1" d="M128.953 42.6694L124.965 51.9508L121.455 58.1114H110.187L106.903 49.6887L108.232 40.9538H110.624C110.585 42.992 111.331 45.3865 111.283 46.2769C111.202 47.7403 113.472 55.6359 113.472 55.6359C113.472 55.6359 118.221 47.9731 120.097 47.2907C121.276 46.8623 123.774 43.2971 125.469 40.7017L128.953 42.6694Z" fill="black"/>
<path d="M144.663 91.5116L144.259 92.0194C144.259 92.0194 147.191 106.702 146.38 110.036C146.242 110.637 146.163 111.25 146.145 111.866V111.892C146.002 115.285 147.029 119.687 147.029 119.687C147.029 119.687 147.849 132.665 147.382 138.002H92.4725C92.1508 130.11 91.8043 119.885 92.119 118.751C92.6493 116.88 93.7099 110.094 93.7099 110.094L93.8266 106.878C93.8266 106.878 93.8266 103.769 93.9221 100.306C93.9627 98.7495 94.0228 97.115 94.1094 95.6657C94.2208 93.8425 94.3764 92.3068 94.5903 91.5521C94.722 90.9801 94.7978 90.3967 94.8165 89.8101C94.8165 89.7555 94.8165 89.699 94.8271 89.6426C94.8271 89.4663 94.8448 89.2759 94.8519 89.0801C94.8519 89.0255 94.8519 88.9708 94.8519 88.9038C94.8855 87.7683 94.8731 86.4212 94.836 85.0248C94.836 84.949 94.836 84.8714 94.836 84.7938C94.8059 83.7465 94.7617 82.678 94.7122 81.6624C94.5584 78.4886 94.3587 75.805 94.3587 75.805L87.6147 53.5183L89.432 49.0538L94.4754 45.9718L103.8 40.356C108.349 36.6268 111.343 37.0747 112.485 37.4838C112.596 37.5215 112.705 37.5657 112.81 37.616C112.846 37.6336 112.874 37.6477 112.901 37.6636C112.937 37.6808 112.972 37.7008 113.005 37.7236C112.692 37.8736 112.42 38.0968 112.213 38.3742C111.979 38.6898 111.812 39.0498 111.723 39.4321C111.664 39.669 111.622 39.9101 111.598 40.1532C111.575 40.4089 111.566 40.6734 111.566 40.9396C111.579 41.5235 111.629 42.106 111.716 42.6834C111.716 42.694 111.716 42.7081 111.716 42.7222C111.775 43.1348 111.847 43.5386 111.918 43.9177C111.917 43.9241 111.917 43.9306 111.918 43.9371C111.999 44.3796 112.08 44.7887 112.135 45.1413C112.146 45.2048 112.155 45.263 112.163 45.3176C112.202 45.5507 112.221 45.7867 112.218 46.0229C112.238 46.5934 112.315 47.1604 112.448 47.7156C112.494 47.9483 112.547 48.1969 112.605 48.4561C112.685 48.8088 112.772 49.1931 112.865 49.5846C112.916 49.7997 112.971 50.0218 113.028 50.2422C113.049 50.3304 113.072 50.4186 113.093 50.5085L113.129 50.6478C113.505 52.1412 113.913 53.6276 114.164 54.5268C114.313 55.0558 114.407 55.382 114.407 55.382C114.407 55.382 117.069 51.0886 119.194 48.6448C119.226 48.6095 119.254 48.576 119.284 48.5443C119.494 48.3027 119.701 48.0823 119.899 47.8884C120.332 47.4582 120.721 47.1514 121.034 47.0385C121.101 47.0141 121.165 46.984 121.227 46.9486C122.096 46.4567 123.5 44.6705 124.813 42.7998C124.942 42.6235 125.068 42.4313 125.195 42.2497C125.487 41.83 125.77 41.4086 126.037 41.0049C126.242 40.6963 126.438 40.3966 126.624 40.1109C127.507 38.7392 128.13 37.7165 128.13 37.7165L129.356 37.6618L129.57 37.6513H129.714L135.284 37.3938C135.284 37.3938 135.524 37.4344 135.92 37.5137C135.941 37.5137 135.963 37.5137 135.986 37.5278C137.962 37.9193 143.452 39.1588 143.788 40.8779C144.198 42.9832 153.055 45.7919 153.055 45.7919C153.172 47.2025 155.341 48.1317 155.341 48.1317C155.341 48.1317 158.625 56.789 157.746 60.1814C156.879 63.5314 160.006 71.8185 160.089 72.0512L159.489 72.8058L144.663 91.5116Z" fill="#E8F5FF"/>
<path opacity="0.1" d="M127.578 29.6816C127.578 29.6816 133 28.1476 134.232 31.3055C135.464 34.4634 138.22 47.2165 138.22 47.2165C138.22 47.2165 131.064 48.5619 129.188 47.2165C128.088 46.4181 126.727 46.063 125.375 46.2221L121.329 48.9709L120.134 48.6183C120.134 48.6183 126.608 39.0195 128.015 35.7575C129.422 32.4956 129.897 31.0375 127.578 29.6816Z" fill="black"/>
<path d="M127.343 28.9763C127.343 28.9763 132.768 27.4423 134.006 30.6002C135.243 33.758 137.994 46.5112 137.994 46.5112C137.994 46.5112 130.84 47.8565 128.962 46.5112C127.863 45.7127 126.502 45.3576 125.151 45.5168L121.101 48.2656L119.906 47.913C119.906 47.913 126.379 38.3141 127.787 35.0522C129.194 31.7903 129.662 30.3357 127.343 28.9763Z" fill="#E8F5FF"/>
<path opacity="0.1" d="M90.9505 79.8533C90.9505 79.8533 94.9968 80.8477 95.7605 83.1293C96.5242 85.4109 92.7695 85.469 92.7695 85.469C92.7695 85.469 90.482 81.4331 90.9505 79.8533Z" fill="black"/>
<path opacity="0.1" d="M106.022 96.699C106.022 96.699 96.1122 116.939 98.3997 118.869C100.687 120.8 106.022 96.699 106.022 96.699Z" fill="black"/>
<path opacity="0.1" d="M119.687 81.7839C119.687 81.7839 127.605 101.444 126.021 104.48C124.437 107.516 129.422 104.48 129.422 104.48L119.687 81.7839Z" fill="black"/>
<path d="M130.712 101.204C130.712 101.204 103.97 102.491 111.771 110.797C119.572 119.104 135.581 111.15 135.581 111.15L130.712 101.204Z" fill="#FFC1C7"/>
<path opacity="0.1" d="M126.843 22.2356C126.845 24.1487 126.468 26.0434 125.734 27.8108C125.489 27.839 125.243 27.8567 125.006 27.8673C124.652 27.0932 124.842 26.1993 124.849 25.3476C124.856 24.496 124.541 23.4945 123.719 23.2653C122.08 22.8051 120.949 25.8607 119.333 25.3089C118.096 24.8892 118.419 23.0167 117.707 21.9359C117.143 21.0807 116.013 20.8392 115.135 20.3031C113.266 19.1588 113.323 17.3286 112.455 15.5972C111.546 13.7828 109.627 14.3189 107.96 15.3891C106.694 16.2037 105.601 17.2951 104.247 17.944C103.075 18.5082 101.758 18.7127 100.459 18.7427C99.6592 18.7736 98.859 18.6893 98.0833 18.4923C98.9957 15.0707 101.125 12.0968 104.073 10.1254C107.022 8.15397 110.589 7.31954 114.109 7.77771C117.629 8.23589 120.862 9.95539 123.204 12.6156C125.547 15.2757 126.839 18.695 126.841 22.2356H126.843Z" fill="black"/>
<path d="M107.965 14.9219C106.698 15.7365 105.607 16.8262 104.253 17.4786C103.081 18.041 101.764 18.2456 100.464 18.2755C98.8735 18.3108 97.1605 18.0322 96.0734 16.8861C95.0746 15.8282 94.836 14.2008 95.2585 12.8132C95.6809 11.4255 96.6939 10.2742 97.8835 9.44016C99.0732 8.60617 100.454 8.02961 101.242 6.83592C101.659 6.2047 101.861 5.46063 102.207 4.78885C103.316 2.63952 105.808 1.47581 108.218 1.33123C110.627 1.18664 113.015 1.9025 115.31 2.67831C117.605 3.45411 119.917 4.3075 122.339 4.46795C123.417 4.53495 124.538 4.46795 125.538 4.87525C126.883 5.42008 127.765 6.72308 128.367 8.049C129.04 9.54419 129.459 11.1769 129.388 12.8096C129.24 16.2955 126.931 19.7161 127.946 23.0556C128.214 23.946 128.718 24.8593 128.45 25.7497C128.057 27.0492 126.376 27.3454 125.017 27.4071C124.663 26.6331 124.852 25.7374 124.859 24.8875C124.866 24.0377 124.552 23.0344 123.732 22.8052C122.091 22.3485 120.96 25.3988 119.348 24.8487C118.119 24.4273 118.437 22.5566 117.723 21.4757C117.159 20.6188 116.028 20.379 115.151 19.843C113.282 18.6987 113.339 16.8685 112.471 15.137C111.555 13.3139 109.634 13.8499 107.965 14.9219Z" fill="#99607E"/>
<path d="M82.0339 82.0168L80.6851 82.4858C80.6851 82.4858 81.2154 90.4413 79.4477 92.7229C77.6799 95.0044 85.2529 100.677 85.2529 100.677C85.2529 100.677 95.6331 100.618 95.9266 99.7951C96.22 98.9716 95.3962 85.0547 95.3962 85.0547C95.3962 85.0547 89.8243 82.8895 90.2928 79.439C90.2928 79.439 88.5922 87.5691 86.0714 87.2182C83.5506 86.8673 80.6886 84.7673 82.0339 82.0168Z" fill="#E8F5FF"/>
<path opacity="0.1" d="M86.5328 89.6796C88.4981 89.6796 90.0913 88.2263 90.0913 86.4335C90.0913 84.6408 88.4981 83.1875 86.5328 83.1875C84.5675 83.1875 82.9744 84.6408 82.9744 86.4335C82.9744 88.2263 84.5675 89.6796 86.5328 89.6796Z" fill="black"/>
<path d="M90.4236 82.2514C90.4236 82.2514 89.7165 60.7263 83.5612 65.5222C77.4059 70.3181 77.3458 76.0538 78.5178 77.7482C79.6899 79.4426 83.4481 87.9254 83.4481 87.9254C84.036 88.2652 84.6962 88.4613 85.3747 88.4975C86.0532 88.5338 86.7306 88.4092 87.3515 88.1339C87.9724 87.8587 88.5191 87.4406 88.9468 86.914C89.3744 86.3874 89.6709 85.7672 89.812 85.1043L90.4236 82.2514Z" fill="#FFC1C7"/>
<path opacity="0.1" d="M128.821 27.7281C128.792 27.6335 128.737 27.5491 128.662 27.4848C128.358 27.208 127.704 27.111 126.717 27.1956L126.758 27.6611C128.073 27.5483 128.333 27.8092 128.366 27.8533V27.8974L128.407 27.9556C128.571 28.1754 128.687 28.4269 128.748 28.6941C128.809 28.9613 128.813 29.2382 128.761 29.5072C128.473 30.9442 126.703 32.0885 126.685 32.1008L126.643 32.1255L126.616 32.1661C125.853 33.2963 121.534 36.4859 120.405 37.3111L120.306 37.1982C119.8 37.6355 115.356 41.5163 115.116 43.0027C114.96 43.9354 113.906 44.2968 113.525 44.3974C113.121 44.0923 111.813 43.0538 111.133 41.8901C110.495 40.7951 113.063 38.6582 113.289 37.8242L112.936 37.4627C112.899 37.5967 109.6 40.6717 110.518 42.2427C111.253 43.5034 112.596 44.5825 113.067 44.9387C112.916 46.2998 111.981 54.2924 110.544 56.1861C108.759 58.5399 107.258 70.4027 107.424 74.5445C107.571 78.2243 106.607 85.1748 103.39 88.1599C102.833 88.6993 102.161 89.1063 101.424 89.3506C100.688 89.5948 99.905 89.67 99.1351 89.5704H99.0962H99.0573C99.0114 89.5704 94.3445 90.0465 90.4237 86.7493C87.2152 84.0569 85.398 79.663 85.0197 73.6858H84.9419L84.9101 71.9455C85.78 71.8101 86.5634 71.3436 87.0958 70.6441C87.6281 69.9446 87.8679 69.0666 87.7648 68.1944C87.6617 67.3223 87.2237 66.5239 86.5428 65.9672C85.8619 65.4104 84.9911 65.1385 84.1135 65.2087C83.2358 65.2788 82.4196 65.6855 81.8363 66.3434C81.253 67.0012 80.9481 67.8589 80.9855 68.7363C81.0229 69.6137 81.3999 70.4425 82.0371 71.0485C82.6744 71.6545 83.5223 71.9906 84.4027 71.9861H84.4416L84.4734 73.7158L84.3179 73.7263C84.7068 79.8975 86.6159 84.4624 89.9747 87.2818C92.5275 89.3918 95.7884 90.4562 99.098 90.2598C99.3328 90.2854 99.5689 90.2984 99.8051 90.2986C101.322 90.3064 102.782 89.7209 103.871 88.6677C107.26 85.5204 108.29 78.3142 108.129 74.5092C107.953 70.1206 109.528 58.6845 111.108 56.6022C112.657 54.5586 113.595 46.5961 113.76 45.0533C114.32 44.8963 115.587 44.4009 115.803 43.1137C115.959 42.1828 118.927 39.3141 120.753 37.7254L120.698 37.6619C121.681 36.9461 124.737 34.6892 126.252 33.2399C126.722 32.7902 127.189 32.3406 127.677 31.9122C128.264 31.3938 129.01 30.5704 129.206 29.5971C129.273 29.2758 129.273 28.9443 129.207 28.6229C129.141 28.3015 129.009 27.997 128.821 27.7281Z" fill="black"/>
<path d="M113.006 44.8274C112.932 44.7763 111.172 43.5191 110.289 42.0063C109.374 40.4353 112.672 37.362 112.708 37.228L113.061 37.5895C112.837 38.4217 110.268 40.5605 110.906 41.6537C111.711 43.0342 113.404 44.242 113.422 44.2544L113.006 44.8274Z" fill="#353146"/>
<path d="M120.175 37.653L119.899 37.2739C119.955 37.2334 125.508 33.2274 126.383 31.9314L126.411 31.8927L126.452 31.8662C126.47 31.8539 128.239 30.7113 128.527 29.2725C128.58 29.0039 128.576 28.7272 128.516 28.4602C128.455 28.1932 128.338 27.9419 128.174 27.7227L128.133 27.6628V27.6204C128.098 27.5746 127.838 27.3154 126.523 27.4282L126.482 26.961C127.47 26.8764 128.122 26.9733 128.427 27.2502C128.502 27.3151 128.558 27.4001 128.587 27.4952C128.779 27.7633 128.913 28.0676 128.981 28.3894C129.05 28.7111 129.052 29.0435 128.987 29.366C128.791 30.341 128.046 31.1645 127.458 31.6811C126.972 32.1095 126.503 32.5627 126.035 33.0088C124.258 34.7067 120.369 37.5137 120.175 37.653Z" fill="#E8F5FF"/>
<path d="M84.682 71.3315L84.2136 71.3401L84.2658 74.1801L84.7342 74.1716L84.682 71.3315Z" fill="#E8F5FF"/>
<path d="M84.1747 71.7621C86.0639 71.7621 87.5953 70.2345 87.5953 68.3503C87.5953 66.466 86.0639 64.9385 84.1747 64.9385C82.2856 64.9385 80.7542 66.466 80.7542 68.3503C80.7542 70.2345 82.2856 71.7621 84.1747 71.7621Z" fill="#6C63FF"/>
<path d="M84.1747 71.1838C85.7437 71.1838 87.0155 69.9152 87.0155 68.3503C87.0155 66.7854 85.7437 65.5168 84.1747 65.5168C82.6058 65.5168 81.334 66.7854 81.334 68.3503C81.334 69.9152 82.6058 71.1838 84.1747 71.1838Z" fill="#E8F5FF"/>
<path d="M99.5824 90.071C99.3462 90.0714 99.1102 90.059 98.8753 90.034C95.566 90.2284 92.3058 89.1642 89.752 87.056C86.3933 84.2348 84.4877 79.6752 84.0952 73.4987L84.8023 73.4547C85.1806 79.4319 86.9979 83.8275 90.2081 86.5182C94.1289 89.8065 98.794 89.3393 98.84 89.3393H98.8789H98.9178C99.6879 89.4383 100.471 89.363 101.208 89.1187C101.945 88.8745 102.617 88.4678 103.174 87.9287C106.39 84.9436 107.353 77.9931 107.207 74.3133C107.03 70.1681 108.531 58.3053 110.318 55.9532C111.882 53.892 112.853 44.6017 112.863 44.5083L112.89 44.2438L113.152 44.198C113.168 44.198 114.695 43.9088 114.886 42.7698C115.133 41.2852 119.57 37.4044 120.074 36.9653L120.535 37.4943C118.702 39.0812 115.734 41.9517 115.586 42.8844C115.37 44.175 114.103 44.6687 113.544 44.8239C113.367 46.3685 112.436 54.3293 110.892 56.3728C109.312 58.4552 107.737 69.8912 107.914 74.2798C108.066 78.0848 107.046 85.2928 103.657 88.4383C102.566 89.4942 101.103 90.0805 99.5824 90.071Z" fill="#353146"/>
<g opacity="0.1">
<path opacity="0.1" d="M128.349 18.0675C128.639 16.999 128.989 15.9234 129.233 14.8408C128.941 15.9287 128.589 16.999 128.349 18.0675Z" fill="black"/>
<path opacity="0.1" d="M125.391 26.4637C125.038 25.6897 125.227 24.794 125.234 23.9441C125.241 23.0943 124.927 22.0998 124.106 21.8618C122.466 21.4051 121.334 24.4572 119.722 23.9053C118.485 23.4839 118.812 21.6132 118.098 20.5323C117.534 19.6754 116.404 19.4356 115.527 18.8996C113.657 17.7553 113.714 15.9251 112.848 14.1936C111.937 12.3776 110.019 12.9136 108.35 13.9856C107.083 14.8002 105.992 15.8916 104.638 16.5422C103.466 17.1047 102.149 17.3092 100.85 17.3392C99.2677 17.3762 97.5459 17.0959 96.4587 15.9498C95.6208 15.0682 95.3185 13.7758 95.4918 12.5645C95.4617 12.6473 95.4352 12.7302 95.4087 12.8131C94.9844 14.2007 95.2319 15.8317 96.2236 16.886C97.3108 18.0321 99.0326 18.3107 100.615 18.2754C101.916 18.2455 103.231 18.0409 104.405 17.4785C105.762 16.8261 106.853 15.7364 108.117 14.9218C109.786 13.8498 111.706 13.3138 112.614 15.1299C113.48 16.8614 113.426 18.6916 115.294 19.8359C116.178 20.3648 117.3 20.6117 117.866 21.4686C118.573 22.553 118.26 24.4202 119.491 24.8416C121.101 25.3917 122.232 22.3414 123.873 22.798C124.693 23.0273 125.01 24.0323 125.001 24.8804C124.992 25.7285 124.808 26.6259 125.158 27.4C126.517 27.3383 128.199 27.0473 128.593 25.7426C128.647 25.5553 128.672 25.3609 128.667 25.166C128.093 26.1552 126.615 26.4091 125.391 26.4637Z" fill="black"/>
</g>
<path opacity="0.1" d="M157.34 69.909L159.392 72.0742C159.392 72.0742 161.034 84.0058 161.855 85.1219C162.675 86.238 164.612 90.6777 162.793 94.0119C162.793 94.0119 162.206 95.8262 162.558 96.5862C162.91 97.3461 159.921 101.149 159.921 101.149C159.921 101.149 155.991 104.658 155.169 105.185C154.347 105.712 150.009 109.923 148.544 109.981C147.078 110.039 146.599 111.854 146.599 111.854L138.33 112.146C138.33 112.146 133.762 111.908 132.768 112.552C132.768 112.552 133.299 105.591 128.195 101.028L134.704 98.6879C134.704 98.6879 137.168 97.63 137.93 96.5244C138.409 95.8467 139.089 95.3356 139.875 95.0628C139.875 95.0628 141.692 93.7756 141.75 93.0739C141.808 92.3721 143.972 91.5117 143.972 91.5117L142.747 81.0824L143.392 63.7678C143.392 63.7678 145.445 49.2602 149.785 50.0801C154.124 50.9 157.34 69.909 157.34 69.909Z" fill="black"/>
<path d="M158.047 69.909L160.099 72.0742C160.099 72.0742 161.741 84.0058 162.562 85.1219C163.382 86.238 165.319 90.6777 163.5 94.0119C163.5 94.0119 162.915 95.8262 163.267 96.5862C163.619 97.3461 160.628 101.149 160.628 101.149C160.628 101.149 156.698 104.658 155.876 105.185C155.054 105.712 150.716 109.923 149.251 109.981C147.785 110.039 147.306 111.854 147.306 111.854L139.037 112.146C139.037 112.146 134.465 111.908 133.475 112.552C133.475 112.552 134.006 105.591 128.902 101.028L135.411 98.6879C135.411 98.6879 137.875 97.63 138.637 96.5244C139.116 95.8467 139.796 95.3356 140.582 95.0628C140.582 95.0628 142.399 93.7756 142.457 93.0739C142.516 92.3721 144.679 91.5117 144.679 91.5117L143.454 81.0824L144.099 63.7678C144.099 63.7678 146.152 49.2602 150.492 50.0801C154.831 50.9 158.047 69.909 158.047 69.909Z" fill="#E8F5FF"/>
<path opacity="0.1" d="M150.417 87.3999C150.417 87.3999 156.458 85.8131 158.042 87.7526C159.626 89.692 150.417 87.3999 150.417 87.3999Z" fill="black"/>
<path opacity="0.1" d="M149.01 90.0605C151.063 91.494 157.396 91.5522 157.396 91.5522L149.01 90.0605Z" fill="black"/>
<path opacity="0.1" d="M152.118 97.2261C152.295 97.2843 156.472 101.731 158.225 100.386C159.979 99.0404 152.118 97.2261 152.118 97.2261Z" fill="black"/>
<path opacity="0.1" d="M95.8613 59.9062C95.8613 59.9062 97.0881 68.3308 96.4836 71.762C95.879 75.1932 98.0852 79.4442 98.0852 79.4442L95.8613 59.9062Z" fill="black"/>
<path d="M68.7015 63.3323C67.2873 64.4378 66.255 67.0544 65.5072 69.9302C64.2026 74.9465 63.7766 80.7633 63.7766 80.7633C63.7766 80.7633 52.5161 78.189 53.3363 77.02C53.8525 76.2848 53.1595 70.7448 52.5815 66.7282C52.2368 64.355 51.9292 62.5124 51.9292 62.5124C51.9292 62.5124 72.5729 60.289 68.7015 63.3323Z" fill="#FFCCD0"/>
<path opacity="0.1" d="M68.7015 63.0977C67.2873 64.205 66.255 66.8198 65.5072 69.6956C63.2637 70.3751 60.8776 70.4363 58.602 69.8729C56.3264 69.3095 54.246 68.1424 52.5815 66.4954C52.2368 64.1203 51.9292 62.2778 51.9292 62.2778C51.9292 62.2778 72.5729 60.0562 68.7015 63.0977Z" fill="black"/>
<path d="M74.7543 56.7961C74.7555 59.8629 73.6689 62.8312 71.6868 65.1757C69.7048 67.5202 66.9551 69.0897 63.9244 69.6065C60.8937 70.1233 57.7774 69.554 55.1271 67.9994C52.4767 66.4448 50.4632 64.0051 49.4429 61.1121C48.4226 58.2192 48.4612 55.0594 49.5521 52.1922C50.6429 49.3249 52.7155 46.9349 55.403 45.4453C58.0906 43.9557 61.2199 43.4625 64.2371 44.0529C67.2542 44.6433 69.9647 46.2793 71.8888 48.6713C73.7429 50.9755 74.7537 53.8416 74.7543 56.7961Z" fill="#FFCCD0"/>
<path opacity="0.1" d="M85.0214 138.002H81.3091L80.9962 131.462L80.6692 124.693C80.6692 124.693 81.5124 124.568 82.8559 124.381L83.3986 124.309H83.4428C83.7362 125.682 84.0261 127.093 84.3054 128.502C84.7703 131.003 85.0123 133.54 85.0284 136.083C85.0284 136.26 85.0284 136.436 85.0284 136.602C85.039 137.073 85.0284 137.543 85.0214 138.002Z" fill="black"/>
<path d="M84.309 138.002H37.7537C37.9552 137.545 38.0895 137.268 38.0895 137.268C38.0895 137.268 41.8142 121.015 43.7074 114.139C43.708 114.133 43.708 114.127 43.7074 114.121C43.944 113.187 44.2296 112.266 44.563 111.362C44.5846 111.3 44.6124 111.241 44.6461 111.185C45.583 109.666 46.7568 108.028 45.1145 105.688C43.4723 103.348 44.0539 93.0527 44.0539 93.0527C44.0539 93.0527 46.0479 84.2773 48.1586 79.5978C48.4789 78.8729 48.9335 78.2149 49.4986 77.6583C49.6823 77.479 49.8784 77.3129 50.0854 77.161C50.2429 77.043 50.407 76.9341 50.5769 76.8349L50.6105 76.8137C51.4971 76.3123 52.4817 76.0074 53.4972 75.9198C54.2185 75.8446 54.9466 75.8647 55.6627 75.9797C59.085 76.4805 61.825 77.318 64.0029 78.2719C69.9054 80.8585 71.6926 84.3249 71.7279 84.3972L71.7421 84.4272C71.979 84.9791 75.4437 93.0474 76.6918 96.8118C77.0153 97.7922 77.192 98.4816 77.1213 98.6703C76.7678 99.6048 79.8189 111.304 79.8189 111.304C79.8189 111.304 81.2331 116.946 82.6473 123.56C82.7092 123.835 82.7675 124.11 82.8241 124.388C83.0769 125.589 83.3279 126.813 83.5701 128.035C84.0393 130.553 84.2813 133.108 84.2931 135.669C84.319 136.467 84.3243 137.245 84.309 138.002Z" fill="#FF748E"/>
<path opacity="0.1" d="M53.2196 71.8959C53.2196 71.8959 50.0076 70.6617 50.0465 72.5342C50.0854 74.4067 50.8296 75.3024 50.5945 75.5757C50.3594 75.849 50.7112 77.487 50.7112 77.487C50.7112 77.487 55.051 77.487 57.045 78.3827C59.039 79.2784 66.3893 81.0734 67.328 81.6199C68.2666 82.1665 71.7473 84.6174 71.7473 84.6174L72.0602 79.9766C72.0602 79.9766 68.4629 77.0127 62.5604 75.4928C56.6579 73.973 53.2196 71.8959 53.2196 71.8959Z" fill="black"/>
<path d="M53.2196 71.6615C53.2196 71.6615 50.0076 70.4273 50.0465 72.2998C50.0854 74.1723 50.8296 75.068 50.5945 75.3413C50.3594 75.6146 50.7112 77.2526 50.7112 77.2526C50.7112 77.2526 55.051 77.2526 57.045 78.1501C59.039 79.0476 66.3893 80.8407 67.328 81.3856C68.2667 81.9304 71.7473 84.383 71.7473 84.383L72.0638 79.7564C72.0638 79.7564 68.4664 76.7925 62.5639 75.2726C56.6614 73.7527 53.2196 71.6615 53.2196 71.6615Z" fill="#FF748E"/>
<path opacity="0.1" d="M62.9158 82.8296C62.9158 82.8296 69.0534 89.4574 68.7405 91.2929C68.4276 93.1284 62.9158 82.8296 62.9158 82.8296Z" fill="black"/>
<path opacity="0.1" d="M52.9458 106.772C52.9458 106.772 48.4469 110.907 47.1211 111.141C45.7953 111.376 48.1375 112.155 49.6613 111.533C51.1851 110.91 54.4342 109.272 54.4342 109.272L52.9458 106.772Z" fill="black"/>
<path d="M86.1369 138.002H75.6453C74.1781 136.732 72.7904 135.556 71.9066 134.849C70.4924 133.717 69.4724 132.051 68.8219 130.711C68.6751 130.406 68.5479 130.12 68.44 129.861C68.2469 129.415 68.077 128.958 67.9309 128.495L75.7001 123.893C76.1295 124.257 76.5329 124.65 76.9075 125.07L77.0012 125.178C77.4325 125.686 77.8126 126.262 77.8462 126.735C77.8851 127.285 79.4195 129.413 80.9875 131.457C82.5784 133.535 84.2083 135.523 84.3161 135.657C84.3161 135.657 84.5848 136.022 85.0232 136.582C85.3326 136.988 85.7144 137.474 86.1369 138.002Z" fill="#FFCCD0"/>
<path opacity="0.1" d="M71.8889 48.6712C71.5159 49.5105 71.1818 50.3815 71.1323 51.316C70.9927 54.0137 71.219 60.0456 68.2244 61.3997C66.7413 62.0662 65.1538 60.6028 63.5275 60.5675C62.3573 60.5428 61.2842 61.2833 60.5701 62.209C59.8559 63.1347 59.4122 64.2332 58.8943 65.2805C58.4228 66.2311 57.8797 67.1447 57.2697 68.0135C57.0874 68.2793 56.8865 68.5321 56.6687 68.7699C54.8427 68.0014 53.2167 66.8272 51.9146 65.337C50.6124 63.8468 49.6685 62.0797 49.1548 60.1705C48.6411 58.2613 48.571 56.2603 48.9501 54.32C49.3291 52.3798 50.1471 50.5514 51.3419 48.9742C52.5367 47.397 54.0767 46.1127 55.8445 45.219C57.6123 44.3254 59.5613 43.8461 61.5429 43.8175C63.5246 43.789 65.4866 44.212 67.2796 45.0543C69.0725 45.8967 70.649 47.1362 71.8889 48.6783V48.6712Z" fill="black"/>
<path d="M70.8971 50.84C70.7557 53.5377 70.9838 59.5696 67.9874 60.9219C66.5043 61.5884 64.9169 60.1267 63.2905 60.0915C62.1203 60.065 61.049 60.8073 60.3331 61.7312C59.6172 62.6552 59.177 63.7554 58.6573 64.8045C58.1856 65.755 57.6426 66.6686 57.0327 67.5374C56.6686 68.0523 56.2655 68.5689 55.7051 68.8581C54.7293 69.3659 53.5467 69.0802 52.5002 68.754C51.1426 68.3274 49.805 67.8466 48.4874 67.3118C48.5177 67.1133 48.533 66.913 48.5334 66.7123C48.4945 66.7863 48.4521 66.8551 48.4097 66.9291L48.3266 67.0737C48.1763 67.3382 48.0296 67.6027 47.8952 67.8742C47.844 67.9782 47.7945 68.0858 47.7503 68.1934C47.5725 68.5936 47.4609 69.0199 47.4197 69.4558C47.3296 70.6318 47.9112 71.748 48.4273 72.8059C50.4125 76.8982 51.6393 81.6836 50.1456 85.9769C49.4986 87.8442 48.3778 89.5033 47.5594 91.3071C46.1286 94.5018 45.7075 98.0554 46.352 101.495C46.7604 103.632 47.5788 105.748 47.3773 107.915C47.0238 111.644 43.7994 114.419 40.5697 116.327C38.8249 117.353 36.6895 118.266 34.8369 117.455C36.0178 116.08 36.3218 114.177 36.5764 112.383C37.2729 107.487 37.9711 102.589 38.6712 97.6881C38.9505 95.738 39.2292 93.7879 39.5073 91.8378C40.027 88.1739 40.5538 84.4694 40.2285 80.7826C39.9917 78.0655 39.3235 75.1809 40.5043 72.7212C41.1283 71.4182 42.2402 70.3392 42.5867 68.9357C42.8713 67.7949 42.6062 66.5818 42.7935 65.4198C42.8961 64.8912 43.0697 64.3788 43.3097 63.8964C43.6153 63.2419 44.0142 62.635 44.4941 62.0945C44.0204 61.9569 43.5784 61.7683 43.3097 61.3733C44.0698 60.8796 44.1848 59.767 43.84 58.9313C43.4953 58.0955 42.8059 57.459 42.1854 56.7996C41.5649 56.1401 40.9675 55.3714 40.8897 54.4722C40.7394 52.7601 42.4541 51.4342 42.7564 49.745C43.0622 48.0259 41.8531 46.3544 41.9503 44.6141C42.0635 42.5106 44.0009 40.982 45.9136 40.0951C48.8 38.7624 51.9884 38.2149 55.1554 38.5082C57.7327 38.7515 60.227 39.5467 62.7973 39.8553C64.3476 40.0316 65.9192 40.0492 67.4589 40.3208C68.9986 40.5923 70.5418 41.1653 71.6255 42.292C74.4821 45.263 71.0598 47.7085 70.8971 50.84Z" fill="#FFE0D0"/>
<path opacity="0.1" d="M68.5072 130.713C67.6057 130.323 65.9652 130.556 63.1492 129.701C60.3332 128.846 59.7905 124.981 59.7905 124.981V124.968C59.7569 124.88 59.4953 124.305 57.724 122.292C55.7671 120.068 51.5369 108.839 51.5369 108.839C51.5369 108.839 47.7857 104.82 47.9041 103.339C48.0226 101.858 47.2377 97.9173 47.3155 93.5093C47.3933 89.1013 55.76 86.178 55.76 86.178C71.8695 83.3304 68.0759 101.855 67.6463 103.258C67.2168 104.662 69.4459 108.452 69.4459 108.452C69.1312 110.103 70.7363 112.658 70.7363 112.658C70.7363 112.658 71.1252 114.918 71.2048 115.777C71.2092 115.816 71.2181 115.855 71.2313 115.893C71.4894 116.702 73.593 117.436 74.4486 117.882C75.3484 118.351 78.2422 122.445 78.2422 122.445C78.8662 125.451 69.4052 131.108 68.5072 130.713Z" fill="black"/>
<path d="M68.9757 130.007C68.0759 129.616 66.4337 129.85 63.6194 128.994C60.8052 128.137 60.2607 124.275 60.2607 124.275V124.263C60.2289 124.173 59.9655 123.6 58.1942 121.586C56.2373 119.363 52.0071 108.131 52.0071 108.131C52.0071 108.131 48.2559 104.115 48.3726 102.634C48.4893 101.153 47.7079 97.212 47.7857 92.8075C47.8635 88.4031 56.2249 85.4814 56.2249 85.4814C72.3344 82.6339 68.5408 101.158 68.1113 102.562C67.6817 103.965 69.9108 107.756 69.9108 107.756C69.5962 109.406 71.2013 111.961 71.2013 111.961C71.2013 111.961 71.5902 114.222 71.6715 115.08C71.6745 115.12 71.6828 115.159 71.6962 115.197C71.9543 116.006 74.0579 116.739 74.9153 117.185C75.8133 117.653 78.7089 121.749 78.7089 121.749C79.3364 124.75 69.8755 130.406 68.9757 130.007Z" fill="#FF748E"/>
<path opacity="0.1" d="M56.543 95.1526C56.543 95.1526 63.5804 102.558 65.4171 102.558C67.2537 102.558 56.543 95.1526 56.543 95.1526Z" fill="black"/>
<path d="M68.9757 130.008C68.0759 129.616 66.4337 129.851 63.6195 128.994C60.8052 128.137 60.2607 124.275 60.2607 124.275V124.263C62.1257 123.029 66.8491 119.543 68.7106 118.268C70.0205 117.374 71.0899 116.061 71.7157 115.19C71.9738 115.999 74.0774 116.732 74.9348 117.179C75.8328 117.646 78.7284 121.742 78.7284 121.742C79.3365 124.75 69.8755 130.406 68.9757 130.008Z" fill="#FF748E"/>
<g opacity="0.1">
<path opacity="0.1" d="M43.3203 61.3925C43.3292 61.4066 43.3415 61.419 43.3521 61.4331C43.4052 61.3661 43.46 61.2991 43.5165 61.2356C43.4563 61.294 43.3906 61.3466 43.3203 61.3925Z" fill="black"/>
<path opacity="0.1" d="M47.4215 69.4751C47.4957 68.4966 48.0207 67.6344 48.5122 66.7739C48.1905 66.6505 47.8687 66.5253 47.5505 66.3948C47.5808 66.197 47.5962 65.9972 47.5965 65.7971C47.0998 66.6787 46.5588 67.5462 46.4828 68.5389C46.3927 69.7167 46.9742 70.831 47.4904 71.889C49.4774 75.9796 50.7024 80.7649 49.2087 85.06C48.5599 86.9255 47.4409 88.5864 46.6225 90.3902C45.1922 93.5844 44.7717 97.1375 45.4169 100.576C45.8217 102.715 46.6419 104.829 46.4404 106.996C46.0868 110.725 42.8642 113.5 39.6328 115.406C38.3123 116.186 36.7691 116.9 35.293 116.849C35.1564 117.068 35.0039 117.277 34.8369 117.475C36.6913 118.291 38.8249 117.372 40.5697 116.343C43.8029 114.438 47.0326 111.67 47.3861 107.934C47.5877 105.767 46.7674 103.653 46.3608 101.514C45.7155 98.0759 46.1347 94.5231 47.5629 91.3282C48.3761 89.5262 49.5074 87.8635 50.1491 85.9981C51.6429 81.7029 50.416 76.9176 48.4309 72.827C47.9165 71.762 47.3313 70.653 47.4215 69.4751Z" fill="black"/>
<path opacity="0.1" d="M71.622 42.313C71.4481 42.1351 71.2614 41.9701 71.0634 41.8193C73.2059 44.5911 70.1124 46.9467 69.9586 49.93C69.8207 52.6277 70.0469 58.6614 67.0506 60.012C65.5693 60.6802 63.9801 59.2168 62.3555 59.1815C61.1835 59.1568 60.1122 59.8991 59.3963 60.823C58.6804 61.747 58.2402 62.8472 57.7222 63.8945C57.2497 64.845 56.7061 65.7585 56.0959 66.6275C55.7424 67.1441 55.3287 67.659 54.7666 67.9499C53.7943 68.4559 52.6117 68.172 51.5634 67.8441C50.544 67.5244 49.534 67.1717 48.5335 66.7862C48.5314 66.9698 48.5161 67.1531 48.4875 67.3345C49.8063 67.8705 51.1445 68.3513 52.5021 68.7768C53.5486 69.1048 54.7312 69.3886 55.7052 68.8826C56.2656 68.5917 56.6722 68.0751 57.0346 67.5585C57.6452 66.6907 58.1883 65.7777 58.6591 64.8273C59.1789 63.7799 59.6173 62.6779 60.335 61.754C61.0527 60.8301 62.1222 60.0896 63.2924 60.1142C64.9187 60.1495 66.5079 61.613 67.9893 60.9447C70.9856 59.5941 70.7576 53.5605 70.8972 50.8628C71.0599 47.726 74.4822 45.2823 71.622 42.313Z" fill="black"/>
</g>
<path opacity="0.1" d="M48.3284 67.0755C48.1781 67.34 48.0314 67.6045 47.8971 67.876C47.8458 67.98 47.7963 68.0876 47.7521 68.1951C46.8258 67.2642 44.5702 65.0513 43.3115 64.3655C43.6176 63.7112 44.0164 63.1043 44.4959 62.5635C44.4959 62.5635 47.4958 64.1451 48.3284 67.0755Z" fill="black"/>
<path d="M48.4115 66.9309C47.7167 63.7942 44.4959 62.0962 44.4959 62.0962C44.016 62.6367 43.6171 63.2437 43.3115 63.8982C44.6391 64.6229 47.0857 67.0525 47.8971 67.8759L48.4115 66.9309Z" fill="#FF748E"/>
</g>

</svg>
