<svg width="367" height="326" viewBox="0 0 367 326" fill="none" xmlns="http://www.w3.org/2000/svg">
<g clip-path="url(#clip0)">
<path d="M71.7574 324.698C75.4436 321.588 77.6827 316.675 77.0955 311.892C76.5083 307.109 72.8714 302.712 68.1537 301.696C63.4361 300.68 58.0583 303.492 56.6254 308.094C55.8368 299.222 54.9281 289.979 50.2043 282.424C45.927 275.583 38.5187 270.688 30.4898 269.812C22.4608 268.936 14.0074 272.244 9.00005 278.572C3.9927 284.899 2.76667 294.098 6.27369 301.363C8.85719 306.715 13.6169 310.697 18.6039 313.938C34.5141 324.275 54.2508 327.767 73.0305 325.008L71.7574 324.698Z" fill="#F2F2F2"/>
<path d="M16.9396 272.427C23.5644 277.815 29.6421 283.841 35.0845 290.418C40.5278 296.989 45.3201 304.07 49.394 311.564C51.6711 315.768 53.7166 320.093 55.5216 324.52C55.8896 325.42 54.4252 325.812 54.0613 324.922C50.8643 317.118 46.9091 309.645 42.2523 302.612C37.6181 295.604 32.314 289.061 26.4145 283.076C23.0778 279.692 19.5572 276.494 15.8688 273.497C15.1128 272.882 16.1898 271.818 16.9396 272.427H16.9396Z" fill="white"/>
<path d="M335.654 134.884H285.228C284.467 134.883 283.738 134.581 283.2 134.043C282.662 133.506 282.359 132.778 282.358 132.018V125.977C282.359 125.218 282.662 124.489 283.2 123.952C283.738 123.415 284.467 123.113 285.228 123.112H335.654C336.415 123.113 337.144 123.415 337.682 123.952C338.22 124.489 338.523 125.218 338.524 125.977V132.018C338.523 132.778 338.22 133.506 337.682 134.043C337.144 134.581 336.415 134.883 335.654 134.884Z" fill="#1E96B5"/>
<path d="M328.85 125.647L307.359 106.299C306.896 105.882 306.301 105.64 305.678 105.616C305.055 105.592 304.444 105.788 303.95 106.168L256.919 121.673C256.249 121.895 255.694 122.374 255.376 123.004C255.058 123.634 255.004 124.364 255.224 125.034L257.121 130.771C257.23 131.103 257.404 131.41 257.633 131.675C257.861 131.94 258.14 132.157 258.452 132.314C258.765 132.472 259.106 132.566 259.455 132.591C259.804 132.616 260.155 132.573 260.487 132.463L303.629 118.239L321.23 134.085C321.717 134.527 322.352 134.771 323.011 134.77C323.057 134.77 323.104 134.769 323.151 134.766C323.501 134.749 323.844 134.663 324.16 134.513C324.476 134.362 324.759 134.151 324.993 133.891L329.044 129.404C329.517 128.88 329.762 128.19 329.725 127.485C329.689 126.781 329.374 126.12 328.85 125.647Z" fill="#1E96B5"/>
<path d="M90.8819 270.325C90.2298 270.325 89.6046 270.584 89.1435 271.045C88.6824 271.505 88.4231 272.129 88.4224 272.781V323.132C88.4231 323.783 88.6824 324.407 89.1435 324.867C89.6046 325.328 90.2298 325.587 90.8819 325.588H96.9323C97.5844 325.587 98.2095 325.328 98.6706 324.867C99.1317 324.407 99.3911 323.783 99.3918 323.132V272.781C99.3911 272.129 99.1317 271.505 98.6706 271.045C98.2095 270.584 97.5844 270.325 96.9323 270.325H90.8819Z" fill="#1E96B5"/>
<path d="M109.719 325.997H103.669C102.908 325.996 102.179 325.694 101.641 325.157C101.103 324.619 100.8 323.891 100.799 323.132V272.78C100.8 272.021 101.103 271.293 101.641 270.755C102.179 270.218 102.908 269.916 103.669 269.915H109.719C110.48 269.916 111.209 270.218 111.747 270.755C112.285 271.293 112.588 272.021 112.589 272.78V323.132C112.588 323.891 112.285 324.619 111.747 325.157C111.209 325.694 110.48 325.996 109.719 325.997Z" fill="#1E96B5"/>
<path d="M119.625 276.684C119.625 276.684 121.911 297.209 98.834 296.512C75.7571 295.814 84.7355 275.647 84.7355 275.647C84.7355 275.647 89.5581 271.863 101.749 275.523C113.939 279.183 119.625 276.684 119.625 276.684Z" fill="#CCCCCC"/>
<path d="M109.708 241.755C108.44 241.757 107.206 241.351 106.188 240.597C105.17 239.844 104.422 238.782 104.056 237.571C103.689 236.359 103.724 235.062 104.155 233.871C104.585 232.681 105.389 231.661 106.446 230.962L145.974 204.84C146.288 204.633 146.64 204.489 147.01 204.417C147.38 204.345 147.761 204.347 148.13 204.422C148.499 204.497 148.85 204.644 149.163 204.854C149.475 205.065 149.743 205.334 149.951 205.648L153.29 210.686C153.709 211.32 153.859 212.094 153.707 212.838C153.556 213.583 153.115 214.237 152.481 214.657L112.953 240.779C111.991 241.416 110.862 241.755 109.708 241.755Z" fill="#1E96B5"/>
<path d="M102.531 217.573C114.077 217.573 123.437 208.227 123.437 196.698C123.437 185.169 114.077 175.823 102.531 175.823C90.9845 175.823 81.6245 185.169 81.6245 196.698C81.6245 208.227 90.9845 217.573 102.531 217.573Z" fill="#1E96B5"/>
<path d="M102.546 205.461C103.901 205.424 105.588 205.377 106.887 204.429C107.274 204.135 107.592 203.76 107.819 203.331C108.045 202.902 108.175 202.428 108.199 201.943C108.223 201.599 108.166 201.254 108.034 200.934C107.901 200.615 107.697 200.331 107.437 200.104C106.758 199.532 105.767 199.397 104.699 199.711L105.805 191.637L104.993 191.526L103.692 201.018L104.371 200.707C105.157 200.347 106.237 200.163 106.907 200.729C107.072 200.877 107.2 201.061 107.282 201.267C107.364 201.472 107.398 201.694 107.38 201.915C107.36 202.275 107.262 202.628 107.094 202.947C106.926 203.267 106.69 203.547 106.404 203.768C105.393 204.505 104.048 204.6 102.523 204.643L102.546 205.461Z" fill="#2F2E41"/>
<path d="M114.238 192.333H109.822V193.152H114.238V192.333Z" fill="#2F2E41"/>
<path d="M100.301 192.333H95.8853V193.152H100.301V192.333Z" fill="#2F2E41"/>
<path d="M81.413 281.008C81.413 281.008 79.6079 219.729 104.879 223.934C130.149 228.139 119.62 287.317 119.62 287.317C119.62 287.317 114.205 298.131 100.968 286.115C87.7306 274.099 81.413 281.008 81.413 281.008Z" fill="#2F2E41"/>
<path d="M90.7389 179.066C94.8067 176.309 99.9407 178.182 103.893 180.15C107.732 182.062 112.058 184.494 116.401 182.653C118.097 181.934 119.476 180.527 119.716 178.645C120.001 176.404 118.644 174.305 117.134 172.781C115.493 171.213 113.581 169.955 111.491 169.068C109.442 168.147 107.284 167.492 105.068 167.118C100.68 166.361 96.1741 166.661 91.9258 167.995C87.6774 169.329 83.8097 171.657 80.6447 174.785C77.5829 177.903 75.2172 181.633 73.7034 185.73C72.1896 189.827 71.562 194.198 71.8619 198.554C72.2074 203.198 73.6927 207.933 76.6725 211.579C79.4684 214.999 83.6549 217.403 88.1231 217.604C89.2179 217.655 90.3148 217.566 91.387 217.339C92.1589 217.175 92.4888 218.358 91.714 218.523C87.0603 219.514 82.2394 218.042 78.5484 215.143C74.6629 212.092 72.279 207.472 71.2337 202.712C69.2335 193.602 71.7393 183.799 77.4816 176.507C80.3172 172.874 83.9903 169.98 88.1879 168.071C92.5231 166.138 97.2589 165.271 101.999 165.541C106.726 165.778 111.312 167.228 115.313 169.753C118.892 172.062 122.925 176.958 120.006 181.29C118.915 182.909 117.103 183.896 115.222 184.301C113.063 184.721 110.83 184.527 108.776 183.741C104.1 182.092 99.776 178.408 94.5424 178.967C93.4018 179.085 92.3082 179.483 91.3595 180.127C90.703 180.572 90.0871 179.508 90.7388 179.066H90.7389Z" fill="#2F2E41"/>
<path d="M269.355 83.9911C268.408 83.3837 267.663 82.5097 267.214 81.4795C266.765 80.4493 266.631 79.3092 266.831 78.2034C267.031 77.0976 267.554 76.0757 268.335 75.267C269.117 74.4583 270.121 73.8991 271.22 73.6601L317.537 63.5926C318.227 63.4433 318.949 63.5735 319.543 63.9548C320.137 64.336 320.556 64.9372 320.707 65.6263L320.507 65.6699L320.707 65.6263L321.994 71.5294C322.068 71.8707 322.075 72.2234 322.013 72.5673C321.951 72.9111 321.821 73.2394 321.632 73.5334C321.443 73.8273 321.198 74.0812 320.91 74.2805C320.623 74.4798 320.299 74.6206 319.957 74.6949L273.641 84.7624C273.44 84.8061 273.237 84.839 273.033 84.8611C271.743 85.0015 270.444 84.6943 269.355 83.9911Z" fill="#1E96B5"/>
<path d="M265.563 80.6542C265.535 80.5445 265.511 80.4336 265.489 80.3215C265.109 78.3185 265.804 76.2098 267.448 74.3832C269.233 72.4864 271.564 71.1899 274.119 70.6727L295.235 66.0597C295.583 65.9838 295.943 65.9782 296.293 66.0433C296.643 66.1085 296.976 66.2431 297.273 66.4391C297.571 66.6351 297.825 66.8886 298.023 67.1846C298.22 67.4806 298.356 67.8131 298.422 68.1625L300.265 77.8524C300.398 78.5334 300.258 79.2394 299.875 79.8183C299.491 80.3972 298.896 80.8028 298.216 80.9476L276.967 85.5893C276.009 85.8005 275.031 85.908 274.05 85.9099C269.864 85.9099 266.378 83.8739 265.563 80.6542Z" fill="#2F2E41"/>
<path d="M269.258 58.9722C280.804 58.9722 290.164 49.6262 290.164 38.0973C290.164 26.5684 280.804 17.2224 269.258 17.2224C257.712 17.2224 248.352 26.5684 248.352 38.0973C248.352 49.6262 257.712 58.9722 269.258 58.9722Z" fill="#1E96B5"/>
<path d="M286.9 45.6321C288.255 45.5945 289.942 45.5476 291.241 44.5998C291.628 44.306 291.946 43.9313 292.173 43.502C292.399 43.0726 292.529 42.5989 292.553 42.1142C292.577 41.7697 292.52 41.4244 292.388 41.1054C292.255 40.7863 292.051 40.5022 291.791 40.2751C291.112 39.7025 290.121 39.5682 289.053 39.8815L290.159 31.8076L289.347 31.6965L288.046 41.1884L288.725 40.8777C289.511 40.5175 290.591 40.3342 291.261 40.9002C291.426 41.0482 291.554 41.2321 291.636 41.4377C291.718 41.6432 291.752 41.8649 291.734 42.0854C291.714 42.4462 291.616 42.7985 291.448 43.1183C291.28 43.4381 291.044 43.7179 290.758 43.9387C289.747 44.6762 288.402 44.7713 286.877 44.8139L286.9 45.6321Z" fill="#2F2E41"/>
<path d="M284.655 32.5042H280.239V33.3228H284.655V32.5042Z" fill="#2F2E41"/>
<path d="M267.795 17.1607C267.642 14.6931 266.959 12.2873 265.792 10.1062C264.626 7.92512 263.005 6.01967 261.037 4.51888C259.004 3.01563 256.658 1.98925 254.173 1.51602C251.688 1.0428 249.128 1.13491 246.684 1.7855C244.255 2.41566 242.001 3.58813 240.092 5.21452C238.183 6.84092 236.669 8.87879 235.664 11.1745C234.652 13.4532 234.147 15.9239 234.184 18.4162C234.295 21.1266 234.97 23.7842 236.164 26.2206C237.397 28.9025 238.952 31.4185 240.302 34.0402C241.632 36.6254 242.779 39.3002 243.736 42.0451C245.682 47.638 246.831 53.4766 247.147 59.3892C247.649 68.7095 246.756 82.3164 236.219 85.8933C233.539 86.8029 230.648 86.9723 227.839 86.9648C224.88 87.0009 221.929 86.6557 219.058 85.9379C214.084 84.6115 209.361 81.497 207.242 76.6581C206.753 75.5406 206.426 74.3598 206.269 73.1507C206.225 72.8191 206.583 72.5398 206.884 72.5367C207.046 72.5405 207.2 72.6064 207.314 72.7207C207.429 72.8351 207.495 72.989 207.499 73.1507C208.185 78.3071 212.488 82.2614 217.16 84.0392C219.89 85.0271 222.758 85.5812 225.66 85.681C228.549 85.8268 231.548 85.8042 234.376 85.1405C236.894 84.5965 239.184 83.2963 240.941 81.4146C242.506 79.615 243.674 77.5058 244.367 75.2249C246.031 70.1555 246.205 64.5819 245.913 59.2983C245.582 53.4052 244.409 47.5896 242.429 42.0281C241.429 39.2201 240.223 36.4897 238.82 33.8591C237.45 31.286 235.929 28.7857 234.774 26.1038C233.647 23.6387 233.028 20.9727 232.952 18.264C232.943 15.7625 233.442 13.285 234.418 10.9811C235.378 8.66811 236.817 6.58392 238.64 4.86544C240.463 3.14695 242.63 1.83303 244.998 1.00995C247.408 0.172576 249.966 -0.152572 252.508 0.0553785C255.051 0.263329 257.521 0.999785 259.762 2.21747C261.894 3.44089 263.761 5.07398 265.257 7.02236C266.752 8.97075 267.846 11.1958 268.475 13.5689C268.781 14.7442 268.965 15.9478 269.025 17.1607C269.066 17.9505 267.836 17.9483 267.795 17.1607H267.795Z" fill="#2F2E41"/>
<path d="M263.707 17.5918C263.372 15.3143 262.229 13.2326 260.487 11.7252C258.635 10.1752 256.261 9.38833 253.848 9.52492C253.057 9.56443 253.059 8.33639 253.848 8.29699C256.47 8.17892 259.044 9.02739 261.081 10.681C263.117 12.3346 264.474 14.678 264.893 17.2653C265.011 18.0384 263.827 18.3717 263.707 17.5918Z" fill="#2F2E41"/>
<path d="M261.123 17.6627C260.936 17.0958 260.982 16.4777 261.251 15.9445C261.52 15.4112 261.99 15.0065 262.558 14.8193L268.396 12.8943C268.964 12.7071 269.583 12.7528 270.117 13.0213C270.651 13.2898 271.057 13.7591 271.244 14.3261C271.431 14.893 271.386 15.5111 271.117 16.0443C270.848 16.5775 270.378 16.9823 269.81 17.1695L263.971 19.0945C263.69 19.1873 263.393 19.2239 263.098 19.2021C262.803 19.1804 262.515 19.1008 262.25 18.9678C261.986 18.8348 261.75 18.6511 261.557 18.4272C261.363 18.2033 261.216 17.9435 261.123 17.6627V17.6627Z" fill="#2F2E41"/>
<path d="M306.72 46.027C306.342 46.1066 305.995 46.2907 305.718 46.5582C305.441 46.8257 305.244 47.1658 305.152 47.5396C305.059 47.9133 305.074 48.3055 305.194 48.6713C305.315 49.0371 305.536 49.3616 305.832 49.6076L314.856 57.0933C314.987 57.2048 315.096 57.3407 315.176 57.4936C315.251 57.6481 315.293 57.8162 315.299 57.9875L315.862 71.716C315.873 72.1652 316.034 72.5979 316.32 72.9446C316.606 73.2913 317.001 73.5319 317.44 73.6276L317.456 73.6312C317.891 73.7372 318.348 73.6951 318.756 73.5115C319.163 73.3279 319.497 73.0135 319.705 72.6183L322.96 66.6917C323.069 66.4966 323.229 66.3348 323.423 66.2236C323.618 66.1124 323.838 66.056 324.062 66.0605C324.227 66.0614 324.389 66.0962 324.54 66.1629C324.69 66.2296 324.826 66.3267 324.937 66.448L340.555 83.0886C340.78 83.3302 341.061 83.5134 341.373 83.6223C341.686 83.7313 342.02 83.7627 342.347 83.7139C342.673 83.6654 342.982 83.5395 343.249 83.3467C343.516 83.1538 343.733 82.8998 343.881 82.6058L366.782 36.8564C366.955 36.512 367.028 36.1257 366.991 35.7421C366.954 35.3585 366.809 34.993 366.574 34.6878C366.338 34.3826 366.021 34.1499 365.659 34.0167C365.296 33.8834 364.904 33.8549 364.526 33.9345L363.785 34.0893L306.72 46.027L306.72 46.027ZM306.354 48.9789C306.176 48.8308 306.044 48.6357 305.972 48.416C305.9 48.1963 305.892 47.9608 305.948 47.7366C306.004 47.5123 306.122 47.3083 306.288 47.1479C306.455 46.9875 306.664 46.8772 306.89 46.8297L363.937 34.8962L364.696 34.7371C364.923 34.6906 365.157 34.7084 365.374 34.7886C365.59 34.8688 365.78 35.0081 365.921 35.1907C366.062 35.3733 366.149 35.5917 366.172 35.8212C366.195 36.0507 366.153 36.282 366.05 36.4887L343.149 82.2381C343.061 82.4148 342.93 82.5674 342.77 82.6831C342.609 82.7987 342.423 82.8739 342.227 82.9024C342.031 82.9308 341.831 82.9116 341.644 82.8464C341.458 82.7812 341.289 82.6719 341.154 82.5278L325.535 65.8873C325.383 65.7208 325.202 65.5819 325.003 65.4766L364.688 36.7292C364.844 36.6185 364.957 36.4568 365.006 36.2721C365.055 36.0874 365.038 35.8913 364.958 35.7178C364.878 35.5442 364.74 35.404 364.567 35.3215C364.394 35.2391 364.198 35.2194 364.013 35.266C363.967 35.2768 363.923 35.2921 363.88 35.3115L315.694 56.7885C315.601 56.669 315.495 56.5603 315.377 56.4646L306.354 48.9789V48.9789Z" fill="#CCCCCC"/>
<path d="M306.72 46.027C306.342 46.1066 305.995 46.2907 305.718 46.5582C305.441 46.8257 305.244 47.1658 305.152 47.5396C305.059 47.9133 305.074 48.3055 305.194 48.6713C305.315 49.0371 305.536 49.3616 305.832 49.6076L314.856 57.0933C314.987 57.2048 315.096 57.3407 315.176 57.4936C315.251 57.6481 315.293 57.8162 315.299 57.9875L315.862 71.716C315.873 72.1652 316.034 72.5979 316.32 72.9446C316.606 73.2913 317.001 73.5319 317.44 73.6276L317.456 73.6312C317.891 73.7372 318.348 73.6951 318.756 73.5115C319.163 73.3279 319.497 73.0135 319.705 72.6183L322.96 66.6917C323.069 66.4966 323.229 66.3348 323.423 66.2236C323.618 66.1124 323.838 66.056 324.062 66.0605C324.227 66.0614 324.389 66.0962 324.54 66.1629C324.69 66.2296 324.826 66.3267 324.937 66.448L340.555 83.0886C340.78 83.3302 341.061 83.5134 341.373 83.6223C341.686 83.7313 342.02 83.7627 342.347 83.7139C342.673 83.6654 342.982 83.5395 343.249 83.3467C343.516 83.1538 343.733 82.8998 343.881 82.6058L366.782 36.8564C366.955 36.512 367.028 36.1257 366.991 35.7421C366.954 35.3585 366.809 34.993 366.574 34.6878C366.338 34.3826 366.021 34.1499 365.659 34.0167C365.296 33.8834 364.904 33.8549 364.526 33.9345L363.785 34.0893L306.72 46.027L306.72 46.027ZM306.354 48.9789C306.176 48.8308 306.044 48.6357 305.972 48.416C305.9 48.1963 305.892 47.9608 305.948 47.7366C306.004 47.5123 306.122 47.3083 306.288 47.1479C306.455 46.9875 306.664 46.8772 306.89 46.8297L363.937 34.8962L364.696 34.7371C364.923 34.6906 365.157 34.7084 365.374 34.7886C365.59 34.8688 365.78 35.0081 365.921 35.1907C366.062 35.3733 366.149 35.5917 366.172 35.8212C366.195 36.0507 366.153 36.282 366.05 36.4887L343.149 82.2381C343.061 82.4148 342.93 82.5674 342.77 82.683C342.609 82.7987 342.423 82.8739 342.227 82.9024C342.031 82.9308 341.831 82.9116 341.644 82.8464C341.457 82.7811 341.289 82.6718 341.154 82.5277L325.535 65.8872C325.383 65.7208 325.202 65.5819 325.003 65.4766C324.716 65.3234 324.397 65.2422 324.073 65.2402C324.027 65.2382 323.98 65.2402 323.933 65.2421L323.929 65.2412C323.581 65.2592 323.244 65.3658 322.948 65.5507C322.653 65.7356 322.41 65.9928 322.243 66.2978L318.987 72.2284C318.863 72.4665 318.661 72.6556 318.416 72.7652C318.17 72.8748 317.895 72.8983 317.634 72.8321L317.626 72.8302C317.362 72.7747 317.124 72.6309 316.952 72.4225C316.781 72.2141 316.685 71.9535 316.681 71.6836L316.118 57.9552C316.114 57.8101 316.093 57.6659 316.056 57.5255L316.057 57.5215C316.022 57.3867 315.973 57.2559 315.911 57.1315C315.851 57.0098 315.778 56.8948 315.694 56.7885C315.601 56.669 315.495 56.5603 315.377 56.4646L306.354 48.9789V48.9789Z" fill="#3F3D56"/>
<path d="M315.694 56.7886L363.88 35.3117C363.923 35.2922 363.967 35.277 364.012 35.2662C364.198 35.2196 364.394 35.2392 364.567 35.3217C364.739 35.4042 364.878 35.5444 364.958 35.7179C365.038 35.8915 365.055 36.0876 365.006 36.2723C364.956 36.457 364.844 36.6186 364.688 36.7293L325.002 65.4768L324.302 65.9851L323.823 65.3221L323.929 65.2414L323.933 65.2423L364.204 36.0655L316.057 57.5217L316.056 57.5257L315.846 57.6166L315.512 56.869L315.694 56.7886Z" fill="#3F3D56"/>
<path d="M255.491 121.958C254.893 121.959 254.32 122.197 253.897 122.619C253.475 123.041 253.237 123.613 253.236 124.21V132.396C253.237 132.993 253.475 133.565 253.897 133.987C254.32 134.409 254.893 134.646 255.491 134.647H281.726C282.324 134.646 282.897 134.409 283.32 133.987C283.742 133.565 283.98 132.993 283.981 132.396V124.21C283.98 123.613 283.742 123.041 283.32 122.619C282.897 122.197 282.324 121.959 281.726 121.958H255.491Z" fill="#2F2E41"/>
<path d="M252.398 80.4337C251.145 84.0589 250.912 87.9576 251.723 91.7061C253.808 101.912 253.031 113.977 250.982 126.87C250.982 128.226 251.928 129.326 253.095 129.326H285.147C286.314 129.326 287.26 128.226 287.26 126.87V88.5995C287.26 77.2903 279.561 68.0358 269.931 67.5446C269.663 67.5282 269.392 67.52 269.121 67.52C261.608 67.52 255.149 72.8534 252.398 80.4337Z" fill="#2F2E41"/>
<path d="M262.605 130.104V82.7737C262.605 81.267 263.205 79.8219 264.272 78.7565C265.339 77.6911 266.786 77.0925 268.295 77.0925C269.804 77.0925 271.251 77.6911 272.318 78.7565C273.385 79.8219 273.985 81.267 273.985 82.7737V130.104C273.984 130.81 273.703 131.486 273.204 131.985C272.704 132.483 272.027 132.764 271.32 132.765H265.27C264.564 132.764 263.886 132.483 263.387 131.985C262.887 131.486 262.606 130.81 262.605 130.104Z" fill="#1E96B5"/>
<path d="M272.338 96.2034L263.738 95.8255C263.032 95.7936 262.368 95.4836 261.891 94.9633C261.414 94.4431 261.163 93.7552 261.193 93.0504L261.797 79.3517C261.836 78.4374 262.054 77.5396 262.44 76.7097C262.827 75.8798 263.373 75.1341 264.048 74.5153C264.723 73.8966 265.514 73.4169 266.375 73.1037C267.237 72.7906 268.151 72.6501 269.067 72.6903C269.982 72.7306 270.881 72.9508 271.711 73.3383C272.541 73.7258 273.287 74.2731 273.905 74.9487C274.523 75.6243 275.002 76.4151 275.314 77.2757C275.625 78.1362 275.764 79.0497 275.721 79.9639L275.117 93.6626C275.087 94.3468 274.794 94.9929 274.299 95.4667C273.803 95.9404 273.144 96.2052 272.459 96.206C272.419 96.206 272.379 96.2052 272.338 96.2034Z" fill="#2F2E41"/>
<path d="M287.26 104.972C288.279 104.972 289.105 102.315 289.105 99.0371C289.105 95.7592 288.279 93.1021 287.26 93.1021C286.241 93.1021 285.416 95.7592 285.416 99.0371C285.416 102.315 286.241 104.972 287.26 104.972Z" fill="#2F2E41"/>
<path d="M186.167 172.918C191.827 172.918 196.415 168.336 196.415 162.685C196.415 157.034 191.827 152.452 186.167 152.452C180.507 152.452 175.919 157.034 175.919 162.685C175.919 168.336 180.507 172.918 186.167 172.918Z" fill="#CCCCCC"/>
<path d="M287.512 172.918H208.806C207.937 172.918 207.102 172.573 206.487 171.959C205.872 171.344 205.527 170.512 205.527 169.643C205.527 168.775 205.872 167.942 206.487 167.328C207.102 166.714 207.937 166.369 208.806 166.369H287.512C288.381 166.369 289.216 166.714 289.831 167.328C290.446 167.942 290.791 168.775 290.791 169.643C290.791 170.512 290.446 171.344 289.831 171.959C289.216 172.573 288.381 172.918 287.512 172.918Z" fill="#CCCCCC"/>
<path d="M266.196 159.001H208.806C207.937 159.001 207.102 158.656 206.487 158.042C205.872 157.428 205.527 156.595 205.527 155.727C205.527 154.858 205.872 154.025 206.487 153.411C207.102 152.797 207.937 152.452 208.806 152.452H266.196C267.065 152.452 267.9 152.797 268.515 153.411C269.13 154.025 269.475 154.858 269.475 155.727C269.475 156.595 269.13 157.428 268.515 158.042C267.9 158.656 267.065 159.001 266.196 159.001Z" fill="#CCCCCC"/>
<path d="M186.167 211.802C191.827 211.802 196.415 207.221 196.415 201.569C196.415 195.918 191.827 191.337 186.167 191.337C180.507 191.337 175.919 195.918 175.919 201.569C175.919 207.221 180.507 211.802 186.167 211.802Z" fill="#CCCCCC"/>
<path d="M287.512 211.802H208.806C207.937 211.802 207.102 211.457 206.487 210.843C205.872 210.229 205.527 209.396 205.527 208.528C205.527 207.659 205.872 206.826 206.487 206.212C207.102 205.598 207.937 205.253 208.806 205.253H287.512C288.381 205.253 289.216 205.598 289.831 206.212C290.446 206.826 290.791 207.659 290.791 208.528C290.791 209.396 290.446 210.229 289.831 210.843C289.216 211.457 288.381 211.802 287.512 211.802Z" fill="#CCCCCC"/>
<path d="M266.196 197.886H208.806C207.937 197.886 207.102 197.541 206.487 196.927C205.872 196.312 205.527 195.48 205.527 194.611C205.527 193.743 205.872 192.91 206.487 192.296C207.102 191.682 207.937 191.337 208.806 191.337H266.196C267.065 191.337 267.9 191.682 268.515 192.296C269.13 192.91 269.475 193.743 269.475 194.611C269.475 195.48 269.13 196.312 268.515 196.927C267.9 197.541 267.065 197.886 266.196 197.886Z" fill="#CCCCCC"/>
<path d="M186.167 251.096C191.827 251.096 196.415 246.515 196.415 240.863C196.415 235.212 191.827 230.63 186.167 230.63C180.507 230.63 175.919 235.212 175.919 240.863C175.919 246.515 180.507 251.096 186.167 251.096Z" fill="#CCCCCC"/>
<path d="M287.512 251.096H208.806C207.937 251.096 207.102 250.751 206.487 250.137C205.872 249.523 205.527 248.69 205.527 247.822C205.527 246.953 205.872 246.12 206.487 245.506C207.102 244.892 207.937 244.547 208.806 244.547H287.512C288.381 244.547 289.216 244.892 289.831 245.506C290.446 246.12 290.791 246.953 290.791 247.822C290.791 248.69 290.446 249.523 289.831 250.137C289.216 250.751 288.381 251.096 287.512 251.096Z" fill="#CCCCCC"/>
<path d="M266.196 237.179H208.806C207.937 237.179 207.102 236.834 206.487 236.22C205.872 235.606 205.527 234.773 205.527 233.905C205.527 233.036 205.872 232.204 206.487 231.589C207.102 230.975 207.937 230.63 208.806 230.63H266.196C267.065 230.63 267.9 230.975 268.515 231.589C269.13 232.204 269.475 233.036 269.475 233.905C269.475 234.773 269.13 235.606 268.515 236.22C267.9 236.834 267.065 237.179 266.196 237.179Z" fill="#CCCCCC"/>
<path d="M314.93 269.515H151.78C149.933 269.513 148.161 268.779 146.855 267.475C145.548 266.17 144.814 264.402 144.812 262.557V140.991C144.814 139.146 145.548 137.378 146.855 136.073C148.161 134.769 149.933 134.035 151.78 134.033H314.93C316.778 134.035 318.549 134.769 319.855 136.073C321.162 137.378 321.897 139.146 321.899 140.991V262.557C321.897 264.402 321.162 266.17 319.855 267.475C318.549 268.779 316.778 269.513 314.93 269.515ZM151.78 134.852C150.15 134.853 148.587 135.501 147.434 136.652C146.282 137.803 145.633 139.363 145.631 140.991V262.557C145.633 264.184 146.282 265.745 147.434 266.896C148.587 268.047 150.15 268.695 151.78 268.696H314.93C316.56 268.695 318.123 268.047 319.276 266.896C320.429 265.745 321.077 264.184 321.079 262.557V140.991C321.077 139.363 320.429 137.803 319.276 136.652C318.123 135.501 316.56 134.853 314.93 134.852H151.78Z" fill="#3F3D56"/>
<path d="M147.681 159.001C160.359 159.001 170.637 148.739 170.637 136.08C170.637 123.42 160.359 113.158 147.681 113.158C135.003 113.158 124.725 123.42 124.725 136.08C124.725 148.739 135.003 159.001 147.681 159.001Z" fill="#1E96B5"/>
<path d="M145.405 144.824C144.889 144.825 144.386 144.658 143.973 144.349L143.947 144.329L138.552 140.205C138.302 140.014 138.093 139.776 137.935 139.503C137.778 139.231 137.675 138.931 137.634 138.619C137.593 138.308 137.613 137.991 137.695 137.688C137.776 137.384 137.916 137.099 138.108 136.85C138.299 136.6 138.538 136.391 138.81 136.234C139.083 136.076 139.384 135.974 139.696 135.933C140.008 135.892 140.325 135.912 140.629 135.993C140.933 136.074 141.218 136.215 141.468 136.406L144.962 139.081L153.22 128.328C153.411 128.079 153.65 127.869 153.923 127.712C154.195 127.555 154.496 127.453 154.808 127.412C155.12 127.371 155.437 127.391 155.741 127.472C156.045 127.554 156.33 127.694 156.58 127.885L156.529 127.955L156.581 127.886C157.085 128.273 157.415 128.843 157.498 129.472C157.581 130.101 157.411 130.738 157.025 131.242L147.312 143.89C147.087 144.181 146.799 144.417 146.468 144.579C146.137 144.741 145.774 144.825 145.405 144.824Z" fill="white"/>
<path d="M147.505 273.132C147.101 273.133 146.702 273.047 146.334 272.881H146.334L103.085 253.509C102.378 253.193 101.741 252.741 101.209 252.179C100.677 251.616 100.262 250.955 99.9859 250.233C99.7102 249.51 99.5797 248.74 99.6021 247.967C99.6244 247.194 99.799 246.433 100.116 245.728C100.433 245.022 100.886 244.386 101.449 243.855C102.013 243.325 102.675 242.91 103.399 242.635C104.123 242.361 104.894 242.231 105.668 242.254C106.442 242.277 107.204 242.452 107.911 242.769L151.159 262.141C151.503 262.295 151.813 262.515 152.072 262.789C152.331 263.062 152.533 263.384 152.667 263.736C152.801 264.088 152.864 264.462 152.853 264.838C152.842 265.214 152.757 265.585 152.603 265.928L150.127 271.44C149.899 271.944 149.531 272.372 149.066 272.672C148.6 272.973 148.058 273.132 147.505 273.132Z" fill="#1E96B5"/>
<path d="M156.591 326H0.409924C0.301206 326 0.196939 325.957 0.120064 325.88C0.043188 325.803 0 325.699 0 325.591C0 325.482 0.043188 325.378 0.120064 325.301C0.196939 325.225 0.301206 325.181 0.409924 325.181H156.591C156.7 325.181 156.804 325.225 156.881 325.301C156.958 325.378 157.001 325.482 157.001 325.591C157.001 325.699 156.958 325.803 156.881 325.88C156.804 325.957 156.7 326 156.591 326Z" fill="#3F3D56"/>
</g>
<defs>
<clipPath id="clip0">
<rect width="367" height="326" fill="white"/>
</clipPath>
</defs>
</svg>
