<svg width="414" height="506" viewBox="0 0 414 506" fill="none" xmlns="http://www.w3.org/2000/svg">
     <defs>
        <linearGradient id="paint0_linear" x1="280.331" y1="196.91" x2="280.331" y2="188.644" gradientUnits="userSpaceOnUse">
        <stop stop-color="#808080" stop-opacity="0.25"/>
        <stop offset="0.54" stop-color="#808080" stop-opacity="0.12"/>
        <stop offset="1" stop-color="#808080" stop-opacity="0.1"/>
        </linearGradient>
        <linearGradient id="paint1_linear" x1="179933" y1="296311" x2="179933" y2="20802.7" gradientUnits="userSpaceOnUse">
        <stop stop-color="#808080" stop-opacity="0.25"/>
        <stop offset="0.54" stop-color="#808080" stop-opacity="0.12"/>
        <stop offset="1" stop-color="#808080" stop-opacity="0.1"/>
        </linearGradient>
        <clipPath id="clip0">
        <rect width="426" height="352" fill="white" transform="translate(-6 154)"/>
        </clipPath>
    </defs>
    <path d="M102.8 72.96C98.192 72.96 94.096 72.384 90.512 71.232C86.928 70.08 83.568 68.128 80.432 65.376C78.704 63.84 77.84 62.144 77.84 60.288C77.84 58.816 78.384 57.536 79.472 56.448C80.56 55.296 81.872 54.72 83.408 54.72C84.624 54.72 85.712 55.104 86.672 55.872C89.232 57.984 91.728 59.52 94.16 60.48C96.592 61.44 99.472 61.92 102.8 61.92C106.384 61.92 109.456 61.12 112.016 59.52C114.64 57.92 115.952 55.936 115.952 53.568C115.952 50.688 114.672 48.448 112.112 46.848C109.552 45.184 105.488 43.936 99.92 43.104C85.904 41.056 78.896 34.528 78.896 23.52C78.896 19.488 79.952 16 82.064 13.056C84.176 10.048 87.056 7.776 90.704 6.23999C94.352 4.64 98.416 3.84 102.896 3.84C106.928 3.84 110.704 4.448 114.224 5.664C117.808 6.88 120.784 8.48 123.152 10.464C125.008 11.936 125.936 13.632 125.936 15.552C125.936 17.024 125.392 18.336 124.304 19.488C123.216 20.576 121.936 21.12 120.464 21.12C119.504 21.12 118.64 20.832 117.872 20.256C116.208 18.912 113.872 17.696 110.864 16.608C107.92 15.456 105.264 14.88 102.896 14.88C98.864 14.88 95.728 15.648 93.488 17.184C91.312 18.656 90.224 20.608 90.224 23.04C90.224 25.792 91.344 27.872 93.584 29.28C95.888 30.688 99.472 31.84 104.336 32.736C109.84 33.696 114.224 34.944 117.488 36.48C120.816 37.952 123.312 40 124.976 42.624C126.64 45.184 127.472 48.608 127.472 52.896C127.472 56.928 126.32 60.48 124.016 63.552C121.776 66.56 118.768 68.896 114.992 70.56C111.216 72.16 107.152 72.96 102.8 72.96ZM164.113 19.68C168.529 19.68 172.529 20.832 176.113 23.136C179.697 25.376 182.513 28.512 184.561 32.544C186.673 36.576 187.729 41.152 187.729 46.272C187.729 51.392 186.705 56 184.657 60.096C182.609 64.128 179.793 67.296 176.209 69.6C172.689 71.84 168.785 72.96 164.497 72.96C161.425 72.96 158.513 72.352 155.761 71.136C153.073 69.856 150.833 68.32 149.041 66.528V85.344C149.041 87.008 148.497 88.384 147.409 89.472C146.321 90.624 144.945 91.2 143.281 91.2C141.617 91.2 140.241 90.656 139.153 89.568C138.065 88.48 137.521 87.072 137.521 85.344V26.496C137.521 24.832 138.065 23.456 139.153 22.368C140.241 21.216 141.617 20.64 143.281 20.64C144.945 20.64 146.321 21.216 147.409 22.368C148.497 23.456 149.041 24.832 149.041 26.496V26.88C150.577 24.96 152.721 23.296 155.473 21.888C158.225 20.416 161.105 19.68 164.113 19.68ZM162.673 62.4C166.769 62.4 170.129 60.864 172.753 57.792C175.377 54.72 176.689 50.88 176.689 46.272C176.689 41.664 175.377 37.856 172.753 34.848C170.193 31.776 166.833 30.24 162.673 30.24C158.513 30.24 155.121 31.776 152.497 34.848C149.873 37.856 148.561 41.664 148.561 46.272C148.561 50.88 149.873 54.72 152.497 57.792C155.121 60.864 158.513 62.4 162.673 62.4ZM208.182 66.144C208.182 67.808 207.638 69.216 206.55 70.368C205.462 71.456 204.086 72 202.422 72C200.758 72 199.382 71.456 198.294 70.368C197.206 69.216 196.662 67.808 196.662 66.144V26.496C196.662 24.832 197.206 23.456 198.294 22.368C199.382 21.216 200.758 20.64 202.422 20.64C204.086 20.64 205.462 21.216 206.55 22.368C207.638 23.456 208.182 24.832 208.182 26.496V66.144ZM202.326 14.4C200.15 14.4 198.614 14.048 197.718 13.344C196.822 12.64 196.374 11.392 196.374 9.6V7.776C196.374 5.984 196.854 4.736 197.814 4.032C198.774 3.328 200.31 2.976 202.422 2.976C204.662 2.976 206.23 3.328 207.126 4.032C208.022 4.736 208.47 5.984 208.47 7.776V9.6C208.47 11.456 207.99 12.736 207.03 13.44C206.134 14.08 204.566 14.4 202.326 14.4ZM244.789 61.152C245.685 61.152 246.485 61.6 247.189 62.496C247.957 63.328 248.341 64.448 248.341 65.856C248.341 67.584 247.381 69.056 245.461 70.272C243.605 71.424 241.493 72 239.125 72C235.157 72 231.797 71.168 229.045 69.504C226.357 67.776 225.013 64.16 225.013 58.656V32.16H220.597C219.061 32.16 217.781 31.648 216.757 30.624C215.733 29.6 215.221 28.32 215.221 26.784C215.221 25.312 215.733 24.096 216.757 23.136C217.781 22.112 219.061 21.6 220.597 21.6H225.013V15.456C225.013 13.792 225.557 12.416 226.645 11.328C227.797 10.176 229.205 9.6 230.869 9.6C232.469 9.6 233.813 10.176 234.901 11.328C235.989 12.416 236.533 13.792 236.533 15.456V21.6H243.349C244.885 21.6 246.165 22.112 247.189 23.136C248.213 24.16 248.725 25.44 248.725 26.976C248.725 28.448 248.213 29.696 247.189 30.72C246.165 31.68 244.885 32.16 243.349 32.16H236.533V58.176C236.533 59.52 236.885 60.512 237.589 61.152C238.293 61.728 239.253 62.016 240.469 62.016C240.981 62.016 241.685 61.888 242.581 61.632C243.349 61.312 244.085 61.152 244.789 61.152ZM300.871 19.68C302.535 19.68 303.911 20.224 304.999 21.312C306.087 22.4 306.631 23.808 306.631 25.536V66.144C306.631 67.808 306.087 69.216 304.999 70.368C303.911 71.456 302.535 72 300.871 72C299.207 72 297.831 71.456 296.743 70.368C295.719 69.28 295.175 67.904 295.111 66.24C293.511 68.096 291.335 69.696 288.583 71.04C285.895 72.32 283.047 72.96 280.039 72.96C275.623 72.96 271.623 71.84 268.039 69.6C264.455 67.296 261.607 64.128 259.495 60.096C257.447 56.064 256.423 51.488 256.423 46.368C256.423 41.248 257.447 36.672 259.495 32.64C261.543 28.544 264.327 25.376 267.847 23.136C271.431 20.832 275.367 19.68 279.655 19.68C282.727 19.68 285.607 20.256 288.295 21.408C290.983 22.496 293.255 23.904 295.111 25.632V25.536C295.111 23.872 295.655 22.496 296.743 21.408C297.831 20.256 299.207 19.68 300.871 19.68ZM281.479 62.4C285.639 62.4 289.031 60.896 291.655 57.888C294.279 54.816 295.591 50.976 295.591 46.368C295.591 41.76 294.279 37.92 291.655 34.848C289.031 31.776 285.639 30.24 281.479 30.24C277.383 30.24 274.023 31.776 271.399 34.848C268.775 37.92 267.463 41.76 267.463 46.368C267.463 50.976 268.743 54.816 271.303 57.888C273.927 60.896 277.319 62.4 281.479 62.4ZM331.595 66.144C331.595 67.808 331.019 69.216 329.867 70.368C328.779 71.456 327.403 72 325.739 72C324.139 72 322.795 71.456 321.707 70.368C320.619 69.216 320.075 67.808 320.075 66.144V6.816C320.075 5.152 320.619 3.776 321.707 2.68799C322.859 1.536 324.267 0.959999 325.931 0.959999C327.531 0.959999 328.875 1.536 329.963 2.68799C331.051 3.776 331.595 5.152 331.595 6.816V66.144Z" fill="white"/>
    <g clip-path="url(#clip0)">
    <path opacity="0.1" d="M241.513 216.078C214.203 214.99 188.171 204.879 163.352 193.82C138.532 182.761 113.932 170.506 87.2616 164.645C70.1138 160.872 50.5029 160.341 36.689 170.883C23.3928 181.025 19.098 198.533 16.7878 214.778C15.0503 227.002 14.0423 239.865 18.792 251.311C22.0984 259.253 27.966 265.932 32.0255 273.542C46.1453 300.018 36.1634 332.669 20.859 358.543C13.6814 370.686 5.35464 382.24 -0.183479 395.152C-5.7216 408.064 -8.2867 422.856 -3.43889 436.025C1.36579 449.067 12.8107 458.88 25.2127 465.775C50.4009 479.766 80.0801 483.769 109.022 486.063C173.087 491.087 237.497 488.91 301.73 486.733C325.503 485.923 349.381 485.109 372.765 480.886C385.751 478.543 399.161 474.828 408.59 465.86C420.557 454.473 423.526 435.197 415.505 420.918C402.052 396.973 364.858 391.023 355.453 365.325C350.279 351.181 355.594 335.422 363.116 322.303C379.248 294.162 406.296 269.471 407.72 237.301C408.7 215.205 395.698 193.083 375.593 182.626C354.523 171.657 325.303 173.042 309.759 191.171C293.753 209.849 265.623 217.036 241.513 216.078Z" fill="#16697A"/>
    <path d="M89.0149 480.081C89.0149 480.081 67.4429 461.381 63.3678 437.594C61.7152 427.604 57.2824 418.497 50.7344 411.64C47.602 408.414 44.2187 405.523 40.627 403.005" stroke="#535461" stroke-width="2" stroke-miterlimit="10"/>
    <path d="M37.9874 388.019C39.8779 390.951 40.733 403.378 40.733 403.378C40.733 403.378 30.6255 398.813 28.7311 395.885C27.8214 394.478 27.4366 392.713 27.6613 390.981C27.886 389.248 28.7018 387.688 29.9293 386.645C31.1568 385.602 32.6953 385.161 34.2065 385.418C35.7177 385.676 37.0778 386.612 37.9874 388.019Z" fill="#16697A"/>
    <path d="M56.1155 397.77C56.3116 401.408 51.1461 412.373 51.1461 412.373C51.1461 412.373 44.8196 402.235 44.6196 398.597C44.5435 396.862 45.0665 395.163 46.0754 393.868C47.0842 392.573 48.4976 391.785 50.0092 391.676C51.5208 391.567 53.009 392.146 54.1512 393.286C55.2935 394.427 55.9978 396.038 56.1116 397.77H56.1155Z" fill="#16697A"/>
    <path d="M73.687 425.797C72.2594 429.053 62.9677 435.53 62.9677 435.53C62.9677 435.53 61.9754 423.117 63.4031 419.861C64.1059 418.33 65.3049 417.176 66.742 416.648C68.1791 416.12 69.7395 416.26 71.0874 417.038C72.4352 417.817 73.4629 419.17 73.949 420.808C74.4352 422.447 74.3412 424.238 73.687 425.797Z" fill="#16697A"/>
    <path d="M82.8218 450.425C81.8922 453.911 73.6909 462.092 73.6909 462.092C73.6909 462.092 70.8787 450.052 71.8083 446.562C72.2551 444.887 73.2637 443.485 74.6123 442.663C75.961 441.841 77.5391 441.667 78.9996 442.179C80.4601 442.692 81.6833 443.848 82.4001 445.395C83.1169 446.941 83.2685 448.751 82.8218 450.425Z" fill="#16697A"/>
    <path d="M41.7957 421.188C44.9335 421.673 54.8527 416.537 54.8527 416.537C54.8527 416.537 46.4828 408.586 43.3293 408.1C41.8158 407.867 40.2835 408.333 39.0694 409.395C37.8554 410.457 37.0591 412.029 36.8558 413.765C36.6524 415.5 37.0586 417.257 37.985 418.649C38.9115 420.041 40.2822 420.954 41.7957 421.188Z" fill="#16697A"/>
    <path d="M52.7974 449.841C55.9352 449.225 64.0423 440.927 64.0423 440.927C64.0423 440.927 53.978 436.214 50.8442 436.83C50.0939 436.971 49.3754 437.281 48.7301 437.742C48.0849 438.203 47.5257 438.806 47.0848 439.516C46.6439 440.227 46.33 441.03 46.1613 441.88C45.9926 442.73 45.9724 443.61 46.1019 444.469C46.2314 445.328 46.508 446.15 46.9157 446.885C47.3235 447.621 47.8543 448.257 48.4775 448.757C49.1007 449.256 49.804 449.609 50.5468 449.795C51.2896 449.981 52.0572 449.997 52.8053 449.841H52.7974Z" fill="#16697A"/>
    <path d="M66.8193 476.011C70.0002 476.011 79.2173 469.404 79.2173 469.404C79.2173 469.404 69.9963 462.807 66.8154 462.807C65.2883 462.807 63.8238 463.502 62.744 464.741C61.6642 465.979 61.0576 467.658 61.0576 469.409C61.0576 471.16 61.6642 472.839 62.744 474.077C63.8238 475.316 65.2883 476.011 66.8154 476.011H66.8193Z" fill="#16697A"/>
    <path d="M298.577 318.34C298.577 318.34 311.873 291.333 331.915 283.553C340.331 280.348 347.614 274.1 352.672 265.748C355.044 261.754 357.09 257.519 358.786 253.096" stroke="#535461" stroke-width="2" stroke-miterlimit="10"/>
    <path d="M371.369 248.149C369.086 250.686 358.461 253.312 358.461 253.312C358.461 253.312 361.069 241.214 363.352 238.673C364.454 237.49 365.917 236.851 367.426 236.892C368.934 236.934 370.369 237.653 371.42 238.896C372.471 240.138 373.054 241.804 373.045 243.534C373.035 245.265 372.433 246.922 371.369 248.149Z" fill="#16697A"/>
    <path d="M365.36 270.02C362.222 270.731 352.076 266.314 352.076 266.314C352.076 266.314 359.998 257.769 363.117 257.072C363.865 256.881 364.64 256.864 365.394 257.022C366.149 257.179 366.868 257.508 367.51 257.988C368.153 258.469 368.705 259.092 369.134 259.82C369.564 260.549 369.862 261.368 370.011 262.231C370.161 263.093 370.159 263.981 370.005 264.843C369.851 265.704 369.548 266.522 369.115 267.247C368.682 267.973 368.126 268.592 367.481 269.068C366.837 269.544 366.115 269.868 365.36 270.02Z" fill="#16697A"/>
    <path d="M343.49 293.712C340.485 292.521 333.657 282.824 333.657 282.824C333.657 282.824 344.247 280.045 347.259 281.237C347.983 281.512 348.652 281.949 349.227 282.523C349.802 283.097 350.272 283.797 350.609 284.581C350.947 285.365 351.145 286.218 351.193 287.091C351.24 287.963 351.136 288.838 350.887 289.664C350.637 290.49 350.247 291.252 349.739 291.903C349.231 292.555 348.614 293.085 347.926 293.461C347.238 293.838 346.492 294.054 345.73 294.097C344.969 294.14 344.207 294.01 343.49 293.712Z" fill="#16697A"/>
    <path d="M323.393 307.367C320.255 306.773 312.113 298.52 312.113 298.52C312.113 298.52 322.149 293.726 325.283 294.32C326.792 294.604 328.14 295.564 329.031 296.988C329.922 298.412 330.283 300.184 330.035 301.914C329.787 303.643 328.95 305.189 327.708 306.211C326.466 307.232 324.921 307.647 323.412 307.362L323.393 307.367Z" fill="#16697A"/>
    <path d="M343.216 256.856C343.212 260.504 348.981 271.086 348.981 271.086C348.981 271.086 354.743 260.517 354.743 256.874C354.763 255.993 354.629 255.116 354.349 254.295C354.068 253.474 353.648 252.726 353.111 252.095C352.575 251.463 351.933 250.961 351.225 250.619C350.517 250.276 349.756 250.1 348.987 250.1C348.218 250.1 347.457 250.276 346.749 250.619C346.041 250.961 345.399 251.463 344.863 252.095C344.326 252.726 343.906 253.474 343.625 254.295C343.345 255.116 343.211 255.993 343.231 256.874L343.216 256.856Z" fill="#16697A"/>
    <path d="M319.906 273.164C320.855 276.645 329.107 284.763 329.107 284.763C329.107 284.763 331.853 272.701 330.896 269.22C330.4 267.607 329.377 266.278 328.043 265.512C326.709 264.747 325.169 264.605 323.745 265.116C322.322 265.627 321.127 266.752 320.413 268.253C319.698 269.754 319.519 271.515 319.914 273.164H319.906Z" fill="#16697A"/>
    <path d="M299.169 292.579C299.593 296.177 306.527 305.788 306.527 305.788C306.527 305.788 311.003 294.432 310.579 290.821C310.495 289.946 310.259 289.099 309.886 288.33C309.512 287.561 309.008 286.885 308.403 286.343C307.798 285.8 307.105 285.402 306.364 285.172C305.623 284.941 304.85 284.883 304.089 285C303.328 285.117 302.595 285.408 301.934 285.854C301.272 286.301 300.695 286.895 300.237 287.601C299.779 288.308 299.448 289.112 299.265 289.967C299.081 290.821 299.049 291.71 299.169 292.579Z" fill="#16697A"/>
    <path opacity="0.25" d="M371.369 248.149C369.086 250.686 358.461 253.312 358.461 253.312C358.461 253.312 361.069 241.214 363.352 238.673C364.454 237.49 365.917 236.851 367.426 236.892C368.934 236.934 370.369 237.653 371.42 238.896C372.471 240.138 373.054 241.804 373.045 243.534C373.035 245.265 372.433 246.922 371.369 248.149Z" fill="black"/>
    <path opacity="0.25" d="M365.36 270.02C362.222 270.731 352.076 266.314 352.076 266.314C352.076 266.314 359.998 257.769 363.117 257.072C363.865 256.881 364.64 256.864 365.394 257.022C366.149 257.179 366.868 257.508 367.51 257.988C368.153 258.469 368.705 259.092 369.134 259.82C369.564 260.549 369.862 261.368 370.011 262.231C370.161 263.093 370.159 263.981 370.005 264.843C369.851 265.704 369.548 266.522 369.115 267.247C368.682 267.973 368.126 268.592 367.481 269.068C366.837 269.544 366.115 269.868 365.36 270.02Z" fill="black"/>
    <path opacity="0.25" d="M343.49 293.712C340.485 292.521 333.657 282.824 333.657 282.824C333.657 282.824 344.247 280.045 347.259 281.237C347.983 281.512 348.652 281.949 349.227 282.523C349.802 283.097 350.272 283.797 350.609 284.581C350.947 285.365 351.145 286.218 351.193 287.091C351.24 287.963 351.136 288.838 350.887 289.664C350.637 290.49 350.247 291.252 349.739 291.903C349.231 292.555 348.614 293.085 347.926 293.461C347.238 293.838 346.492 294.054 345.73 294.097C344.969 294.14 344.207 294.01 343.49 293.712Z" fill="black"/>
    <path opacity="0.25" d="M323.393 307.367C320.255 306.773 312.113 298.52 312.113 298.52C312.113 298.52 322.149 293.726 325.283 294.32C326.792 294.604 328.14 295.564 329.031 296.988C329.922 298.412 330.283 300.184 330.035 301.914C329.787 303.643 328.95 305.189 327.708 306.211C326.466 307.232 324.921 307.647 323.412 307.362L323.393 307.367Z" fill="black"/>
    <path opacity="0.25" d="M343.216 256.856C343.212 260.504 348.981 271.086 348.981 271.086C348.981 271.086 354.743 260.517 354.743 256.874C354.763 255.993 354.629 255.116 354.349 254.295C354.068 253.474 353.648 252.726 353.111 252.095C352.575 251.463 351.933 250.961 351.225 250.619C350.517 250.276 349.756 250.1 348.987 250.1C348.218 250.1 347.457 250.276 346.749 250.619C346.041 250.961 345.399 251.463 344.863 252.095C344.326 252.726 343.906 253.474 343.625 254.295C343.345 255.116 343.211 255.993 343.231 256.874L343.216 256.856Z" fill="black"/>
    <path opacity="0.25" d="M319.906 273.164C320.855 276.645 329.107 284.763 329.107 284.763C329.107 284.763 331.853 272.701 330.896 269.22C330.4 267.607 329.377 266.278 328.043 265.512C326.709 264.747 325.169 264.605 323.745 265.116C322.322 265.627 321.127 266.752 320.413 268.253C319.698 269.754 319.519 271.515 319.914 273.164H319.906Z" fill="black"/>
    <path opacity="0.25" d="M299.169 292.579C299.593 296.177 306.527 305.788 306.527 305.788C306.527 305.788 311.003 294.432 310.579 290.821C310.495 289.946 310.259 289.099 309.886 288.33C309.512 287.561 309.008 286.885 308.403 286.343C307.798 285.8 307.105 285.402 306.364 285.172C305.623 284.941 304.85 284.883 304.089 285C303.328 285.117 302.595 285.408 301.934 285.854C301.272 286.301 300.695 286.895 300.237 287.601C299.779 288.308 299.448 289.112 299.265 289.967C299.081 290.821 299.049 291.71 299.169 292.579Z" fill="black"/>
    <path d="M299.342 317.805C299.342 317.805 301.954 286.935 317.509 270.519C324.07 263.678 328.521 254.582 330.194 244.596C330.955 239.849 331.334 235.031 331.327 230.204" stroke="#535461" stroke-width="2" stroke-miterlimit="10"/>
    <path d="M341.078 219.788C339.901 223.17 331.1 230.51 331.1 230.51C331.1 230.51 329.209 218.237 330.398 214.855C330.97 213.231 332.081 211.934 333.487 211.249C334.893 210.565 336.479 210.549 337.895 211.205C339.311 211.861 340.442 213.135 341.039 214.748C341.636 216.36 341.65 218.178 341.078 219.802V219.788Z" fill="#16697A"/>
    <path d="M343.317 242.599C340.717 244.695 329.864 245.383 329.864 245.383C329.864 245.383 334.092 233.897 336.693 231.801C337.309 231.272 338.012 230.89 338.76 230.678C339.508 230.466 340.285 230.428 341.046 230.566C341.807 230.705 342.536 231.017 343.189 231.484C343.843 231.952 344.408 232.565 344.851 233.287C345.295 234.009 345.607 234.826 345.77 235.69C345.933 236.553 345.943 237.445 345.8 238.313C345.657 239.181 345.364 240.007 344.937 240.742C344.511 241.478 343.96 242.108 343.317 242.595V242.599Z" fill="#16697A"/>
    <path d="M331.684 274.432C328.515 274.738 318.843 269.035 318.843 269.035C318.843 269.035 327.55 261.569 330.719 261.264C332.241 261.117 333.752 261.669 334.918 262.8C336.085 263.93 336.812 265.545 336.94 267.29C337.068 269.035 336.586 270.767 335.6 272.105C334.615 273.442 333.206 274.276 331.684 274.423V274.432Z" fill="#16697A"/>
    <path d="M318.149 296.24C315.07 297.14 304.699 293.42 304.699 293.42C304.699 293.42 312.179 284.376 315.258 283.458C316.736 283.019 318.306 283.271 319.622 284.158C320.939 285.046 321.893 286.497 322.277 288.192C322.66 289.887 322.441 291.687 321.666 293.196C320.892 294.706 319.627 295.801 318.149 296.24Z" fill="#16697A"/>
    <path d="M318.423 240.854C319.71 244.187 328.707 251.198 328.707 251.198C328.707 251.198 330.237 238.857 328.95 235.525C328.309 233.966 327.162 232.756 325.753 232.154C324.345 231.552 322.787 231.605 321.412 232.303C320.037 233.001 318.955 234.287 318.397 235.888C317.838 237.488 317.848 239.275 318.423 240.868V240.854Z" fill="#16697A"/>
    <path d="M302.876 266.588C304.974 269.327 315.384 272.916 315.384 272.916C315.384 272.916 313.627 260.616 311.528 257.877C311.033 257.212 310.427 256.666 309.746 256.271C309.066 255.876 308.323 255.641 307.562 255.578C306.801 255.515 306.037 255.626 305.314 255.905C304.591 256.184 303.923 256.625 303.35 257.202C302.777 257.779 302.309 258.481 301.974 259.268C301.64 260.054 301.445 260.908 301.401 261.782C301.357 262.655 301.464 263.53 301.718 264.355C301.971 265.18 302.365 265.939 302.876 266.588Z" fill="#16697A"/>
    <path d="M290.76 293.987C292.423 297.09 302.154 302.644 302.154 302.644C302.154 302.644 302.236 290.182 300.585 287.074C299.763 285.639 298.486 284.628 297.025 284.255C295.563 283.881 294.033 284.175 292.757 285.075C291.482 285.974 290.562 287.407 290.193 289.071C289.824 290.735 290.034 292.498 290.78 293.987H290.76Z" fill="#16697A"/>
    <path d="M279.339 196.91C279.99 194.171 280.774 191.418 281.323 188.644C280.665 191.418 279.876 194.18 279.339 196.91Z" fill="url(#paint0_linear)"/>
    <path d="M276.421 223.291C276.366 223.183 276.327 223.075 276.283 222.976C276.283 222.931 276.244 222.895 276.228 222.85C276.143 222.897 276.055 222.937 275.966 222.972C275.793 223.048 275.617 223.12 275.436 223.179C275.256 223.237 275.181 223.269 275.044 223.305C274.93 223.35 274.813 223.384 274.695 223.408L274.726 223.489C274.871 223.453 275.013 223.422 275.158 223.377L275.197 223.934C275.362 223.934 275.515 223.907 275.664 223.907C275.734 223.903 275.805 223.903 275.875 223.907C276.181 223.907 276.448 223.907 276.66 223.907C276.578 223.705 276.491 223.493 276.421 223.291ZM356.041 368.616C354.198 365.77 350.518 335.214 350.518 335.214C350.518 335.214 343.282 313.487 345.255 304.816C347.228 296.145 339.866 273.959 339.866 273.959C339.866 273.959 335.002 271.535 334.74 267.937C334.74 267.937 314.882 260.741 313.952 255.344C313.199 250.919 300.883 247.744 296.459 246.741C295.11 240.498 293.753 234.674 292.753 231.494C292.482 230.505 292.227 229.65 291.992 228.976C290.301 224.029 285.077 223.579 281.288 223.975C281.124 223.132 280.819 222.333 280.39 221.623C280.327 221.378 280.203 221.161 280.033 220.997C279.952 220.918 279.865 220.846 279.774 220.782C279.706 220.636 279.615 220.505 279.507 220.395C279.4 220.284 279.281 220.187 279.154 220.107C279.063 220.05 278.969 220.001 278.872 219.958C278.645 219.859 278.41 219.785 278.17 219.738C277.891 219.672 277.607 219.63 277.323 219.612C278.015 219.265 278.632 218.748 279.131 218.097C279.47 217.64 279.722 217.107 279.872 216.531C279.996 216.053 280.052 215.555 280.037 215.056C279.935 215.262 279.817 215.456 279.684 215.636C279.849 213.644 278.931 211.62 278.405 209.637C277.768 207.055 277.65 204.341 278.06 201.699C278.586 197.714 279.888 193.685 280.77 189.628C280.773 189.605 280.773 189.583 280.77 189.56C281.233 187.546 281.52 185.483 281.625 183.403C281.778 179.207 280.841 175.02 279.335 171.197C277.997 167.811 276.024 164.478 273.004 163.102C270.761 162.063 268.247 162.23 265.831 162.059C260.41 161.672 255.241 159.486 250.087 157.498C244.933 155.51 239.631 153.702 234.206 154.049C228.782 154.395 223.201 157.395 220.726 162.9C219.941 164.618 219.49 166.529 218.553 168.144C216.796 171.188 213.65 172.713 211.026 174.813C208.402 176.914 206.092 179.895 205.143 183.453C204.624 185.369 204.551 187.408 204.931 189.367C205.016 189.809 205.126 190.245 205.26 190.671C205.633 191.86 206.213 192.948 206.967 193.869C207.535 194.55 208.188 195.13 208.904 195.591C209.804 196.163 210.767 196.593 211.767 196.869C211.732 197.004 211.697 197.148 211.658 197.287C211.595 197.516 211.54 197.737 211.481 197.984C211.352 198.537 211.23 199.099 211.128 199.666C211.124 199.706 211.124 199.747 211.128 199.788C210.646 202.346 210.404 204.955 210.406 207.573C210.406 208.81 210.461 210.047 210.571 211.278C212.14 229.529 225.279 243.925 241.513 244.861C242.07 244.892 242.631 244.91 243.2 244.91C243.459 244.91 243.714 244.91 243.984 244.91C244.239 245.297 244.49 245.693 244.729 246.08C244.969 246.466 245.188 246.862 245.396 247.249L244.827 246.574L244.259 245.976C244.105 246.219 243.933 246.446 243.745 246.655C243.374 246.506 242.996 246.382 242.611 246.286C240.984 245.873 238.505 245.72 235.242 246.849C232.241 247.879 228.574 249.997 224.283 254.022L203.374 268.414L192.062 276.302L187.987 287.726C187.987 287.726 184.924 301.299 181.516 316.851C181.382 316.896 181.253 316.941 181.123 316.995C180.847 316.959 180.57 316.941 180.292 316.941C178.314 316.936 176.412 317.809 174.984 319.378C173.557 320.948 172.715 323.09 172.636 325.356C165.858 334.8 165.474 344.245 167.066 348.58C167.21 348.987 167.392 349.374 167.608 349.736C168.651 351.463 170.6 355.916 172.577 360.66C172.526 361.052 172.495 361.38 172.479 361.627C172.475 361.708 172.475 361.789 172.479 361.87C172.479 361.87 173.656 382.248 169.733 388.09C168.874 389.363 169.004 391.036 169.733 392.889C172.361 399.554 182.751 408.455 182.751 408.455C182.751 408.455 195.212 408.378 202.154 407.51C202.135 408.311 202.119 409.107 202.103 409.885C201.946 417.746 201.946 424.335 201.946 424.335L201.687 432.579C201.687 432.579 199.334 449.952 198.157 454.742C197.416 457.746 198.271 485.563 199.016 506.013H321.789C323.232 493.915 321.196 457.157 321.196 457.157C321.196 457.157 319.263 447.654 319.192 439.37C319.188 439.361 319.186 439.351 319.186 439.341C319.186 439.331 319.188 439.321 319.192 439.311C319.192 438.587 319.192 437.881 319.216 437.189L320.106 437.153L321.706 437.09H321.851C321.851 437.09 321.89 436.919 321.981 436.64C322.192 435.945 322.481 435.285 322.84 434.675C323.522 433.519 324.589 432.385 326.193 432.309C327.08 432.268 328.452 431.445 330.002 430.231C330.012 430.234 330.023 430.234 330.033 430.231C334.202 426.997 339.713 421.029 341.05 420.049C342.89 418.7 351.699 409.705 351.699 409.705C351.699 409.705 353.013 407.798 354.413 405.5L354.464 405.419C356.206 402.541 358.057 399.1 357.602 398.016C356.818 396.073 358.128 391.427 358.128 391.427C362.218 382.842 357.884 371.463 356.041 368.616ZM280.198 230.285C280.235 230.419 280.259 230.558 280.268 230.698C280.17 230.55 280.072 230.393 279.974 230.249L279.88 230.105L279.813 229.997L279.962 229.763C279.962 229.763 279.962 229.763 279.962 229.794C280.066 229.94 280.146 230.106 280.198 230.285ZM278.88 226.3C278.452 226.399 278.115 226.489 277.895 226.556C277.617 225.99 277.35 225.423 277.111 224.847C277.74 225.265 278.332 225.752 278.88 226.3ZM278.142 227.01C278.141 227.002 278.141 226.992 278.142 226.983L278.174 227.01C278.335 227.132 278.492 227.249 278.637 227.37C278.766 227.478 278.884 227.582 279.001 227.69C278.923 227.847 278.837 228.009 278.75 228.139C278.613 227.892 278.484 227.654 278.358 227.406C278.28 227.307 278.209 227.172 278.142 227.01ZM275.789 221.461C276.547 221.375 277.31 221.375 278.068 221.461C278.174 221.461 278.268 221.483 278.362 221.501C278.575 221.539 278.784 221.601 278.986 221.686C279.449 222.429 279.735 223.299 279.813 224.209L279.602 224.245L279.394 224.29C279.001 224.366 278.609 224.442 278.303 224.514L277.911 224.609C277.389 224.739 277.087 224.838 277.076 224.843C277.025 224.721 276.974 224.609 276.919 224.492C276.832 224.299 276.742 224.101 276.664 223.907C276.585 223.714 276.483 223.493 276.401 223.291C276.346 223.183 276.307 223.075 276.264 222.976C276.264 222.931 276.225 222.895 276.209 222.85C276.186 222.803 276.166 222.753 276.15 222.702C275.911 222.144 275.691 221.587 275.479 221.038C275.456 220.984 275.436 220.925 275.417 220.871L275.715 220.849V220.966L275.789 221.461ZM182.21 500.454C182.178 493.757 181.755 486.512 180.578 479.712C180.076 476.82 179.558 473.928 179.033 471.086C178.899 470.375 178.77 469.674 178.641 468.972L177.433 469.156H177.323C174.028 451.342 170.584 435.646 170.584 435.646C170.584 435.646 163.744 405.698 164.536 403.31C164.638 402.999 164.509 402.163 164.219 400.935C162.564 394.126 155.653 375.363 153.237 368.949C153.237 368.922 153.217 368.891 153.209 368.868C152.817 367.793 152.535 367.069 152.448 366.858L153.017 357.287L153.048 356.712L153.123 355.488L153.092 355.457L153.123 354.89C153.123 354.89 147.153 349.277 137.042 345.225C136.65 345.063 136.234 344.906 135.822 344.753C136.328 340.881 136.999 336.509 137.873 332.25C137.956 331.823 138.046 331.409 138.14 330.991C138.223 330.573 138.317 330.168 138.411 329.759C138.56 329.093 138.721 328.436 138.885 327.789C139.431 327.591 139.968 327.371 140.497 327.137L140.701 327.047C147.224 324.136 152.607 318.614 155.852 311.503C159.097 304.392 159.985 296.173 158.351 288.369C157.42 283.943 155.7 279.785 153.299 276.158C153.119 275.879 152.927 275.601 152.735 275.326C152.542 275.052 152.311 274.746 152.095 274.467C153.229 271.512 154.566 268.702 154.676 265.828C154.696 265.464 154.696 265.099 154.676 264.735V264.69C154.531 262.841 153.817 260.971 152.154 259.005C149.726 256.122 146.271 254.661 142.815 253.959C139.36 253.257 135.838 253.239 132.363 252.767C126.601 251.976 120.988 249.938 115.227 249.313C108.13 248.56 100.985 249.955 94.5059 253.361C90.2189 255.61 85.8771 259.54 85.6182 264.933C85.4064 269.39 88.1127 273.662 87.4303 278.065C86.7517 282.392 82.908 285.796 83.2453 290.172C83.3747 291.881 84.1396 293.41 85.0966 294.773C85.426 295.223 85.7751 295.673 86.1359 296.122C87.5322 297.818 89.0697 299.446 89.8502 301.582C89.8816 301.672 89.913 301.762 89.9405 301.852C90.6033 303.961 90.3052 306.628 88.6657 307.838C88.6748 307.846 88.6816 307.857 88.6854 307.87C88.7089 307.906 88.7324 307.933 88.752 307.969C88.7544 307.961 88.7544 307.953 88.752 307.946C89.3333 308.736 90.1169 309.297 90.9916 309.547L91.325 309.664C91.0543 310.001 90.7994 310.352 90.5405 310.721L90.3719 310.977C89.9396 311.644 89.5466 312.342 89.1952 313.069C88.9952 313.473 88.803 313.878 88.6422 314.283C88.1046 315.517 87.7154 316.829 87.4852 318.182C87.0655 321.16 87.6577 324.263 87.0223 327.177C86.2379 330.775 83.7552 333.536 82.3549 336.878C79.7036 343.174 81.2058 350.564 81.7392 357.517C82.4648 366.961 81.2881 376.446 80.1154 385.828C79.4931 390.817 78.8707 395.811 78.2484 400.809C76.6796 413.354 75.1107 425.899 73.5418 438.443C72.9692 443.04 72.2906 447.888 69.6196 451.437H69.6471C69.6471 451.437 69.6471 451.464 69.6196 451.473C70.4214 451.874 71.2742 452.126 72.1455 452.219C75.6323 452.619 79.327 450.685 82.4648 448.572C84.9497 446.925 87.303 445.03 89.4973 442.909C89.1756 444.259 88.8305 445.729 88.4618 447.312C88.463 447.327 88.463 447.342 88.4618 447.357C84.0336 466.696 76.911 502.15 76.911 502.15C76.911 502.15 76.2638 503.692 75.4245 505.99H186.03C184.736 504.191 183.532 502.469 182.59 501.079L182.21 500.454ZM100.315 321.636C100.342 321.582 100.362 321.533 100.389 321.483C100.389 321.627 100.389 321.767 100.389 321.902C100.389 322.037 100.389 322.158 100.389 322.284C100.389 322.41 100.389 322.396 100.389 322.459C100.389 322.522 100.389 322.459 100.389 322.459C100.389 322.644 100.354 322.828 100.326 323.013C100.326 323.013 100.326 323.035 100.326 323.053L100.719 323.219L101.174 323.435C103.862 324.653 106.584 325.754 109.34 326.741C109.622 326.844 109.908 326.943 110.195 327.038L110.253 327.595C110.324 328.167 110.391 328.747 110.453 329.327C110.453 329.327 110.453 329.354 110.453 329.372C110.63 330.977 110.803 332.579 110.956 334.144C110.956 334.144 103.754 330.995 103.845 335.776C103.84 335.862 103.84 335.947 103.845 336.033C103.837 336.146 103.837 336.261 103.845 336.374C103.911 340.098 104.927 342.306 105.131 343.44C105.119 343.487 105.097 343.53 105.068 343.566C104.894 344 104.834 344.483 104.896 344.955C104.889 345.76 104.944 346.564 105.06 347.357C104.849 347.505 104.641 347.654 104.433 347.807C104.276 347.919 104.127 348.045 103.974 348.171C103.012 344.344 101.753 340.623 100.213 337.053C99.134 334.508 97.9221 331.854 97.9339 329.062C97.9339 328.882 97.9339 328.697 97.9535 328.513C97.9972 327.703 98.1317 326.904 98.3535 326.134C98.4437 325.841 98.5418 325.554 98.6516 325.27C98.9079 324.597 99.1947 323.939 99.5106 323.3C99.7145 322.878 99.9303 322.459 100.138 322.037C100.205 321.911 100.268 321.78 100.33 321.654L100.315 321.636ZM276.421 223.291C276.366 223.183 276.327 223.075 276.283 222.976C276.283 222.931 276.244 222.895 276.228 222.85C276.143 222.897 276.055 222.937 275.966 222.972C275.793 223.048 275.617 223.12 275.436 223.179C275.256 223.237 275.181 223.269 275.044 223.305L274.695 223.408L274.726 223.489C274.871 223.453 275.013 223.422 275.158 223.377L275.197 223.934C275.362 223.934 275.515 223.907 275.664 223.907H275.875C276.181 223.907 276.448 223.907 276.66 223.907C276.578 223.705 276.491 223.493 276.421 223.291Z" fill="url(#paint1_linear)"/>
    <path d="M190.721 289.35L188.368 290.542C188.368 290.542 173.028 358.876 173.028 364.399C173.028 369.921 205.555 400.652 205.555 400.652L210.63 361.372C210.63 361.372 203.343 271.293 190.721 289.35Z" fill="#E8F5FF"/>
    <path d="M262.07 267.614L248.479 259.483C247.718 255.762 246.367 252.233 244.494 249.071C242.506 245.779 239.862 242.545 236.567 240.859C228.241 236.577 271.789 214.104 271.789 214.104C272.475 216.803 273.282 219.46 274.209 222.064C276.452 228.414 280.174 236.627 284.971 238.965C293.125 242.946 262.07 267.614 262.07 267.614Z" fill="#FFC1C7"/>
    <path opacity="0.1" d="M274.209 222.064C272.348 229.568 268.478 236.212 263.147 241.058C257.815 245.904 251.29 248.707 244.494 249.071C242.506 245.779 239.862 242.545 236.567 240.859C228.241 236.577 271.789 214.104 271.789 214.104C272.475 216.803 273.282 219.46 274.209 222.064Z" fill="black"/>
    <path d="M275.432 210.717C275.434 218.077 273.532 225.271 269.967 231.391C266.402 237.511 261.335 242.281 255.406 245.099C249.477 247.916 242.952 248.654 236.657 247.219C230.362 245.784 224.58 242.241 220.041 237.037C215.502 231.833 212.411 225.203 211.159 217.985C209.907 210.767 210.55 203.286 213.006 196.486C215.462 189.687 219.622 183.876 224.959 179.788C230.295 175.7 236.57 173.518 242.988 173.519C247.254 173.496 251.481 174.443 255.426 176.304C259.371 178.166 262.955 180.905 265.972 184.363C268.989 187.822 271.378 191.932 273.001 196.455C274.625 200.978 275.451 205.826 275.432 210.717Z" fill="#FFC1C7"/>
    <path d="M280.115 262.838L271.267 286.512L263.462 302.226H238.477L231.19 280.742L234.143 258.462H253.225L265.544 257.666L269.706 256.074L272.389 257.819L280.115 262.838Z" fill="#575A89"/>
    <path opacity="0.1" d="M277.068 231.279C277.068 231.279 282.586 232.629 277.644 237.274C272.703 241.92 255.653 256.694 255.653 256.694C255.653 256.694 261.642 262.811 260.403 269.975L280.245 257.292L283.775 237C283.775 237 284.171 230.902 277.068 231.279Z" fill="black"/>
    <path opacity="0.1" d="M259.555 256.694L246.934 259.082C246.934 259.082 249.538 270.124 248.236 273.258C248.196 273.356 248.164 273.456 248.138 273.56L242.988 289.521L246.847 302.055L260.206 281.165L255.653 273.258C255.653 273.258 260.465 265.945 263.328 263.409C266.191 260.872 259.555 256.694 259.555 256.694Z" fill="black"/>
    <path d="M259.555 256.078L246.934 258.462C246.934 258.462 249.538 269.503 248.236 272.638C248.196 272.735 248.164 272.836 248.138 272.939L242.988 288.9L246.847 301.435L260.206 280.531L255.653 272.624C255.653 272.624 260.465 265.311 263.328 262.775C266.191 260.238 259.555 256.078 259.555 256.078Z" fill="#DCE6F2"/>
    <path d="M277.597 230.087C277.597 230.087 283.116 231.437 278.17 236.082C273.224 240.728 255.653 256.694 255.653 256.694C255.653 256.694 262.16 261.619 260.924 268.779L280.767 256.101L284.296 235.808C284.296 235.808 284.689 229.71 277.597 230.087Z" fill="#575A89"/>
    <path opacity="0.1" d="M245.361 250.479C245.361 250.479 246.565 253.06 251.88 257.715C251.88 257.715 243.031 263.112 246.416 270.699L232.881 266.652L230.798 259.19L245.361 250.479Z" fill="black"/>
    <path d="M244.839 249.885C244.839 249.885 246.044 252.467 251.358 257.122C251.358 257.122 242.51 262.491 245.894 270.101L232.363 266.053L230.28 258.597L244.839 249.885Z" fill="#575A89"/>
    <path opacity="0.1" d="M280.115 262.838L271.267 286.512L263.477 302.226H238.477L231.19 280.742L234.139 258.462H239.446C239.36 263.661 241.015 269.768 240.909 272.039C240.729 275.772 245.765 295.912 245.765 295.912C245.765 295.912 256.304 276.366 260.465 274.625C263.081 273.533 268.623 264.439 272.385 257.819L280.115 262.838Z" fill="black"/>
    <path d="M314.972 387.421L314.074 388.716C314.074 388.716 320.581 426.166 318.78 434.671C318.474 436.204 318.3 437.767 318.259 439.339V439.407C317.941 448.06 320.22 459.29 320.22 459.29C320.22 459.29 322.04 492.391 321.004 506.005H199.173C198.46 485.874 197.691 459.793 198.389 456.902C199.566 452.13 201.919 434.819 201.919 434.819L202.178 426.616C202.178 426.616 202.178 418.687 202.39 409.854C202.48 405.883 202.613 401.714 202.805 398.017C203.052 393.367 203.398 389.449 203.872 387.524C204.165 386.065 204.333 384.577 204.374 383.081C204.374 382.942 204.374 382.798 204.398 382.654C204.398 382.204 204.437 381.718 204.453 381.219C204.453 381.08 204.453 380.94 204.453 380.769C204.527 377.873 204.5 374.437 204.417 370.875C204.417 370.682 204.417 370.484 204.417 370.286C204.351 367.614 204.253 364.889 204.143 362.298C203.802 354.203 203.358 347.358 203.358 347.358L188.395 290.51L192.427 279.123L203.617 271.261L224.307 256.937C234.399 247.425 241.043 248.567 243.576 249.611C243.823 249.707 244.063 249.82 244.298 249.948C244.377 249.993 244.439 250.029 244.498 250.07C244.579 250.113 244.656 250.164 244.73 250.222C244.036 250.605 243.433 251.175 242.972 251.882C242.454 252.687 242.084 253.605 241.886 254.581C241.754 255.185 241.66 255.8 241.608 256.42C241.557 257.072 241.537 257.747 241.537 258.426C241.565 259.915 241.676 261.401 241.87 262.874C241.87 262.901 241.87 262.937 241.87 262.973C242 264.025 242.161 265.055 242.317 266.022C242.316 266.038 242.316 266.055 242.317 266.071C242.498 267.2 242.678 268.244 242.8 269.143C242.823 269.305 242.843 269.453 242.863 269.593C242.949 270.187 242.99 270.789 242.984 271.392C243.028 272.847 243.199 274.293 243.494 275.709C243.596 276.303 243.714 276.937 243.843 277.598C244.02 278.498 244.212 279.478 244.42 280.477C244.533 281.025 244.655 281.592 244.781 282.154C244.828 282.379 244.879 282.604 244.926 282.833L245.004 283.189C245.84 286.998 246.746 290.789 247.303 293.083C247.632 294.432 247.84 295.264 247.84 295.264C247.84 295.264 253.747 284.313 258.461 278.08C258.532 277.99 258.594 277.904 258.661 277.823C259.128 277.207 259.587 276.645 260.026 276.15C260.987 275.053 261.85 274.27 262.544 273.982C262.692 273.92 262.835 273.843 262.972 273.753C264.901 272.498 268.016 267.942 270.93 263.171C271.216 262.721 271.495 262.231 271.777 261.767C272.424 260.697 273.052 259.622 273.644 258.592C274.099 257.805 274.534 257.041 274.946 256.312C276.907 252.813 278.288 250.205 278.288 250.205L281.01 250.065L281.484 250.038H281.802L294.161 249.381C294.161 249.381 294.694 249.485 295.573 249.687C295.62 249.687 295.667 249.687 295.718 249.723C300.103 250.722 312.285 253.883 313.031 258.268C313.94 263.638 333.591 270.803 333.591 270.803C333.849 274.401 338.662 276.771 338.662 276.771C338.662 276.771 345.949 298.853 344 307.506C342.074 316.051 349.013 337.189 349.197 337.783L347.867 339.708L314.972 387.421Z" fill="#E8F5FF"/>
    <path opacity="0.1" d="M277.064 229.71C277.064 229.71 289.093 225.797 291.827 233.852C294.561 241.907 300.676 274.437 300.676 274.437C300.676 274.437 284.798 277.868 280.637 274.437C278.196 272.4 275.175 271.494 272.177 271.9L263.199 278.911L260.548 278.012C260.548 278.012 274.911 253.528 278.033 245.208C281.155 236.888 282.21 233.168 277.064 229.71Z" fill="black"/>
    <path d="M276.542 227.911C276.542 227.911 288.579 223.998 291.325 232.053C294.07 240.108 300.173 272.638 300.173 272.638C300.173 272.638 284.3 276.069 280.135 272.638C277.695 270.601 274.675 269.695 271.679 270.101L262.693 277.112L260.042 276.213C260.042 276.213 274.405 251.729 277.527 243.409C280.649 235.088 281.688 231.378 276.542 227.911Z" fill="#E8F5FF"/>
    <path opacity="0.1" d="M195.796 357.684C195.796 357.684 204.774 360.22 206.469 366.04C208.163 371.86 199.832 372.008 199.832 372.008C199.832 372.008 194.757 361.714 195.796 357.684Z" fill="black"/>
    <path opacity="0.1" d="M229.237 400.652C229.237 400.652 207.249 452.278 212.324 457.203C217.4 462.128 229.237 400.652 229.237 400.652Z" fill="black"/>
    <path opacity="0.1" d="M259.555 362.609C259.555 362.609 277.123 412.755 273.608 420.5C270.094 428.244 281.155 420.5 281.155 420.5L259.555 362.609Z" fill="black"/>
    <path d="M284.018 412.143C284.018 412.143 224.683 415.426 241.992 436.614C259.3 457.801 294.82 437.513 294.82 437.513L284.018 412.143Z" fill="#FFC1C7"/>
    <path opacity="0.1" d="M275.432 210.717C275.438 215.597 274.602 220.43 272.973 224.938C272.428 225.01 271.883 225.055 271.357 225.082C270.573 223.107 270.992 220.827 271.008 218.655C271.024 216.483 270.326 213.928 268.502 213.344C264.866 212.17 262.356 219.964 258.771 218.556C256.025 217.486 256.743 212.709 255.162 209.952C253.911 207.771 251.405 207.155 249.456 205.788C245.31 202.869 245.435 198.201 243.51 193.784C241.494 189.156 237.234 190.524 233.536 193.254C230.727 195.331 228.303 198.115 225.299 199.77C222.699 201.209 219.777 201.731 216.894 201.808C215.119 201.887 213.344 201.671 211.622 201.169C213.647 192.441 218.371 184.856 224.913 179.827C231.455 174.799 239.369 172.67 247.179 173.839C254.989 175.008 262.162 179.394 267.359 186.179C272.557 192.964 275.425 201.686 275.428 210.717H275.432Z" fill="black"/>
    <path d="M233.547 192.062C230.735 194.139 228.315 196.919 225.311 198.583C222.71 200.018 219.788 200.539 216.906 200.616C213.376 200.706 209.575 199.995 207.163 197.072C204.947 194.373 204.417 190.222 205.355 186.683C206.292 183.143 208.54 180.206 211.179 178.079C213.819 175.952 216.882 174.481 218.631 171.437C219.557 169.826 220.004 167.929 220.773 166.215C223.232 160.733 228.762 157.764 234.108 157.396C239.454 157.027 244.753 158.853 249.844 160.832C254.935 162.81 260.065 164.987 265.439 165.396C267.831 165.567 270.318 165.396 272.538 166.435C275.523 167.825 277.48 171.149 278.813 174.531C280.308 178.345 281.237 182.509 281.08 186.674C280.751 195.565 275.628 204.29 277.88 212.808C278.476 215.08 279.594 217.409 278.998 219.68C278.127 222.995 274.397 223.751 271.381 223.908C270.596 221.934 271.016 219.649 271.032 217.481C271.047 215.313 270.349 212.754 268.529 212.17C264.89 211.005 262.379 218.785 258.802 217.382C256.076 216.307 256.782 211.536 255.198 208.779C253.947 206.593 251.436 205.981 249.491 204.614C245.345 201.695 245.471 197.027 243.545 192.61C241.513 187.96 237.25 189.327 233.547 192.062Z" fill="#99607E"/>
    <path d="M176.013 363.202L173.02 364.398C173.02 364.398 174.197 384.691 170.275 390.511C166.352 396.33 183.155 410.798 183.155 410.798C183.155 410.798 206.186 410.65 206.837 408.55C207.488 406.449 205.661 370.951 205.661 370.951C205.661 370.951 193.298 365.428 194.337 356.627C194.337 356.627 190.564 377.365 184.971 376.47C179.378 375.575 173.028 370.218 176.013 363.202Z" fill="#E8F5FF"/>
    <path opacity="0.1" d="M185.995 382.748C190.355 382.748 193.89 379.041 193.89 374.468C193.89 369.895 190.355 366.188 185.995 366.188C181.634 366.188 178.1 369.895 178.1 374.468C178.1 379.041 181.634 382.748 185.995 382.748Z" fill="black"/>
    <path d="M194.627 363.8C194.627 363.8 193.059 308.896 179.402 321.129C165.745 333.362 165.611 347.992 168.212 352.314C170.812 356.636 179.151 378.273 179.151 378.273C180.455 379.14 181.92 379.64 183.425 379.733C184.931 379.825 186.434 379.507 187.811 378.805C189.189 378.103 190.402 377.037 191.351 375.693C192.3 374.35 192.957 372.768 193.27 371.077L194.627 363.8Z" fill="#FFC1C7"/>
    <path opacity="0.1" d="M279.821 224.726C279.758 224.485 279.635 224.27 279.468 224.106C278.794 223.4 277.342 223.152 275.154 223.368L275.244 224.556C278.162 224.268 278.739 224.933 278.813 225.046V225.158L278.903 225.307C279.267 225.867 279.525 226.509 279.66 227.191C279.795 227.872 279.805 228.578 279.688 229.264C279.049 232.93 275.122 235.849 275.083 235.88L274.989 235.943L274.93 236.046C273.236 238.929 263.654 247.065 261.148 249.17L260.928 248.882C259.806 249.997 249.946 259.896 249.413 263.688C249.067 266.067 246.73 266.989 245.883 267.245C244.988 266.467 242.086 263.818 240.576 260.85C239.16 258.057 244.859 252.606 245.361 250.479L244.576 249.557C244.494 249.899 237.175 257.742 239.211 261.749C240.843 264.965 243.823 267.717 244.867 268.626C244.533 272.098 242.458 292.485 239.27 297.315C235.308 303.319 231.978 333.578 232.347 344.142C232.673 353.528 230.535 371.257 223.397 378.871C222.161 380.247 220.67 381.285 219.035 381.908C217.401 382.531 215.664 382.723 213.956 382.469H213.87H213.783C213.681 382.469 203.327 383.683 194.627 375.273C187.509 368.406 183.477 357.198 182.637 341.952H182.465L182.394 337.513C184.324 337.167 186.063 335.978 187.244 334.193C188.425 332.409 188.957 330.169 188.728 327.945C188.499 325.72 187.527 323.684 186.017 322.264C184.506 320.844 182.574 320.15 180.627 320.329C178.679 320.508 176.868 321.545 175.574 323.223C174.28 324.901 173.603 327.089 173.687 329.327C173.77 331.565 174.606 333.679 176.02 335.225C177.434 336.771 179.315 337.628 181.269 337.616H181.355L181.425 342.028L181.08 342.055C181.943 357.796 186.179 369.44 193.631 376.631C199.295 382.013 206.53 384.728 213.874 384.228C214.395 384.293 214.918 384.326 215.443 384.327C218.808 384.346 222.047 382.853 224.464 380.166C231.982 372.139 234.269 353.758 233.912 344.052C233.52 332.858 237.014 303.688 240.521 298.376C243.957 293.164 246.039 272.853 246.404 268.918C247.648 268.518 250.46 267.254 250.938 263.971C251.283 261.596 257.869 254.279 261.92 250.227L261.799 250.065C263.979 248.239 270.761 242.482 274.122 238.785C275.166 237.639 276.201 236.492 277.284 235.399C278.586 234.077 280.241 231.976 280.676 229.494C280.825 228.674 280.825 227.829 280.678 227.009C280.531 226.189 280.24 225.412 279.821 224.726Z" fill="black"/>
    <path d="M244.733 268.342C244.569 268.212 240.662 265.005 238.705 261.147C236.673 257.139 243.992 249.3 244.071 248.959L244.855 249.881C244.357 252.003 238.658 257.459 240.074 260.247C241.859 263.769 245.616 266.849 245.655 266.881L244.733 268.342Z" fill="#353146"/>
    <path d="M260.638 250.043L260.026 249.076C260.151 248.972 272.471 238.754 274.412 235.448L274.475 235.35L274.565 235.282C274.605 235.251 278.531 232.336 279.17 228.666C279.288 227.981 279.279 227.275 279.144 226.594C279.009 225.913 278.75 225.272 278.386 224.713L278.295 224.56V224.452C278.217 224.335 277.64 223.674 274.722 223.962L274.632 222.77C276.825 222.554 278.272 222.802 278.947 223.508C279.114 223.673 279.238 223.89 279.303 224.133C279.728 224.817 280.025 225.593 280.177 226.414C280.33 227.234 280.334 228.082 280.19 228.905C279.754 231.392 278.103 233.492 276.797 234.81C275.719 235.903 274.679 237.059 273.64 238.196C269.698 242.527 261.069 249.687 260.638 250.043Z" fill="#E8F5FF"/>
    <path d="M181.888 335.947L180.849 335.969L180.965 343.213L182.004 343.191L181.888 335.947Z" fill="#E8F5FF"/>
    <path d="M180.763 337.045C184.954 337.045 188.352 333.149 188.352 328.343C188.352 323.536 184.954 319.64 180.763 319.64C176.571 319.64 173.173 323.536 173.173 328.343C173.173 333.149 176.571 337.045 180.763 337.045Z" fill="#16697A"/>
    <path d="M180.762 335.57C184.243 335.57 187.065 332.334 187.065 328.343C187.065 324.351 184.243 321.115 180.762 321.115C177.281 321.115 174.459 324.351 174.459 328.343C174.459 332.334 177.281 335.57 180.762 335.57Z" fill="#E8F5FF"/>
    <path d="M214.948 383.746C214.424 383.747 213.9 383.716 213.379 383.652C206.037 384.148 198.803 381.433 193.137 376.056C185.685 368.86 181.457 357.23 180.586 341.475L182.155 341.363C182.994 356.609 187.026 367.821 194.149 374.684C202.848 383.072 213.199 381.88 213.301 381.88H213.387H213.473C215.182 382.133 216.919 381.94 218.554 381.317C220.189 380.695 221.681 379.657 222.918 378.282C230.053 370.668 232.19 352.939 231.865 343.553C231.472 332.979 234.802 302.721 238.768 296.721C242.239 291.464 244.392 267.767 244.416 267.528L244.474 266.854L245.055 266.737C245.09 266.737 248.479 265.999 248.903 263.094C249.452 259.307 259.296 249.408 260.414 248.288L261.438 249.638C257.371 253.685 250.785 261.007 250.456 263.386C249.977 266.678 247.165 267.938 245.926 268.333C245.533 272.273 243.466 292.579 240.042 297.792C236.536 303.103 233.041 332.273 233.433 343.467C233.771 353.173 231.508 371.558 223.989 379.582C221.568 382.275 218.321 383.77 214.948 383.746Z" fill="#353146"/>
    <g opacity="0.1">
    <path opacity="0.1" d="M278.774 200.085C279.417 197.36 280.194 194.616 280.735 191.855C280.088 194.63 279.307 197.36 278.774 200.085Z" fill="black"/>
    <path opacity="0.1" d="M272.212 221.502C271.428 219.527 271.847 217.243 271.863 215.075C271.879 212.907 271.181 210.371 269.361 209.764C265.721 208.599 263.211 216.384 259.634 214.976C256.888 213.901 257.614 209.129 256.029 206.372C254.778 204.187 252.272 203.575 250.326 202.208C246.177 199.289 246.302 194.621 244.38 190.204C242.36 185.572 238.105 186.939 234.402 189.674C231.59 191.751 229.17 194.535 226.166 196.195C223.565 197.629 220.643 198.151 217.761 198.228C214.25 198.322 210.43 197.607 208.018 194.684C206.159 192.435 205.488 189.138 205.872 186.049C205.806 186.26 205.747 186.471 205.688 186.683C204.747 190.222 205.296 194.382 207.496 197.072C209.908 199.995 213.728 200.706 217.239 200.616C220.126 200.539 223.044 200.018 225.648 198.583C228.66 196.919 231.08 194.139 233.885 192.062C237.587 189.327 241.847 187.96 243.863 192.592C245.784 197.009 245.663 201.677 249.809 204.596C251.77 205.945 254.26 206.575 255.515 208.761C257.084 211.526 256.39 216.289 259.12 217.364C262.693 218.767 265.203 210.987 268.843 212.152C270.663 212.736 271.365 215.3 271.345 217.463C271.326 219.626 270.918 221.916 271.694 223.89C274.711 223.733 278.441 222.99 279.315 219.662C279.436 219.185 279.491 218.689 279.48 218.192C278.205 220.715 274.926 221.362 272.212 221.502Z" fill="black"/>
    </g>
    <path opacity="0.1" d="M343.098 332.319L347.652 337.841C347.652 337.841 351.295 368.275 353.115 371.122C354.935 373.969 359.234 385.294 355.198 393.798C355.198 393.798 353.896 398.426 354.676 400.365C355.457 402.303 348.824 412.004 348.824 412.004C348.824 412.004 340.105 420.954 338.281 422.299C336.458 423.643 326.833 434.383 323.581 434.532C320.33 434.68 319.267 439.308 319.267 439.308L300.919 440.054C300.919 440.054 290.784 439.447 288.58 441.089C288.58 441.089 289.756 423.333 278.433 411.694L292.874 405.726C292.874 405.726 298.342 403.027 300.032 400.207C301.096 398.478 302.604 397.175 304.347 396.479C304.347 396.479 308.379 393.196 308.508 391.406C308.638 389.616 313.438 387.421 313.438 387.421L310.72 360.819L312.152 316.654C312.152 316.654 316.706 279.649 326.334 281.74C335.963 283.832 343.098 332.319 343.098 332.319Z" fill="black"/>
    <path d="M344.667 332.319L349.22 337.841C349.22 337.841 352.864 368.275 354.684 371.122C356.504 373.969 360.803 385.294 356.767 393.798C356.767 393.798 355.468 398.426 356.249 400.365C357.029 402.303 350.393 412.004 350.393 412.004C350.393 412.004 341.674 420.954 339.85 422.299C338.026 423.643 328.401 434.383 325.15 434.532C321.898 434.68 320.836 439.308 320.836 439.308L302.488 440.054C302.488 440.054 292.345 439.447 290.148 441.089C290.148 441.089 291.325 423.333 280.002 411.694L294.443 405.726C294.443 405.726 299.911 403.027 301.601 400.207C302.665 398.478 304.173 397.175 305.916 396.479C305.916 396.479 309.948 393.196 310.077 391.406C310.206 389.616 315.007 387.421 315.007 387.421L312.289 360.819L313.721 316.654C313.721 316.654 318.274 279.649 327.903 281.74C337.532 283.832 344.667 332.319 344.667 332.319Z" fill="#E8F5FF"/>
    <path opacity="0.1" d="M327.739 376.933C327.739 376.933 341.141 372.885 344.655 377.832C348.169 382.779 327.739 376.933 327.739 376.933Z" fill="black"/>
    <path opacity="0.1" d="M324.616 383.719C329.17 387.376 343.223 387.524 343.223 387.524L324.616 383.719Z" fill="black"/>
    <path opacity="0.1" d="M331.512 401.997C331.904 402.145 341.172 413.488 345.063 410.056C348.954 406.625 331.512 401.997 331.512 401.997Z" fill="black"/>
    <path opacity="0.1" d="M206.692 306.805C206.692 306.805 209.414 328.293 208.073 337.045C206.731 345.797 211.626 356.641 211.626 356.641L206.692 306.805Z" fill="black"/>
    <path d="M146.432 315.543C143.294 318.363 141.003 325.037 139.344 332.372C136.45 345.168 135.504 360.005 135.504 360.005C135.504 360.005 110.52 353.438 112.34 350.457C113.485 348.581 111.948 334.45 110.665 324.205C109.9 318.152 109.218 313.452 109.218 313.452C109.218 313.452 155.021 307.78 146.432 315.543Z" fill="#FFCCD0"/>
    <path opacity="0.1" d="M146.432 314.945C143.294 317.769 141.003 324.439 139.344 331.774C134.366 333.507 129.072 333.664 124.023 332.227C118.974 330.79 114.358 327.813 110.665 323.611C109.9 317.553 109.218 312.854 109.218 312.854C109.218 312.854 155.021 307.187 146.432 314.945Z" fill="black"/>
    <path d="M159.861 298.871C159.864 306.694 157.453 314.265 153.055 320.245C148.658 326.225 142.557 330.229 135.832 331.547C129.108 332.865 122.194 331.413 116.313 327.448C110.433 323.482 105.965 317.259 103.702 309.88C101.438 302.501 101.524 294.441 103.944 287.128C106.364 279.814 110.963 273.718 116.926 269.918C122.889 266.119 129.832 264.861 136.526 266.367C143.22 267.873 149.234 272.046 153.503 278.147C157.617 284.024 159.86 291.335 159.861 298.871Z" fill="#FFCCD0"/>
    <path opacity="0.1" d="M182.641 506.004H174.405L173.71 489.324L172.985 472.058C172.985 472.058 174.856 471.739 177.837 471.262L179.041 471.078H179.139C179.79 474.581 180.433 478.179 181.053 481.772C182.084 488.152 182.621 494.623 182.657 501.111C182.657 501.561 182.657 502.011 182.657 502.434C182.68 503.634 182.657 504.835 182.641 506.004Z" fill="black"/>
    <path d="M181.061 506.005H77.7661C78.2132 504.84 78.5113 504.134 78.5113 504.134C78.5113 504.134 86.7754 462.676 90.976 445.136C90.9773 445.121 90.9773 445.106 90.976 445.091C91.5009 442.709 92.1345 440.359 92.8744 438.053C92.9222 437.896 92.9839 437.745 93.0587 437.603C95.1375 433.726 97.7418 429.548 94.0981 423.58C90.4544 417.612 91.7448 391.352 91.7448 391.352C91.7448 391.352 96.169 368.968 100.852 357.032C101.563 355.183 102.571 353.504 103.825 352.085C104.233 351.627 104.668 351.204 105.127 350.816C105.477 350.515 105.841 350.238 106.218 349.984L106.292 349.93C108.259 348.651 110.444 347.874 112.697 347.65C114.298 347.458 115.913 347.51 117.502 347.803C125.095 349.08 131.174 351.217 136.007 353.65C149.103 360.247 153.068 369.089 153.147 369.274L153.178 369.35C153.703 370.758 161.391 391.338 164.16 400.94C164.878 403.441 165.27 405.199 165.113 405.68C164.329 408.064 171.098 437.904 171.098 437.904C171.098 437.904 174.236 452.296 177.374 469.166C177.511 469.868 177.641 470.569 177.766 471.28C178.327 474.343 178.884 477.464 179.421 480.581C180.462 487.004 180.999 493.521 181.025 500.054C181.083 502.09 181.095 504.074 181.061 506.005Z" fill="#FF748E"/>
    <path opacity="0.1" d="M112.081 337.387C112.081 337.387 104.955 334.239 105.041 339.015C105.127 343.791 106.778 346.076 106.257 346.773C105.735 347.47 106.516 351.648 106.516 351.648C106.516 351.648 116.145 351.648 120.569 353.933C124.993 356.218 141.301 360.796 143.384 362.19C145.467 363.585 153.19 369.836 153.19 369.836L153.884 357.999C153.884 357.999 145.902 350.439 132.806 346.562C119.71 342.685 112.081 337.387 112.081 337.387Z" fill="black"/>
    <path d="M112.081 336.789C112.081 336.789 104.955 333.641 105.041 338.417C105.127 343.193 106.778 345.478 106.257 346.175C105.735 346.872 106.516 351.05 106.516 351.05C106.516 351.05 116.145 351.05 120.569 353.339C124.993 355.629 141.301 360.202 143.384 361.592C145.467 362.982 153.19 369.238 153.19 369.238L153.892 357.437C153.892 357.437 145.91 349.876 132.814 346C119.718 342.123 112.081 336.789 112.081 336.789Z" fill="#FF748E"/>
    <path opacity="0.1" d="M133.594 365.276C133.594 365.276 147.212 382.181 146.518 386.863C145.824 391.545 133.594 365.276 133.594 365.276Z" fill="black"/>
    <path opacity="0.1" d="M111.473 426.346C111.473 426.346 101.491 436.892 98.5498 437.491C95.6081 438.089 100.805 440.077 104.186 438.489C107.567 436.901 114.776 432.723 114.776 432.723L111.473 426.346Z" fill="black"/>
    <path d="M185.116 506.005H161.838C158.582 502.766 155.504 499.767 153.542 497.963C150.405 495.076 148.142 490.826 146.698 487.408C146.373 486.63 146.09 485.901 145.851 485.24C145.423 484.101 145.046 482.938 144.721 481.754L161.959 470.016C162.912 470.945 163.807 471.949 164.638 473.02L164.846 473.295C165.803 474.59 166.646 476.061 166.721 477.266C166.807 478.669 170.212 484.098 173.691 489.31C177.221 494.613 180.837 499.681 181.076 500.023C181.076 500.023 181.672 500.954 182.645 502.384C183.331 503.419 184.179 504.66 185.116 506.005Z" fill="#FFCCD0"/>
    <path opacity="0.1" d="M153.503 278.147C152.676 280.288 151.935 282.509 151.825 284.893C151.515 291.774 152.017 307.16 145.373 310.614C142.082 312.314 138.56 308.581 134.951 308.491C132.355 308.428 129.974 310.317 128.39 312.678C126.805 315.039 125.821 317.841 124.671 320.513C123.625 322.937 122.42 325.268 121.067 327.484C120.662 328.162 120.217 328.806 119.733 329.413C115.682 327.453 112.074 324.458 109.185 320.657C106.296 316.856 104.202 312.348 103.062 307.478C101.922 302.609 101.767 297.505 102.608 292.555C103.449 287.606 105.264 282.943 107.915 278.92C110.566 274.897 113.982 271.621 117.905 269.341C121.827 267.062 126.151 265.839 130.548 265.766C134.945 265.694 139.298 266.773 143.276 268.921C147.254 271.07 150.752 274.231 153.503 278.165V278.147Z" fill="black"/>
    <path d="M151.303 283.679C150.989 290.56 151.495 305.945 144.847 309.395C141.556 311.095 138.034 307.367 134.426 307.277C131.829 307.209 129.453 309.103 127.864 311.459C126.276 313.816 125.299 316.622 124.146 319.298C123.099 321.723 121.894 324.053 120.541 326.269C119.733 327.583 118.839 328.9 117.596 329.638C115.431 330.933 112.807 330.205 110.485 329.373C107.473 328.284 104.505 327.058 101.582 325.694C101.649 325.188 101.683 324.676 101.683 324.165C101.597 324.353 101.503 324.529 101.409 324.718L101.225 325.087C100.891 325.761 100.566 326.436 100.268 327.128C100.154 327.394 100.044 327.668 99.946 327.942C99.5515 328.963 99.3038 330.051 99.2125 331.163C99.0125 334.162 100.303 337.009 101.448 339.708C105.853 350.146 108.575 362.352 105.261 373.303C103.825 378.066 101.338 382.298 99.5224 386.899C96.3479 395.048 95.4135 404.112 96.8435 412.885C97.7495 418.336 99.5655 423.733 99.1184 429.26C98.334 438.773 91.1799 445.851 84.0141 450.718C80.1429 453.335 75.4049 455.665 71.2944 453.596C73.9145 450.088 74.5891 445.235 75.1539 440.657C76.6992 428.169 78.2485 415.675 79.8017 403.175C80.4214 398.201 81.0397 393.227 81.6568 388.253C82.81 378.907 83.9788 369.458 83.2571 360.054C82.7315 353.124 81.2489 345.766 83.869 339.492C85.2535 336.168 87.7205 333.416 88.4893 329.836C89.1208 326.926 88.5324 323.832 88.9482 320.868C89.1757 319.52 89.561 318.212 90.0935 316.982C90.7715 315.313 91.6566 313.765 92.7213 312.386C91.6702 312.035 90.6896 311.554 90.0935 310.546C91.78 309.287 92.0349 306.449 91.2701 304.317C90.5053 302.186 88.9756 300.562 87.5989 298.88C86.2223 297.198 84.8966 295.237 84.724 292.943C84.3906 288.576 88.1951 285.194 88.8658 280.886C89.5443 276.501 86.8616 272.237 87.0773 267.798C87.3283 262.433 91.627 258.534 95.8708 256.271C102.275 252.872 109.349 251.476 116.376 252.224C122.095 252.844 127.629 254.873 133.332 255.66C136.771 256.11 140.258 256.154 143.674 256.847C147.091 257.54 150.515 259.001 152.919 261.875C159.257 269.453 151.664 275.691 151.303 283.679Z" fill="#FFE0D0"/>
    <path opacity="0.1" d="M146 487.412C144 486.418 140.36 487.012 134.112 484.831C127.864 482.649 126.66 472.791 126.66 472.791V472.76C126.585 472.535 126.005 471.069 122.075 465.933C117.733 460.261 108.347 431.617 108.347 431.617C108.347 431.617 100.024 421.367 100.287 417.59C100.55 413.812 98.8085 403.76 98.9811 392.516C99.1536 381.273 117.717 373.816 117.717 373.816C153.46 366.553 145.043 413.803 144.09 417.383C143.137 420.963 148.083 430.632 148.083 430.632C147.385 434.842 150.946 441.359 150.946 441.359C150.946 441.359 151.809 447.124 151.985 449.315C151.995 449.416 152.015 449.515 152.044 449.611C152.617 451.676 157.284 453.547 159.183 454.684C161.179 455.881 167.6 466.324 167.6 466.324C168.984 473.992 147.993 488.42 146 487.412Z" fill="black"/>
    <path d="M147.04 485.613C145.043 484.615 141.4 485.213 135.156 483.027C128.911 480.841 127.703 470.992 127.703 470.992V470.961C127.633 470.731 127.048 469.27 123.118 464.133C118.777 458.462 109.391 429.814 109.391 429.814C109.391 429.814 101.068 419.569 101.327 415.791C101.586 412.013 99.852 401.961 100.025 390.727C100.197 379.492 118.749 372.04 118.749 372.04C154.492 364.776 146.075 412.026 145.122 415.606C144.169 419.186 149.115 428.856 149.115 428.856C148.416 433.065 151.978 439.582 151.978 439.582C151.978 439.582 152.841 445.348 153.021 447.538C153.028 447.639 153.046 447.739 153.076 447.835C153.649 449.899 158.316 451.77 160.218 452.908C162.211 454.1 168.635 464.547 168.635 464.547C170.028 472.202 149.036 486.63 147.04 485.613Z" fill="#FF748E"/>
    <path opacity="0.1" d="M119.455 396.708C119.455 396.708 135.069 415.597 139.144 415.597C143.22 415.597 119.455 396.708 119.455 396.708Z" fill="black"/>
    <path d="M147.04 485.613C145.043 484.615 141.4 485.213 135.156 483.027C128.911 480.841 127.703 470.992 127.703 470.992V470.961C131.841 467.812 142.321 458.921 146.451 455.669C149.358 453.389 151.731 450.039 153.119 447.817C153.692 449.881 158.359 451.752 160.261 452.89C162.254 454.082 168.678 464.529 168.678 464.529C170.028 472.202 149.036 486.63 147.04 485.613Z" fill="#FF748E"/>
    <g opacity="0.1">
    <path opacity="0.1" d="M90.1169 310.596C90.1366 310.632 90.164 310.663 90.1875 310.699C90.3052 310.529 90.4268 310.358 90.5523 310.196C90.4186 310.345 90.2729 310.479 90.1169 310.596Z" fill="black"/>
    <path opacity="0.1" d="M99.2165 331.212C99.3812 328.716 100.546 326.517 101.636 324.322C100.923 324.007 100.209 323.688 99.5028 323.355C99.57 322.851 99.6041 322.341 99.6048 321.831C98.5026 324.079 97.3024 326.292 97.1338 328.824C96.9338 331.828 98.2241 334.671 99.3694 337.369C103.778 347.803 106.496 360.009 103.182 370.965C101.742 375.723 99.2596 379.96 97.4436 384.561C94.2703 392.708 93.3372 401.771 94.7687 410.542C95.6669 415.998 97.4868 421.39 97.0396 426.917C96.2552 436.429 89.1051 443.508 81.9353 448.37C79.0055 450.358 75.5814 452.179 72.3064 452.049C72.0032 452.609 71.665 453.142 71.2944 453.646C75.4088 455.728 80.1429 453.385 84.0141 450.758C91.1878 445.901 98.3536 438.84 99.138 429.31C99.5851 423.783 97.7653 418.39 96.8632 412.935C95.4313 404.165 96.3615 395.103 99.5302 386.953C101.334 382.357 103.845 378.116 105.268 373.358C108.583 362.402 105.861 350.196 101.456 339.762C100.315 337.045 99.0164 334.216 99.2165 331.212Z" fill="black"/>
    <path opacity="0.1" d="M152.911 261.929C152.525 261.475 152.111 261.055 151.672 260.67C156.425 267.74 149.562 273.749 149.22 281.358C148.914 288.239 149.416 303.629 142.768 307.074C139.482 308.779 135.956 305.046 132.351 304.956C129.751 304.893 127.374 306.787 125.785 309.143C124.197 311.5 123.22 314.306 122.071 316.978C121.023 319.402 119.816 321.732 118.463 323.949C117.678 325.267 116.76 326.58 115.513 327.322C113.356 328.613 110.732 327.889 108.406 327.052C106.144 326.237 103.903 325.337 101.684 324.354C101.679 324.822 101.645 325.289 101.582 325.752C104.507 327.12 107.477 328.346 110.489 329.431C112.811 330.268 115.435 330.992 117.596 329.701C118.839 328.959 119.741 327.641 120.545 326.323C121.9 324.11 123.105 321.781 124.15 319.357C125.303 316.685 126.276 313.875 127.868 311.518C129.46 309.161 131.833 307.272 134.43 307.335C138.038 307.425 141.564 311.158 144.851 309.454C151.499 306.009 150.993 290.618 151.303 283.737C151.664 275.736 159.257 269.503 152.911 261.929Z" fill="black"/>
    </g>
    <path opacity="0.1" d="M101.229 325.091C100.895 325.766 100.57 326.44 100.272 327.133C100.158 327.398 100.048 327.673 99.9499 327.947C97.8947 325.572 92.89 319.928 90.0974 318.179C90.7764 316.51 91.6614 314.962 92.7253 313.582C92.7253 313.582 99.3812 317.616 101.229 325.091Z" fill="black"/>
    <path d="M101.413 324.722C99.8715 316.721 92.7253 312.39 92.7253 312.39C91.6606 313.769 90.7754 315.317 90.0974 316.987C93.043 318.835 98.4713 325.033 100.272 327.133L101.413 324.722Z" fill="#FF748E"/>
    </g>
</svg>
